<svg width="88" height="65" viewBox="0 0 88 65" fill="none" xmlns="http://www.w3.org/2000/svg">
<path d="M32.507 63.75C49.7433 63.75 63.7639 49.7284 63.7639 32.493C63.7639 15.2576 49.7433 1.23608 32.507 1.23608C15.2707 1.23608 1.25 15.2567 1.25 32.493C1.25 49.7293 15.2707 63.75 32.507 63.75ZM32.5078 60.49C17.0706 60.49 4.51088 47.9294 4.51088 32.493C4.51088 17.0567 17.0706 4.49608 32.507 4.49608C47.9433 4.49608 60.5048 17.0559 60.5048 32.493C60.5048 47.9303 47.9451 60.49 32.5078 60.49Z" fill="#CFE44A" stroke="#CFE44A" stroke-width="1.5"/>
<path d="M87 32C87 32.5304 86.8096 33.0391 86.4707 33.4142C86.1318 33.7893 85.6721 34 85.1928 34H40.8072C40.3279 34 39.8682 33.7893 39.5293 33.4142C39.1904 33.0391 39 32.5304 39 32C39 31.4696 39.1904 30.9609 39.5293 30.5858C39.8682 30.2107 40.3279 30 40.8072 30H85.1928C85.6721 30 86.1318 30.2107 86.4707 30.5858C86.8096 30.9609 87 31.4696 87 32Z" fill="#CFE44A"/>
<path d="M88 32.5378V32.5796C87.9938 32.8681 87.92 33.1509 87.7849 33.4045C87.6497 33.6581 87.4571 33.8751 87.2229 34.0375L74.7878 42.6837C74.5945 42.8182 74.3771 42.9126 74.1479 42.9615C73.9188 43.0103 73.6825 43.0127 73.4524 42.9686C73.2224 42.9244 73.0031 42.8345 72.8072 42.704C72.6113 42.5735 72.4425 42.405 72.3105 42.208C72.1784 42.0111 72.0858 41.7896 72.0378 41.5562C71.9899 41.3227 71.9875 41.082 72.0308 40.8476C72.0742 40.6133 72.1625 40.3899 72.2906 40.1903C72.4186 39.9907 72.5841 39.8187 72.7774 39.6843L83.1611 32.4634L73.747 25.2388C73.3824 24.9445 73.1452 24.5167 73.086 24.0467C73.0268 23.5767 73.1503 23.1017 73.4302 22.7232C73.7101 22.3447 74.1241 22.0927 74.5839 22.0209C75.0437 21.9492 75.5128 22.0634 75.8911 22.3392L87.2906 31.0871C87.738 31.4321 88 31.9695 88 32.5378Z" fill="#CFE44A"/>
</svg>
