<svg width="25" height="24" viewBox="0 0 25 24" fill="none" xmlns="http://www.w3.org/2000/svg">
<path d="M9.59352 20.7046C14.3194 20.7046 18.1636 16.8602 18.1636 12.1345C18.1636 7.40884 14.3194 3.56443 9.59352 3.56443C4.86761 3.56443 1.02344 7.4086 1.02344 12.1345C1.02344 16.8604 4.86761 20.7046 9.59352 20.7046ZM9.59376 19.7246C5.40871 19.7246 2.00368 16.3193 2.00368 12.1345C2.00368 7.94969 5.40872 4.54443 9.59352 4.54443C13.7783 4.54443 17.1838 7.94947 17.1838 12.1345C17.1838 16.3196 13.7788 19.7246 9.59376 19.7246Z" fill="#3084B6" stroke="#3084B6" stroke-width="0.5"/>
<path d="M24.4561 12.0001C24.4561 12.1448 24.4042 12.2835 24.3118 12.3858C24.2193 12.4881 24.094 12.5456 23.9633 12.5456H11.8581C11.7274 12.5456 11.602 12.4881 11.5096 12.3858C11.4172 12.2835 11.3652 12.1448 11.3652 12.0001C11.3652 11.8554 11.4172 11.7167 11.5096 11.6144C11.602 11.5121 11.7274 11.4546 11.8581 11.4546H23.9633C24.094 11.4546 24.2193 11.5121 24.3118 11.6144C24.4042 11.7167 24.4561 11.8554 24.4561 12.0001Z" fill="#CFE44A"/>
<path d="M24.7289 12.1468V12.1582C24.7272 12.2368 24.7071 12.314 24.6702 12.3831C24.6333 12.4523 24.5808 12.5115 24.5169 12.5558L21.1256 14.9138C21.0728 14.9505 21.0135 14.9763 20.951 14.9896C20.8885 15.0029 20.8241 15.0036 20.7614 14.9915C20.6986 14.9795 20.6388 14.955 20.5854 14.9194C20.5319 14.8838 20.4859 14.8378 20.4499 14.7841C20.4139 14.7304 20.3886 14.67 20.3756 14.6063C20.3625 14.5427 20.3618 14.477 20.3736 14.4131C20.3855 14.3492 20.4095 14.2883 20.4445 14.2338C20.4794 14.1794 20.5245 14.1325 20.5773 14.0958L23.4092 12.1265L20.8417 10.1561C20.7422 10.0759 20.6775 9.95921 20.6614 9.83102C20.6453 9.70283 20.679 9.5733 20.7553 9.47007C20.8316 9.36684 20.9445 9.29811 21.0699 9.27854C21.1953 9.25897 21.3233 9.29012 21.4264 9.36534L24.5354 11.7511C24.6574 11.8452 24.7289 11.9918 24.7289 12.1468Z" fill="#CFE44A"/>
</svg>
