<svg width="28" height="28" viewBox="0 0 28 28" fill="none" xmlns="http://www.w3.org/2000/svg">
<path fill-rule="evenodd" clip-rule="evenodd" d="M13.6667 1C6.67106 1 1 6.67106 1 13.6667C1 20.6623 6.67106 26.3333 13.6667 26.3333C20.6623 26.3333 26.3333 20.6623 26.3333 13.6667C26.3333 10.3073 24.9988 7.08544 22.6234 4.70998C20.2479 2.33452 17.0261 1 13.6667 1ZM11.4267 11.5067C10.855 11.5067 10.2833 12.0767 9.70998 12.6484C9.13333 13.2233 8.55501 13.8 7.97333 13.8C7.66701 13.7926 7.37104 13.9111 7.15438 14.1277C6.93772 14.3444 6.81928 14.6403 6.82666 14.9467L7.97333 17.2533C7.97333 17.2533 7.97333 20.7067 9.13333 21.8533C10.2933 23 9.13333 23 9.13333 23C5.76997 21.6476 3.44413 18.5293 3.10666 14.92C2.84102 12.2585 3.60438 9.59632 5.24 7.48C5.42458 7.2293 5.71295 7.07589 6.02401 7.06293C6.33506 7.04997 6.6352 7.17885 6.84 7.41333C7.09866 7.79025 7.51699 8.02648 7.97333 8.05333C9.13333 8.05333 12.5867 11.5067 11.4267 11.5067ZM21.0399 16.9172C21.7039 17.2815 22.3318 17.6261 22.7733 17.4267C24.7067 16.56 24.04 11.4 24.04 11.4C24.04 11.4 23.0667 6.89333 20.4667 5.92C20.1109 5.8014 19.8398 6.29645 19.5331 6.85658C19.1847 7.49295 18.7903 8.21333 18.1733 8.21333C17.0133 8.21333 15.8667 8.22667 15.8667 9.37333C15.8667 9.94667 16.4433 10.5233 17.02 11.1C17.5967 11.6767 18.1733 12.2533 18.1733 12.8267C18.1733 13.9733 18.1733 16.2667 19.32 16.2667C19.8542 16.2667 20.4608 16.5995 21.0399 16.9172Z" stroke="#3084B6" stroke-width="2"/>
</svg>
