<svg width="85" height="67" viewBox="0 0 85 67" fill="none" xmlns="http://www.w3.org/2000/svg">
<path d="M21.6207 39.9983C23.509 46.4517 28.9517 59.616 38.1489 58.4344C47.3734 57.2492 43.7711 45.3543 52.2154 43.724C55.9327 43.0063 58.4524 49.4399 62.178 49.2398C66.9762 48.982 69.4185 44.2323 70.7594 40.2393C73.6025 31.7729 69.3448 17.4164 59.3799 14.9299C50.6839 12.7602 49.6668 23.385 42.1056 20.2989C37.8557 18.5643 38.2803 13.3844 33.1043 12.3392C17.4457 9.17733 19.1082 31.4111 21.6207 39.9983Z" fill="url(#paint0_linear_744_1300)"/>
<path d="M62.1812 50.2119C61.3866 50.2119 60.7402 49.5655 60.7402 48.7709C60.7402 47.9763 61.3866 47.3298 62.1812 47.3298C62.9757 47.3298 63.6221 47.9763 63.6221 48.7709C63.6221 49.5655 62.9757 50.2119 62.1812 50.2119ZM62.1812 48.3382C61.9426 48.3382 61.7485 48.5323 61.7485 48.771C61.7485 49.0097 61.9426 49.2037 62.1812 49.2037C62.4197 49.2037 62.6138 49.0097 62.6138 48.771C62.6138 48.5323 62.4197 48.3382 62.1812 48.3382Z" fill="#25C3C8"/>
<path d="M28.3613 28.7524C28.2276 28.7524 28.0994 28.6992 28.0048 28.6047C27.9103 28.5102 27.8572 28.3819 27.8572 28.2482C27.8572 27.9146 27.5858 27.6432 27.2522 27.6432C27.1185 27.6432 26.9903 27.5901 26.8957 27.4956C26.8012 27.401 26.748 27.2728 26.748 27.1391C26.748 27.0054 26.8012 26.8771 26.8957 26.7826C26.9903 26.6881 27.1185 26.6349 27.2522 26.6349C27.5858 26.6349 27.8572 26.3636 27.8572 26.03C27.8572 25.8963 27.9103 25.768 28.0048 25.6735C28.0994 25.5789 28.2276 25.5258 28.3613 25.5258C28.495 25.5258 28.6233 25.5789 28.7178 25.6735C28.8124 25.768 28.8655 25.8963 28.8655 26.03C28.8655 26.3636 29.1368 26.6349 29.4704 26.6349C29.6042 26.6349 29.7324 26.6881 29.8269 26.7826C29.9215 26.8771 29.9746 27.0054 29.9746 27.1391C29.9746 27.2728 29.9215 27.401 29.8269 27.4956C29.7324 27.5901 29.6042 27.6432 29.4704 27.6432C29.1368 27.6432 28.8655 27.9146 28.8655 28.2482C28.8655 28.3819 28.8124 28.5102 28.7178 28.6047C28.6233 28.6992 28.495 28.7524 28.3613 28.7524ZM63.6247 54.7748C63.491 54.7748 63.3628 54.7217 63.2682 54.6272C63.1737 54.5326 63.1206 54.4044 63.1206 54.2707C63.1206 53.937 62.8492 53.6657 62.5156 53.6657C62.3819 53.6657 62.2536 53.6126 62.1591 53.518C62.0645 53.4235 62.0114 53.2953 62.0114 53.1616C62.0114 53.0278 62.0645 52.8996 62.1591 52.8051C62.2536 52.7105 62.3819 52.6574 62.5156 52.6574C62.8492 52.6574 63.1206 52.3861 63.1206 52.0524C63.1206 51.9187 63.1737 51.7905 63.2682 51.6959C63.3628 51.6014 63.491 51.5483 63.6247 51.5483C63.7584 51.5483 63.8866 51.6014 63.9812 51.6959C64.0757 51.7905 64.1288 51.9187 64.1288 52.0524C64.1288 52.3861 64.4002 52.6574 64.7338 52.6574C64.8675 52.6574 64.9958 52.7105 65.0903 52.8051C65.1849 52.8996 65.238 53.0278 65.238 53.1616C65.238 53.2953 65.1849 53.4235 65.0903 53.518C64.9958 53.6126 64.8675 53.6657 64.7338 53.6657C64.4002 53.6657 64.1288 53.937 64.1288 54.2707C64.1288 54.4044 64.0757 54.5326 63.9812 54.6272C63.8866 54.7217 63.7584 54.7748 63.6247 54.7748Z" fill="#CFE44A"/>
<path d="M81.593 43.9593C81.5386 43.8371 81.5349 43.6984 81.5828 43.5735C81.6307 43.4487 81.7262 43.348 81.8484 43.2936C82.1531 43.1578 82.2906 42.7995 82.1548 42.4948C82.1004 42.3726 82.0967 42.2339 82.1446 42.109C82.1925 41.9842 82.288 41.8835 82.4102 41.8291C82.5323 41.7747 82.671 41.771 82.7959 41.8189C82.9207 41.8668 83.0214 41.9623 83.0758 42.0845C83.2116 42.3892 83.5699 42.5267 83.8746 42.3909C83.9968 42.3365 84.1355 42.3328 84.2604 42.3807C84.3852 42.4286 84.4859 42.5241 84.5403 42.6462C84.5947 42.7684 84.5984 42.9071 84.5505 43.032C84.5026 43.1568 84.4071 43.2575 84.285 43.3119C83.9802 43.4477 83.8428 43.806 83.9785 44.1107C84.0329 44.2329 84.0366 44.3716 83.9887 44.4965C83.9408 44.6213 83.8453 44.722 83.7232 44.7764C83.601 44.8308 83.4623 44.8345 83.3374 44.7866C83.2126 44.7387 83.1119 44.6432 83.0575 44.521C82.9217 44.2163 82.5635 44.0788 82.2587 44.2146C82.1366 44.269 81.9978 44.2727 81.873 44.2248C81.7481 44.1769 81.6474 44.0814 81.593 43.9593ZM58.7171 13.1957C58.6626 13.0736 58.659 12.9348 58.7069 12.81C58.7548 12.6851 58.8503 12.5844 58.9724 12.53C59.2772 12.3943 59.4146 12.036 59.2788 11.7312C59.2244 11.6091 59.2208 11.4703 59.2687 11.3455C59.3165 11.2207 59.4121 11.12 59.5342 11.0656C59.6563 11.0111 59.7951 11.0075 59.9199 11.0554C60.0448 11.1033 60.1455 11.1988 60.1999 11.3209C60.3356 11.6257 60.6939 11.7631 60.9987 11.6273C61.1208 11.5729 61.2596 11.5693 61.3844 11.6172C61.5092 11.665 61.6099 11.7606 61.6644 11.8827C61.7188 12.0048 61.7224 12.1436 61.6745 12.2684C61.6266 12.3933 61.5311 12.494 61.409 12.5484C61.1042 12.6841 60.9668 13.0424 61.1026 13.3472C61.157 13.4693 61.1606 13.6081 61.1127 13.7329C61.0649 13.8577 60.9693 13.9584 60.8472 14.0129C60.7251 14.0673 60.5863 14.0709 60.4615 14.023C60.3366 13.9752 60.2359 13.8796 60.1815 13.7575C60.0458 13.4527 59.6875 13.3153 59.3827 13.4511C59.2606 13.5055 59.1218 13.5091 58.997 13.4612C58.8722 13.4134 58.7715 13.3178 58.7171 13.1957Z" fill="#3084B6"/>
<mask id="path-5-outside-1_744_1300" maskUnits="userSpaceOnUse" x="2.19922" y="2.18079" width="60" height="60" fill="black">
<rect fill="white" x="2.19922" y="2.18079" width="60" height="60"/>
<path d="M47.5064 33.6C47.139 37.1614 45.5609 40.4891 43.0356 43.0271C40.5103 45.5652 37.1908 47.1602 33.6312 47.5456C33.5595 47.5447 33.4884 47.5582 33.422 47.5852C33.3556 47.6123 33.2953 47.6523 33.2446 47.703C33.1939 47.7537 33.1539 47.814 33.1269 47.8804C33.0998 47.9468 33.0864 48.0179 33.0872 48.0896V59.7312C33.0872 60.0197 32.9726 60.2965 32.7685 60.5005C32.5645 60.7046 32.2878 60.8192 31.9992 60.8192C31.7107 60.8192 31.4339 60.7046 31.2299 60.5005C31.0258 60.2965 30.9112 60.0197 30.9112 59.7312V55.5072C30.9009 55.3663 30.8402 55.2339 30.7403 55.1341C30.6405 55.0342 30.5081 54.9736 30.3672 54.9632C25.5283 54.5716 20.9383 52.6548 17.2581 49.4886C13.5778 46.3224 10.997 42.0702 9.88722 37.344C9.84591 37.204 9.8332 37.057 9.84986 36.912C9.86651 36.767 9.91219 36.6268 9.98416 36.4997C10.0561 36.3727 10.1529 36.2615 10.2688 36.1726C10.3847 36.0838 10.5172 36.0192 10.6586 35.9827C10.7999 35.9462 10.9472 35.9385 11.0916 35.9601C11.236 35.9817 11.3746 36.0321 11.4991 36.1083C11.6236 36.1846 11.7314 36.2851 11.8163 36.404C11.9011 36.5228 11.9611 36.6575 11.9928 36.8C12.9795 41.0423 15.2801 44.865 18.5668 47.723C21.8535 50.5811 25.9586 52.3287 30.2968 52.7168C30.4376 52.7872 30.572 52.7168 30.7064 52.5824C30.7775 52.5423 30.8349 52.4819 30.8714 52.4089C30.9079 52.3359 30.9218 52.2537 30.9112 52.1728V48.0896C30.9121 48.0179 30.8986 47.9468 30.8716 47.8804C30.8445 47.814 30.8045 47.7537 30.7538 47.703C30.7031 47.6523 30.6428 47.6123 30.5764 47.5852C30.51 47.5582 30.4389 47.5447 30.3672 47.5456C26.8246 47.1509 23.5189 45.5724 20.9848 43.0656C18.4513 40.5193 16.8697 37.1798 16.5048 33.6064C16.4841 33.4756 16.4184 33.3562 16.3191 33.2686C16.2198 33.181 16.0931 33.1307 15.9608 33.1264H4.31922C4.02218 33.1264 3.7373 33.0084 3.52726 32.7983C3.31722 32.5883 3.19922 32.3034 3.19922 32.0064C3.19922 31.7093 3.31722 31.4245 3.52726 31.2144C3.7373 31.0044 4.02218 30.8864 4.31922 30.8864H8.74162C8.87358 30.8809 8.99965 30.8302 9.09868 30.7428C9.19772 30.6554 9.26372 30.5366 9.28562 30.4064C9.57603 25.5746 11.3713 20.9549 14.4197 17.1949C17.4681 13.4349 21.6167 10.7232 26.284 9.43999C26.5667 9.38634 26.8591 9.44287 27.1014 9.59798C27.3437 9.7531 27.5174 9.99504 27.587 10.2742C27.6566 10.5533 27.6167 10.8485 27.4756 11.0992C27.3345 11.3499 27.1028 11.5371 26.828 11.6224C22.6524 12.7484 18.9327 15.1502 16.1881 18.4925C13.4436 21.8348 11.8113 25.9507 11.5192 30.2656C11.5012 30.3451 11.5019 30.4277 11.5213 30.5068C11.5407 30.586 11.5783 30.6596 11.6311 30.7217C11.6839 30.7838 11.7505 30.8327 11.8255 30.8647C11.9005 30.8966 11.9819 30.9106 12.0632 30.9056H15.9352C16.0675 30.9013 16.1942 30.851 16.2935 30.7634C16.3928 30.6758 16.4585 30.5564 16.4792 30.4256C16.8416 26.8576 18.4191 23.5225 20.9475 20.979C23.4758 18.4355 26.8014 16.8381 30.3672 16.4544C30.4389 16.4552 30.51 16.4418 30.5764 16.4147C30.6428 16.3877 30.7031 16.3477 30.7538 16.297C30.8045 16.2463 30.8445 16.186 30.8716 16.1196C30.8986 16.0532 30.9121 15.9821 30.9112 15.9104V4.26879C30.9112 3.98023 31.0258 3.70349 31.2299 3.49945C31.4339 3.29541 31.7107 3.18079 31.9992 3.18079C32.2878 3.18079 32.5645 3.29541 32.7685 3.49945C32.9726 3.70349 33.0872 3.98023 33.0872 4.26879V17.472C33.0945 17.626 33.0696 17.7799 33.0139 17.9238C32.9583 18.0676 32.8732 18.1983 32.7642 18.3073C32.6551 18.4164 32.5245 18.5015 32.3806 18.5571C32.2368 18.6127 32.0829 18.6377 31.9288 18.6304C20.0952 18.6304 14.1816 33.12 22.5464 41.4912C30.9112 49.8624 45.1896 43.872 45.3944 32C45.3927 31.8566 45.4197 31.7144 45.4737 31.5816C45.5278 31.4488 45.6079 31.3282 45.7093 31.2268C45.8106 31.1255 45.9313 31.0454 46.064 30.9913C46.1968 30.9372 46.3391 30.9103 46.4824 30.912H59.6792C59.9763 30.912 60.2611 31.03 60.4712 31.24C60.6812 31.4501 60.7992 31.7349 60.7992 32.032C60.7992 32.329 60.6812 32.6139 60.4712 32.8239C60.2611 33.034 59.9763 33.152 59.6792 33.152H55.3272C55.1922 33.1466 55.0603 33.1934 54.9589 33.2828C54.8576 33.3723 54.7946 33.4973 54.7832 33.632C54.43 38.4939 52.5498 43.1199 49.4109 46.8495C46.272 50.5792 42.035 53.2218 37.3048 54.4C35.8776 54.7392 35.3848 52.5632 36.8248 52.224C41.0491 51.1737 44.8374 48.8246 47.6562 45.5076C50.4749 42.1905 52.1819 38.0728 52.5368 33.7344C52.5549 33.6549 52.5541 33.5723 52.5347 33.4931C52.5153 33.414 52.4777 33.3404 52.4249 33.2783C52.3721 33.2162 52.3056 33.1672 52.2306 33.1353C52.1556 33.1034 52.0742 33.0894 51.9928 33.0944H48.0504C47.9181 33.0987 47.7914 33.149 47.6921 33.2366C47.5928 33.3242 47.5272 33.4436 47.5064 33.5744V33.6ZM56.3192 15.5008L48.4536 23.3216C48.2614 23.5302 47.9946 23.6544 47.7112 23.6672H42.4696C42.3265 23.6797 42.1884 23.7258 42.0664 23.8016L32.748 33.1904C32.5385 33.3862 32.2612 33.493 31.9745 33.4884C31.6878 33.4838 31.414 33.3682 31.2108 33.1659C31.0076 32.9635 30.8909 32.6902 30.8852 32.4035C30.8794 32.1169 30.9851 31.8391 31.18 31.6288L40.4984 22.2336C40.5611 22.2022 40.6136 22.1536 40.6499 22.0936C40.6861 22.0336 40.7046 21.9645 40.7032 21.8944V16.64C40.7019 16.4886 40.7313 16.3385 40.7896 16.1988C40.8479 16.0591 40.9339 15.9327 41.0424 15.8272L48.8632 8.01279C49.0142 7.84952 49.2109 7.73552 49.4276 7.68563C49.6444 7.63574 49.8711 7.65228 50.0783 7.73308C50.2855 7.81389 50.4636 7.95523 50.5893 8.13868C50.715 8.32213 50.7826 8.53919 50.7832 8.76159V13.0496C50.7923 13.1909 50.8525 13.3241 50.9526 13.4242C51.0527 13.5243 51.1859 13.5845 51.3272 13.5936H55.5448C55.7698 13.5877 55.9913 13.6497 56.1805 13.7715C56.3697 13.8933 56.5178 14.0693 56.6056 14.2766C56.6933 14.4838 56.7166 14.7127 56.6723 14.9333C56.6281 15.154 56.5184 15.3562 56.3576 15.5136L56.3192 15.5008ZM47.3592 21.2608L51.916 16.704C51.9952 16.6308 52.0511 16.5361 52.0769 16.4314C52.1027 16.3267 52.0972 16.2168 52.0611 16.1153C52.025 16.0137 51.9598 15.925 51.8737 15.8601C51.7876 15.7953 51.6844 15.7571 51.5768 15.7504H49.6568C49.3596 15.7573 49.0715 15.6472 48.8548 15.4436C48.6381 15.2401 48.5101 14.9595 48.4984 14.6624V12.8C48.4979 12.6898 48.465 12.5821 48.4039 12.4904C48.3428 12.3987 48.2561 12.3269 48.1545 12.284C48.053 12.2411 47.9411 12.2289 47.8328 12.2489C47.7244 12.269 47.6243 12.3204 47.5448 12.3968L43.0648 16.9536C42.9452 17.0578 42.8716 17.205 42.86 17.3632V20.9024C42.8592 20.9741 42.8726 21.0452 42.8997 21.1116C42.9267 21.178 42.9668 21.2383 43.0174 21.289C43.0681 21.3397 43.1284 21.3797 43.1948 21.4067C43.2612 21.4338 43.3323 21.4472 43.404 21.4464H47.0072C47.148 21.4464 47.2824 21.4464 47.3464 21.3056L47.3592 21.2608ZM41.2408 32.0128C41.2433 33.8427 40.703 35.6322 39.688 37.1549C38.6731 38.6775 37.2293 39.8648 35.5393 40.5666C33.8493 41.2683 31.9891 41.4529 30.1941 41.097C28.3992 40.7411 26.7501 39.8607 25.4558 38.5672C24.1614 37.2737 23.2798 35.6253 22.9227 33.8306C22.5655 32.0359 22.7488 30.1755 23.4494 28.4851C24.15 26.7946 25.3363 25.3499 26.8582 24.3339C28.3802 23.318 30.1693 22.7763 31.9992 22.7776C32.2742 22.7987 32.5311 22.9228 32.7185 23.1251C32.9059 23.3274 33.01 23.593 33.01 23.8688C33.01 24.1446 32.9059 24.4102 32.7185 24.6125C32.5311 24.8148 32.2742 24.9389 31.9992 24.96C30.1321 24.96 28.3414 25.7017 27.0212 27.022C25.7009 28.3422 24.9592 30.1329 24.9592 32C24.9592 33.8671 25.7009 35.6578 27.0212 36.978C28.3414 38.2983 30.1321 39.04 31.9992 39.04C36.0824 39.04 38.8024 35.9808 39.0008 32C38.9944 31.8456 39.0199 31.6915 39.0756 31.5474C39.1313 31.4032 39.2161 31.2721 39.3247 31.1621C39.4332 31.0521 39.5633 30.9657 39.7067 30.9081C39.8501 30.8505 40.0039 30.8231 40.1583 30.8275C40.3128 30.8319 40.4647 30.868 40.6046 30.9337C40.7445 30.9993 40.8695 31.093 40.9716 31.209C41.0737 31.325 41.1509 31.4607 41.1983 31.6078C41.2457 31.7549 41.2624 31.9102 41.2472 32.064L41.2408 32.0128Z"/>
</mask>
<path d="M47.5064 33.6C47.139 37.1614 45.5609 40.4891 43.0356 43.0271C40.5103 45.5652 37.1908 47.1602 33.6312 47.5456C33.5595 47.5447 33.4884 47.5582 33.422 47.5852C33.3556 47.6123 33.2953 47.6523 33.2446 47.703C33.1939 47.7537 33.1539 47.814 33.1269 47.8804C33.0998 47.9468 33.0864 48.0179 33.0872 48.0896V59.7312C33.0872 60.0197 32.9726 60.2965 32.7685 60.5005C32.5645 60.7046 32.2878 60.8192 31.9992 60.8192C31.7107 60.8192 31.4339 60.7046 31.2299 60.5005C31.0258 60.2965 30.9112 60.0197 30.9112 59.7312V55.5072C30.9009 55.3663 30.8402 55.2339 30.7403 55.1341C30.6405 55.0342 30.5081 54.9736 30.3672 54.9632C25.5283 54.5716 20.9383 52.6548 17.2581 49.4886C13.5778 46.3224 10.997 42.0702 9.88722 37.344C9.84591 37.204 9.8332 37.057 9.84986 36.912C9.86651 36.767 9.91219 36.6268 9.98416 36.4997C10.0561 36.3727 10.1529 36.2615 10.2688 36.1726C10.3847 36.0838 10.5172 36.0192 10.6586 35.9827C10.7999 35.9462 10.9472 35.9385 11.0916 35.9601C11.236 35.9817 11.3746 36.0321 11.4991 36.1083C11.6236 36.1846 11.7314 36.2851 11.8163 36.404C11.9011 36.5228 11.9611 36.6575 11.9928 36.8C12.9795 41.0423 15.2801 44.865 18.5668 47.723C21.8535 50.5811 25.9586 52.3287 30.2968 52.7168C30.4376 52.7872 30.572 52.7168 30.7064 52.5824C30.7775 52.5423 30.8349 52.4819 30.8714 52.4089C30.9079 52.3359 30.9218 52.2537 30.9112 52.1728V48.0896C30.9121 48.0179 30.8986 47.9468 30.8716 47.8804C30.8445 47.814 30.8045 47.7537 30.7538 47.703C30.7031 47.6523 30.6428 47.6123 30.5764 47.5852C30.51 47.5582 30.4389 47.5447 30.3672 47.5456C26.8246 47.1509 23.5189 45.5724 20.9848 43.0656C18.4513 40.5193 16.8697 37.1798 16.5048 33.6064C16.4841 33.4756 16.4184 33.3562 16.3191 33.2686C16.2198 33.181 16.0931 33.1307 15.9608 33.1264H4.31922C4.02218 33.1264 3.7373 33.0084 3.52726 32.7983C3.31722 32.5883 3.19922 32.3034 3.19922 32.0064C3.19922 31.7093 3.31722 31.4245 3.52726 31.2144C3.7373 31.0044 4.02218 30.8864 4.31922 30.8864H8.74162C8.87358 30.8809 8.99965 30.8302 9.09868 30.7428C9.19772 30.6554 9.26372 30.5366 9.28562 30.4064C9.57603 25.5746 11.3713 20.9549 14.4197 17.1949C17.4681 13.4349 21.6167 10.7232 26.284 9.43999C26.5667 9.38634 26.8591 9.44287 27.1014 9.59798C27.3437 9.7531 27.5174 9.99504 27.587 10.2742C27.6566 10.5533 27.6167 10.8485 27.4756 11.0992C27.3345 11.3499 27.1028 11.5371 26.828 11.6224C22.6524 12.7484 18.9327 15.1502 16.1881 18.4925C13.4436 21.8348 11.8113 25.9507 11.5192 30.2656C11.5012 30.3451 11.5019 30.4277 11.5213 30.5068C11.5407 30.586 11.5783 30.6596 11.6311 30.7217C11.6839 30.7838 11.7505 30.8327 11.8255 30.8647C11.9005 30.8966 11.9819 30.9106 12.0632 30.9056H15.9352C16.0675 30.9013 16.1942 30.851 16.2935 30.7634C16.3928 30.6758 16.4585 30.5564 16.4792 30.4256C16.8416 26.8576 18.4191 23.5225 20.9475 20.979C23.4758 18.4355 26.8014 16.8381 30.3672 16.4544C30.4389 16.4552 30.51 16.4418 30.5764 16.4147C30.6428 16.3877 30.7031 16.3477 30.7538 16.297C30.8045 16.2463 30.8445 16.186 30.8716 16.1196C30.8986 16.0532 30.9121 15.9821 30.9112 15.9104V4.26879C30.9112 3.98023 31.0258 3.70349 31.2299 3.49945C31.4339 3.29541 31.7107 3.18079 31.9992 3.18079C32.2878 3.18079 32.5645 3.29541 32.7685 3.49945C32.9726 3.70349 33.0872 3.98023 33.0872 4.26879V17.472C33.0945 17.626 33.0696 17.7799 33.0139 17.9238C32.9583 18.0676 32.8732 18.1983 32.7642 18.3073C32.6551 18.4164 32.5245 18.5015 32.3806 18.5571C32.2368 18.6127 32.0829 18.6377 31.9288 18.6304C20.0952 18.6304 14.1816 33.12 22.5464 41.4912C30.9112 49.8624 45.1896 43.872 45.3944 32C45.3927 31.8566 45.4197 31.7144 45.4737 31.5816C45.5278 31.4488 45.6079 31.3282 45.7093 31.2268C45.8106 31.1255 45.9313 31.0454 46.064 30.9913C46.1968 30.9372 46.3391 30.9103 46.4824 30.912H59.6792C59.9763 30.912 60.2611 31.03 60.4712 31.24C60.6812 31.4501 60.7992 31.7349 60.7992 32.032C60.7992 32.329 60.6812 32.6139 60.4712 32.8239C60.2611 33.034 59.9763 33.152 59.6792 33.152H55.3272C55.1922 33.1466 55.0603 33.1934 54.9589 33.2828C54.8576 33.3723 54.7946 33.4973 54.7832 33.632C54.43 38.4939 52.5498 43.1199 49.4109 46.8495C46.272 50.5792 42.035 53.2218 37.3048 54.4C35.8776 54.7392 35.3848 52.5632 36.8248 52.224C41.0491 51.1737 44.8374 48.8246 47.6562 45.5076C50.4749 42.1905 52.1819 38.0728 52.5368 33.7344C52.5549 33.6549 52.5541 33.5723 52.5347 33.4931C52.5153 33.414 52.4777 33.3404 52.4249 33.2783C52.3721 33.2162 52.3056 33.1672 52.2306 33.1353C52.1556 33.1034 52.0742 33.0894 51.9928 33.0944H48.0504C47.9181 33.0987 47.7914 33.149 47.6921 33.2366C47.5928 33.3242 47.5272 33.4436 47.5064 33.5744V33.6ZM56.3192 15.5008L48.4536 23.3216C48.2614 23.5302 47.9946 23.6544 47.7112 23.6672H42.4696C42.3265 23.6797 42.1884 23.7258 42.0664 23.8016L32.748 33.1904C32.5385 33.3862 32.2612 33.493 31.9745 33.4884C31.6878 33.4838 31.414 33.3682 31.2108 33.1659C31.0076 32.9635 30.8909 32.6902 30.8852 32.4035C30.8794 32.1169 30.9851 31.8391 31.18 31.6288L40.4984 22.2336C40.5611 22.2022 40.6136 22.1536 40.6499 22.0936C40.6861 22.0336 40.7046 21.9645 40.7032 21.8944V16.64C40.7019 16.4886 40.7313 16.3385 40.7896 16.1988C40.8479 16.0591 40.9339 15.9327 41.0424 15.8272L48.8632 8.01279C49.0142 7.84952 49.2109 7.73552 49.4276 7.68563C49.6444 7.63574 49.8711 7.65228 50.0783 7.73308C50.2855 7.81389 50.4636 7.95523 50.5893 8.13868C50.715 8.32213 50.7826 8.53919 50.7832 8.76159V13.0496C50.7923 13.1909 50.8525 13.3241 50.9526 13.4242C51.0527 13.5243 51.1859 13.5845 51.3272 13.5936H55.5448C55.7698 13.5877 55.9913 13.6497 56.1805 13.7715C56.3697 13.8933 56.5178 14.0693 56.6056 14.2766C56.6933 14.4838 56.7166 14.7127 56.6723 14.9333C56.6281 15.154 56.5184 15.3562 56.3576 15.5136L56.3192 15.5008ZM47.3592 21.2608L51.916 16.704C51.9952 16.6308 52.0511 16.5361 52.0769 16.4314C52.1027 16.3267 52.0972 16.2168 52.0611 16.1153C52.025 16.0137 51.9598 15.925 51.8737 15.8601C51.7876 15.7953 51.6844 15.7571 51.5768 15.7504H49.6568C49.3596 15.7573 49.0715 15.6472 48.8548 15.4436C48.6381 15.2401 48.5101 14.9595 48.4984 14.6624V12.8C48.4979 12.6898 48.465 12.5821 48.4039 12.4904C48.3428 12.3987 48.2561 12.3269 48.1545 12.284C48.053 12.2411 47.9411 12.2289 47.8328 12.2489C47.7244 12.269 47.6243 12.3204 47.5448 12.3968L43.0648 16.9536C42.9452 17.0578 42.8716 17.205 42.86 17.3632V20.9024C42.8592 20.9741 42.8726 21.0452 42.8997 21.1116C42.9267 21.178 42.9668 21.2383 43.0174 21.289C43.0681 21.3397 43.1284 21.3797 43.1948 21.4067C43.2612 21.4338 43.3323 21.4472 43.404 21.4464H47.0072C47.148 21.4464 47.2824 21.4464 47.3464 21.3056L47.3592 21.2608ZM41.2408 32.0128C41.2433 33.8427 40.703 35.6322 39.688 37.1549C38.6731 38.6775 37.2293 39.8648 35.5393 40.5666C33.8493 41.2683 31.9891 41.4529 30.1941 41.097C28.3992 40.7411 26.7501 39.8607 25.4558 38.5672C24.1614 37.2737 23.2798 35.6253 22.9227 33.8306C22.5655 32.0359 22.7488 30.1755 23.4494 28.4851C24.15 26.7946 25.3363 25.3499 26.8582 24.3339C28.3802 23.318 30.1693 22.7763 31.9992 22.7776C32.2742 22.7987 32.5311 22.9228 32.7185 23.1251C32.9059 23.3274 33.01 23.593 33.01 23.8688C33.01 24.1446 32.9059 24.4102 32.7185 24.6125C32.5311 24.8148 32.2742 24.9389 31.9992 24.96C30.1321 24.96 28.3414 25.7017 27.0212 27.022C25.7009 28.3422 24.9592 30.1329 24.9592 32C24.9592 33.8671 25.7009 35.6578 27.0212 36.978C28.3414 38.2983 30.1321 39.04 31.9992 39.04C36.0824 39.04 38.8024 35.9808 39.0008 32C38.9944 31.8456 39.0199 31.6915 39.0756 31.5474C39.1313 31.4032 39.2161 31.2721 39.3247 31.1621C39.4332 31.0521 39.5633 30.9657 39.7067 30.9081C39.8501 30.8505 40.0039 30.8231 40.1583 30.8275C40.3128 30.8319 40.4647 30.868 40.6046 30.9337C40.7445 30.9993 40.8695 31.093 40.9716 31.209C41.0737 31.325 41.1509 31.4607 41.1983 31.6078C41.2457 31.7549 41.2624 31.9102 41.2472 32.064L41.2408 32.0128Z" fill="#3084B6"/>
<path d="M47.5064 33.6C47.139 37.1614 45.5609 40.4891 43.0356 43.0271C40.5103 45.5652 37.1908 47.1602 33.6312 47.5456C33.5595 47.5447 33.4884 47.5582 33.422 47.5852C33.3556 47.6123 33.2953 47.6523 33.2446 47.703C33.1939 47.7537 33.1539 47.814 33.1269 47.8804C33.0998 47.9468 33.0864 48.0179 33.0872 48.0896V59.7312C33.0872 60.0197 32.9726 60.2965 32.7685 60.5005C32.5645 60.7046 32.2878 60.8192 31.9992 60.8192C31.7107 60.8192 31.4339 60.7046 31.2299 60.5005C31.0258 60.2965 30.9112 60.0197 30.9112 59.7312V55.5072C30.9009 55.3663 30.8402 55.2339 30.7403 55.1341C30.6405 55.0342 30.5081 54.9736 30.3672 54.9632C25.5283 54.5716 20.9383 52.6548 17.2581 49.4886C13.5778 46.3224 10.997 42.0702 9.88722 37.344C9.84591 37.204 9.8332 37.057 9.84986 36.912C9.86651 36.767 9.91219 36.6268 9.98416 36.4997C10.0561 36.3727 10.1529 36.2615 10.2688 36.1726C10.3847 36.0838 10.5172 36.0192 10.6586 35.9827C10.7999 35.9462 10.9472 35.9385 11.0916 35.9601C11.236 35.9817 11.3746 36.0321 11.4991 36.1083C11.6236 36.1846 11.7314 36.2851 11.8163 36.404C11.9011 36.5228 11.9611 36.6575 11.9928 36.8C12.9795 41.0423 15.2801 44.865 18.5668 47.723C21.8535 50.5811 25.9586 52.3287 30.2968 52.7168C30.4376 52.7872 30.572 52.7168 30.7064 52.5824C30.7775 52.5423 30.8349 52.4819 30.8714 52.4089C30.9079 52.3359 30.9218 52.2537 30.9112 52.1728V48.0896C30.9121 48.0179 30.8986 47.9468 30.8716 47.8804C30.8445 47.814 30.8045 47.7537 30.7538 47.703C30.7031 47.6523 30.6428 47.6123 30.5764 47.5852C30.51 47.5582 30.4389 47.5447 30.3672 47.5456C26.8246 47.1509 23.5189 45.5724 20.9848 43.0656C18.4513 40.5193 16.8697 37.1798 16.5048 33.6064C16.4841 33.4756 16.4184 33.3562 16.3191 33.2686C16.2198 33.181 16.0931 33.1307 15.9608 33.1264H4.31922C4.02218 33.1264 3.7373 33.0084 3.52726 32.7983C3.31722 32.5883 3.19922 32.3034 3.19922 32.0064C3.19922 31.7093 3.31722 31.4245 3.52726 31.2144C3.7373 31.0044 4.02218 30.8864 4.31922 30.8864H8.74162C8.87358 30.8809 8.99965 30.8302 9.09868 30.7428C9.19772 30.6554 9.26372 30.5366 9.28562 30.4064C9.57603 25.5746 11.3713 20.9549 14.4197 17.1949C17.4681 13.4349 21.6167 10.7232 26.284 9.43999C26.5667 9.38634 26.8591 9.44287 27.1014 9.59798C27.3437 9.7531 27.5174 9.99504 27.587 10.2742C27.6566 10.5533 27.6167 10.8485 27.4756 11.0992C27.3345 11.3499 27.1028 11.5371 26.828 11.6224C22.6524 12.7484 18.9327 15.1502 16.1881 18.4925C13.4436 21.8348 11.8113 25.9507 11.5192 30.2656C11.5012 30.3451 11.5019 30.4277 11.5213 30.5068C11.5407 30.586 11.5783 30.6596 11.6311 30.7217C11.6839 30.7838 11.7505 30.8327 11.8255 30.8647C11.9005 30.8966 11.9819 30.9106 12.0632 30.9056H15.9352C16.0675 30.9013 16.1942 30.851 16.2935 30.7634C16.3928 30.6758 16.4585 30.5564 16.4792 30.4256C16.8416 26.8576 18.4191 23.5225 20.9475 20.979C23.4758 18.4355 26.8014 16.8381 30.3672 16.4544C30.4389 16.4552 30.51 16.4418 30.5764 16.4147C30.6428 16.3877 30.7031 16.3477 30.7538 16.297C30.8045 16.2463 30.8445 16.186 30.8716 16.1196C30.8986 16.0532 30.9121 15.9821 30.9112 15.9104V4.26879C30.9112 3.98023 31.0258 3.70349 31.2299 3.49945C31.4339 3.29541 31.7107 3.18079 31.9992 3.18079C32.2878 3.18079 32.5645 3.29541 32.7685 3.49945C32.9726 3.70349 33.0872 3.98023 33.0872 4.26879V17.472C33.0945 17.626 33.0696 17.7799 33.0139 17.9238C32.9583 18.0676 32.8732 18.1983 32.7642 18.3073C32.6551 18.4164 32.5245 18.5015 32.3806 18.5571C32.2368 18.6127 32.0829 18.6377 31.9288 18.6304C20.0952 18.6304 14.1816 33.12 22.5464 41.4912C30.9112 49.8624 45.1896 43.872 45.3944 32C45.3927 31.8566 45.4197 31.7144 45.4737 31.5816C45.5278 31.4488 45.6079 31.3282 45.7093 31.2268C45.8106 31.1255 45.9313 31.0454 46.064 30.9913C46.1968 30.9372 46.3391 30.9103 46.4824 30.912H59.6792C59.9763 30.912 60.2611 31.03 60.4712 31.24C60.6812 31.4501 60.7992 31.7349 60.7992 32.032C60.7992 32.329 60.6812 32.6139 60.4712 32.8239C60.2611 33.034 59.9763 33.152 59.6792 33.152H55.3272C55.1922 33.1466 55.0603 33.1934 54.9589 33.2828C54.8576 33.3723 54.7946 33.4973 54.7832 33.632C54.43 38.4939 52.5498 43.1199 49.4109 46.8495C46.272 50.5792 42.035 53.2218 37.3048 54.4C35.8776 54.7392 35.3848 52.5632 36.8248 52.224C41.0491 51.1737 44.8374 48.8246 47.6562 45.5076C50.4749 42.1905 52.1819 38.0728 52.5368 33.7344C52.5549 33.6549 52.5541 33.5723 52.5347 33.4931C52.5153 33.414 52.4777 33.3404 52.4249 33.2783C52.3721 33.2162 52.3056 33.1672 52.2306 33.1353C52.1556 33.1034 52.0742 33.0894 51.9928 33.0944H48.0504C47.9181 33.0987 47.7914 33.149 47.6921 33.2366C47.5928 33.3242 47.5272 33.4436 47.5064 33.5744V33.6ZM56.3192 15.5008L48.4536 23.3216C48.2614 23.5302 47.9946 23.6544 47.7112 23.6672H42.4696C42.3265 23.6797 42.1884 23.7258 42.0664 23.8016L32.748 33.1904C32.5385 33.3862 32.2612 33.493 31.9745 33.4884C31.6878 33.4838 31.414 33.3682 31.2108 33.1659C31.0076 32.9635 30.8909 32.6902 30.8852 32.4035C30.8794 32.1169 30.9851 31.8391 31.18 31.6288L40.4984 22.2336C40.5611 22.2022 40.6136 22.1536 40.6499 22.0936C40.6861 22.0336 40.7046 21.9645 40.7032 21.8944V16.64C40.7019 16.4886 40.7313 16.3385 40.7896 16.1988C40.8479 16.0591 40.9339 15.9327 41.0424 15.8272L48.8632 8.01279C49.0142 7.84952 49.2109 7.73552 49.4276 7.68563C49.6444 7.63574 49.8711 7.65228 50.0783 7.73308C50.2855 7.81389 50.4636 7.95523 50.5893 8.13868C50.715 8.32213 50.7826 8.53919 50.7832 8.76159V13.0496C50.7923 13.1909 50.8525 13.3241 50.9526 13.4242C51.0527 13.5243 51.1859 13.5845 51.3272 13.5936H55.5448C55.7698 13.5877 55.9913 13.6497 56.1805 13.7715C56.3697 13.8933 56.5178 14.0693 56.6056 14.2766C56.6933 14.4838 56.7166 14.7127 56.6723 14.9333C56.6281 15.154 56.5184 15.3562 56.3576 15.5136L56.3192 15.5008ZM47.3592 21.2608L51.916 16.704C51.9952 16.6308 52.0511 16.5361 52.0769 16.4314C52.1027 16.3267 52.0972 16.2168 52.0611 16.1153C52.025 16.0137 51.9598 15.925 51.8737 15.8601C51.7876 15.7953 51.6844 15.7571 51.5768 15.7504H49.6568C49.3596 15.7573 49.0715 15.6472 48.8548 15.4436C48.6381 15.2401 48.5101 14.9595 48.4984 14.6624V12.8C48.4979 12.6898 48.465 12.5821 48.4039 12.4904C48.3428 12.3987 48.2561 12.3269 48.1545 12.284C48.053 12.2411 47.9411 12.2289 47.8328 12.2489C47.7244 12.269 47.6243 12.3204 47.5448 12.3968L43.0648 16.9536C42.9452 17.0578 42.8716 17.205 42.86 17.3632V20.9024C42.8592 20.9741 42.8726 21.0452 42.8997 21.1116C42.9267 21.178 42.9668 21.2383 43.0174 21.289C43.0681 21.3397 43.1284 21.3797 43.1948 21.4067C43.2612 21.4338 43.3323 21.4472 43.404 21.4464H47.0072C47.148 21.4464 47.2824 21.4464 47.3464 21.3056L47.3592 21.2608ZM41.2408 32.0128C41.2433 33.8427 40.703 35.6322 39.688 37.1549C38.6731 38.6775 37.2293 39.8648 35.5393 40.5666C33.8493 41.2683 31.9891 41.4529 30.1941 41.097C28.3992 40.7411 26.7501 39.8607 25.4558 38.5672C24.1614 37.2737 23.2798 35.6253 22.9227 33.8306C22.5655 32.0359 22.7488 30.1755 23.4494 28.4851C24.15 26.7946 25.3363 25.3499 26.8582 24.3339C28.3802 23.318 30.1693 22.7763 31.9992 22.7776C32.2742 22.7987 32.5311 22.9228 32.7185 23.1251C32.9059 23.3274 33.01 23.593 33.01 23.8688C33.01 24.1446 32.9059 24.4102 32.7185 24.6125C32.5311 24.8148 32.2742 24.9389 31.9992 24.96C30.1321 24.96 28.3414 25.7017 27.0212 27.022C25.7009 28.3422 24.9592 30.1329 24.9592 32C24.9592 33.8671 25.7009 35.6578 27.0212 36.978C28.3414 38.2983 30.1321 39.04 31.9992 39.04C36.0824 39.04 38.8024 35.9808 39.0008 32C38.9944 31.8456 39.0199 31.6915 39.0756 31.5474C39.1313 31.4032 39.2161 31.2721 39.3247 31.1621C39.4332 31.0521 39.5633 30.9657 39.7067 30.9081C39.8501 30.8505 40.0039 30.8231 40.1583 30.8275C40.3128 30.8319 40.4647 30.868 40.6046 30.9337C40.7445 30.9993 40.8695 31.093 40.9716 31.209C41.0737 31.325 41.1509 31.4607 41.1983 31.6078C41.2457 31.7549 41.2624 31.9102 41.2472 32.064L41.2408 32.0128Z" stroke="#3084B6" stroke-width="2" mask="url(#path-5-outside-1_744_1300)"/>
<defs>
<linearGradient id="paint0_linear_744_1300" x1="26.4" y1="51.6338" x2="59.2" y2="1.23381" gradientUnits="userSpaceOnUse">
<stop offset="0.257999" stop-color="#FBFFE4"/>
<stop offset="1" stop-color="#CFE44A"/>
</linearGradient>
</defs>
</svg>
