<svg width="83" height="64" viewBox="0 0 83 64" fill="none" xmlns="http://www.w3.org/2000/svg">
<path d="M19.2203 32.9983C21.1086 39.4517 26.5514 52.616 35.7485 51.4344C44.973 50.2492 41.3707 38.3543 49.815 36.724C53.5323 36.0063 56.052 42.4399 59.7776 42.2398C64.5759 41.982 67.0181 37.2323 68.359 33.2393C71.2021 24.7729 66.9444 10.4164 56.9795 7.92995C48.2835 5.7602 47.2664 16.385 39.7052 13.2989C35.4553 11.5643 35.8799 6.38444 30.7039 5.33924C15.0453 2.17733 16.7078 24.4111 19.2203 32.9983Z" fill="url(#paint0_linear_744_1288)"/>
<path d="M59.7808 43.2119C58.9863 43.2119 58.3398 42.5655 58.3398 41.7709C58.3398 40.9763 58.9863 40.3298 59.7808 40.3298C60.5753 40.3298 61.2218 40.9763 61.2218 41.7709C61.2218 42.5655 60.5753 43.2119 59.7808 43.2119ZM59.7808 41.3382C59.5422 41.3382 59.3481 41.5323 59.3481 41.771C59.3481 42.0097 59.5422 42.2037 59.7808 42.2037C60.0194 42.2037 60.2135 42.0097 60.2135 41.771C60.2135 41.5323 60.0194 41.3382 59.7808 41.3382Z" fill="#25C3C8"/>
<path d="M25.9609 21.7524C25.8272 21.7524 25.699 21.6992 25.6044 21.6047C25.5099 21.5102 25.4568 21.3819 25.4568 21.2482C25.4568 20.9146 25.1854 20.6432 24.8518 20.6432C24.7181 20.6432 24.5899 20.5901 24.4953 20.4956C24.4008 20.401 24.3477 20.2728 24.3477 20.1391C24.3477 20.0054 24.4008 19.8771 24.4953 19.7826C24.5899 19.6881 24.7181 19.6349 24.8518 19.6349C25.1854 19.6349 25.4568 19.3636 25.4568 19.03C25.4568 18.8963 25.5099 18.768 25.6044 18.6735C25.699 18.5789 25.8272 18.5258 25.9609 18.5258C26.0946 18.5258 26.2229 18.5789 26.3174 18.6735C26.412 18.768 26.4651 18.8963 26.4651 19.03C26.4651 19.3636 26.7364 19.6349 27.0701 19.6349C27.2038 19.6349 27.332 19.6881 27.4265 19.7826C27.5211 19.8771 27.5742 20.0054 27.5742 20.1391C27.5742 20.2728 27.5211 20.401 27.4265 20.4956C27.332 20.5901 27.2038 20.6432 27.0701 20.6432C26.7364 20.6432 26.4651 20.9146 26.4651 21.2482C26.4651 21.3819 26.412 21.5102 26.3174 21.6047C26.2229 21.6992 26.0946 21.7524 25.9609 21.7524ZM61.2243 47.7748C61.0906 47.7748 60.9624 47.7217 60.8678 47.6272C60.7733 47.5326 60.7202 47.4044 60.7202 47.2707C60.7202 46.937 60.4488 46.6657 60.1152 46.6657C59.9815 46.6657 59.8532 46.6126 59.7587 46.518C59.6642 46.4235 59.611 46.2953 59.611 46.1616C59.611 46.0279 59.6642 45.8996 59.7587 45.8051C59.8532 45.7105 59.9815 45.6574 60.1152 45.6574C60.4488 45.6574 60.7202 45.3861 60.7202 45.0524C60.7202 44.9187 60.7733 44.7905 60.8678 44.6959C60.9624 44.6014 61.0906 44.5483 61.2243 44.5483C61.358 44.5483 61.4863 44.6014 61.5808 44.6959C61.6753 44.7905 61.7285 44.9187 61.7285 45.0524C61.7285 45.3861 61.9998 45.6574 62.3334 45.6574C62.4671 45.6574 62.5954 45.7105 62.6899 45.8051C62.7845 45.8996 62.8376 46.0279 62.8376 46.1616C62.8376 46.2953 62.7845 46.4235 62.6899 46.518C62.5954 46.6126 62.4671 46.6657 62.3334 46.6657C61.9998 46.6657 61.7285 46.937 61.7285 47.2707C61.7285 47.4044 61.6753 47.5326 61.5808 47.6272C61.4863 47.7217 61.358 47.7748 61.2243 47.7748Z" fill="#CFE44A"/>
<path d="M79.1926 36.9593C79.1382 36.8371 79.1345 36.6984 79.1824 36.5735C79.2303 36.4487 79.3258 36.348 79.448 36.2936C79.7528 36.1578 79.8902 35.7995 79.7544 35.4948C79.7 35.3726 79.6963 35.2339 79.7442 35.109C79.7921 34.9842 79.8876 34.8835 80.0098 34.8291C80.1319 34.7747 80.2707 34.771 80.3955 34.8189C80.5203 34.8668 80.621 34.9623 80.6754 35.0845C80.8112 35.3892 81.1695 35.5267 81.4743 35.3909C81.5964 35.3365 81.7351 35.3328 81.86 35.3807C81.9848 35.4286 82.0855 35.5241 82.1399 35.6462C82.1943 35.7684 82.198 35.9071 82.1501 36.032C82.1022 36.1568 82.0067 36.2575 81.8846 36.3119C81.5798 36.4477 81.4424 36.806 81.5781 37.1107C81.6325 37.2329 81.6362 37.3716 81.5883 37.4965C81.5404 37.6213 81.4449 37.722 81.3228 37.7764C81.2006 37.8308 81.0619 37.8345 80.9371 37.7866C80.8122 37.7387 80.7115 37.6432 80.6571 37.521C80.5213 37.2163 80.1631 37.0788 79.8583 37.2146C79.7362 37.269 79.5974 37.2727 79.4726 37.2248C79.3477 37.1769 79.247 37.0814 79.1926 36.9593ZM56.3167 6.1957C56.2622 6.07357 56.2586 5.93482 56.3065 5.80998C56.3544 5.68514 56.4499 5.58444 56.572 5.53003C56.8768 5.39426 57.0142 5.03599 56.8785 4.73122C56.824 4.60909 56.8204 4.47034 56.8683 4.3455C56.9162 4.22066 57.0117 4.11996 57.1338 4.06555C57.2559 4.01114 57.3947 4.00748 57.5195 4.05537C57.6444 4.10326 57.7451 4.19877 57.7995 4.32091C57.9353 4.62568 58.2935 4.76311 58.5983 4.62734C58.7204 4.57293 58.8592 4.56927 58.984 4.61716C59.1089 4.66505 59.2096 4.76056 59.264 4.8827C59.3184 5.00484 59.322 5.14359 59.2741 5.26842C59.2263 5.39326 59.1307 5.49396 59.0086 5.54837C58.7038 5.68415 58.5664 6.04241 58.7022 6.34718C58.7566 6.46932 58.7602 6.60807 58.7124 6.73291C58.6645 6.85774 58.569 6.95844 58.4468 7.01285C58.3247 7.06727 58.1859 7.07093 58.0611 7.02304C57.9363 6.97515 57.8356 6.87963 57.7811 6.75749C57.6454 6.45273 57.2871 6.31529 56.9823 6.45106C56.8602 6.50547 56.7214 6.50914 56.5966 6.46125C56.4718 6.41336 56.3711 6.31784 56.3167 6.1957Z" fill="#3084B6"/>
<path d="M53.34 61.86H10.66C7.83442 61.8547 5.12607 60.7299 3.12808 58.7319C1.13009 56.7339 0.00528642 54.0256 0 51.2L0 25.62C-4.96052e-06 22.791 1.12246 20.0775 3.12103 18.0752C5.11959 16.0729 7.83095 14.9453 10.66 14.94H53.34C56.169 14.9453 58.8804 16.0729 60.879 18.0752C62.8775 20.0775 64 22.791 64 25.62V51.2C63.9947 54.0256 62.8699 56.7339 60.8719 58.7319C58.8739 60.7299 56.1656 61.8547 53.34 61.86ZM10.66 19.22C8.96261 19.22 7.33475 19.8943 6.13452 21.0945C4.93428 22.2948 4.26 23.9226 4.26 25.62V51.2C4.26 52.8974 4.93428 54.5253 6.13452 55.7255C7.33475 56.9257 8.96261 57.6 10.66 57.6H53.34C55.0374 57.6 56.6652 56.9257 57.8655 55.7255C59.0657 54.5253 59.74 52.8974 59.74 51.2V25.62C59.74 23.9226 59.0657 22.2948 57.8655 21.0945C56.6652 19.8943 55.0374 19.22 53.34 19.22H10.66ZM42.66 12.8C42.379 12.8 42.1007 12.7447 41.8411 12.6371C41.5814 12.5296 41.3455 12.3719 41.1468 12.1732C40.9481 11.9745 40.7904 11.7386 40.6829 11.479C40.5754 11.2193 40.52 10.941 40.52 10.66V8.54001C40.52 7.9759 40.2973 7.43459 39.9003 7.03383C39.5033 6.63308 38.9641 6.40529 38.4 6.40001H25.6C25.319 6.40001 25.0407 6.45537 24.7811 6.56291C24.5214 6.67046 24.2855 6.82809 24.0868 7.02681C23.8881 7.22552 23.7304 7.46144 23.6229 7.72107C23.5154 7.98071 23.46 8.25899 23.46 8.54001V10.66C23.4888 10.9571 23.4552 11.2569 23.3613 11.5402C23.2673 11.8235 23.1152 12.084 22.9146 12.3049C22.714 12.5259 22.4694 12.7025 22.1965 12.8234C21.9236 12.9442 21.6285 13.0067 21.33 13.0067C21.0315 13.0067 20.7364 12.9442 20.4635 12.8234C20.1906 12.7025 19.946 12.5259 19.7454 12.3049C19.5448 12.084 19.3927 11.8235 19.2987 11.5402C19.2048 11.2569 19.1712 10.9571 19.2 10.66V8.54001C19.2 6.84263 19.8743 5.21476 21.0745 4.01453C22.2747 2.8143 23.9026 2.14001 25.6 2.14001H38.4C40.0974 2.14001 41.7253 2.8143 42.9255 4.01453C44.1257 5.21476 44.8 6.84263 44.8 8.54001V10.66C44.8 10.941 44.7446 11.2193 44.6371 11.479C44.5296 11.7386 44.3719 11.9745 44.1732 12.1732C43.9745 12.3719 43.7386 12.5296 43.4789 12.6371C43.2193 12.7447 42.941 12.8 42.66 12.8Z" fill="#3084B6"/>
<path d="M32.0005 39.32C29.9306 39.3004 27.8874 38.8509 26.0005 38L12.0005 31.82C11.4701 31.5893 11.053 31.1573 10.8411 30.619C10.6292 30.0808 10.6397 29.4804 10.8705 28.95C11.1012 28.4196 11.5332 28.0025 12.0715 27.7906C12.6097 27.5787 13.2101 27.5893 13.7405 27.82L27.7405 34.04C29.1039 34.6447 30.5789 34.9571 32.0705 34.9571C33.562 34.9571 35.037 34.6447 36.4005 34.04L50.4005 27.82C50.6631 27.7058 50.9457 27.6444 51.2321 27.6393C51.5184 27.6343 51.803 27.6857 52.0695 27.7906C52.336 27.8955 52.5792 28.0519 52.7853 28.2509C52.9914 28.4498 53.1562 28.6874 53.2705 28.95C53.3847 29.2127 53.4461 29.4952 53.4512 29.7816C53.4562 30.068 53.4048 30.3525 53.2999 30.619C53.195 30.8855 53.0386 31.1288 52.8396 31.3348C52.6407 31.5409 52.4031 31.7058 52.1405 31.82L38.0005 38C36.1135 38.8509 34.0703 39.3004 32.0005 39.32Z" fill="#3084B6"/>
<defs>
<linearGradient id="paint0_linear_744_1288" x1="23.9996" y1="44.6338" x2="56.7996" y2="-5.76619" gradientUnits="userSpaceOnUse">
<stop offset="0.257999" stop-color="#FBFFE4"/>
<stop offset="1" stop-color="#CFE44A"/>
</linearGradient>
</defs>
</svg>
