<svg width="1194" height="514" viewBox="0 0 1194 514" fill="none" xmlns="http://www.w3.org/2000/svg">
<path fill-rule="evenodd" clip-rule="evenodd" d="M30.4516 4.45594C32.9054 4.85969 35.2369 5.51317 37.4586 6.39447C38.4853 6.80177 39.6478 6.29961 40.0551 5.27288C40.4624 4.24614 39.9603 3.08363 38.9335 2.67634C36.4476 1.6902 33.8395 0.959587 31.101 0.509014C30.0111 0.329682 28.9822 1.06786 28.8029 2.15777C28.6235 3.24768 29.3617 4.27661 30.4516 4.45594ZM23.1562 3.99896C24.2602 3.96294 25.1259 3.03879 25.0899 1.93481C25.0539 0.830829 24.1298 -0.0349305 23.0258 0.00108409C20.4615 0.0847356 17.8037 0.390867 15.0469 0.930725C13.963 1.14301 13.2563 2.19383 13.4686 3.27781C13.6809 4.36179 14.7317 5.06844 15.8157 4.85616C18.3761 4.35474 20.8203 4.07516 23.1562 3.99896ZM46.1323 6.44202C45.2098 5.83452 43.9695 6.08988 43.362 7.01238C42.7545 7.93488 43.0099 9.1752 43.9324 9.7827C45.9418 11.106 47.8621 12.6402 49.7021 14.3687C50.5071 15.1249 51.7729 15.0854 52.5291 14.2803C53.2854 13.4752 53.2458 12.2095 52.4407 11.4532C50.4495 9.58275 48.3505 7.90277 46.1323 6.44202ZM8.6025 6.76649C9.65141 6.42026 10.221 5.28928 9.8748 4.24038C9.52857 3.19147 8.39759 2.62185 7.34869 2.96808C6.08407 3.38551 4.80007 3.84813 3.49622 4.35687C2.4672 4.75836 1.9585 5.91802 2.35999 6.94704C2.76149 7.97606 3.92115 8.48476 4.95017 8.08326C6.19063 7.59927 7.40788 7.16082 8.6025 6.76649ZM568.105 120.186C569.199 120.335 570.208 119.569 570.357 118.475C570.506 117.38 569.74 116.372 568.646 116.222C567.299 116.038 565.97 115.871 564.658 115.718C563.56 115.591 562.568 116.377 562.441 117.475C562.313 118.572 563.1 119.564 564.197 119.692C565.482 119.841 566.784 120.005 568.105 120.186ZM556.527 118.967C557.629 119.047 558.587 118.218 558.666 117.117C558.746 116.015 557.917 115.057 556.815 114.978C554.112 114.783 551.486 114.658 548.934 114.599C547.83 114.574 546.914 115.448 546.888 116.553C546.863 117.657 547.738 118.573 548.842 118.598C551.327 118.656 553.888 118.777 556.527 118.967ZM57.8716 17.322C57.1749 16.4648 55.9152 16.3348 55.0581 17.0314C54.2009 17.7281 54.0709 18.9878 54.7676 19.8449C56.3054 21.7369 57.7814 23.7727 59.202 25.9377C59.808 26.8612 61.0479 27.1186 61.9714 26.5127C62.8949 25.9067 63.1523 24.6668 62.5463 23.7433C61.0599 21.4781 59.5045 19.331 57.8716 17.322ZM541.152 118.629C542.256 118.593 543.122 117.67 543.087 116.566C543.051 115.462 542.128 114.595 541.024 114.631C538.297 114.718 535.66 114.885 533.108 115.125C532.009 115.228 531.201 116.203 531.304 117.303C531.408 118.403 532.383 119.211 533.483 119.107C535.951 118.875 538.506 118.713 541.152 118.629ZM525.873 120.082C526.963 119.903 527.703 118.875 527.524 117.785C527.346 116.695 526.318 115.956 525.228 116.134C522.531 116.575 519.936 117.102 517.435 117.705C516.362 117.964 515.701 119.044 515.96 120.118C516.219 121.192 517.299 121.852 518.373 121.594C520.776 121.014 523.274 120.507 525.873 120.082ZM66.6091 30.5136C66.0759 29.5463 64.8595 29.1943 63.8921 29.7275C62.9248 30.2607 62.5728 31.4771 63.106 32.4445C64.3043 34.6186 65.4604 36.8843 66.5797 39.23C67.0554 40.2269 68.2492 40.6494 69.2461 40.1737C70.243 39.698 70.6655 38.5042 70.1898 37.5073C69.0408 35.0995 67.8493 32.7636 66.6091 30.5136ZM511.036 123.67C512.086 123.328 512.659 122.198 512.316 121.148C511.973 120.098 510.844 119.525 509.794 119.868C507.198 120.716 504.713 121.647 502.326 122.649C501.307 123.076 500.828 124.248 501.255 125.267C501.682 126.285 502.854 126.764 503.873 126.337C506.162 125.377 508.546 124.484 511.036 123.67ZM496.945 129.578C497.926 129.071 498.31 127.864 497.803 126.883C497.296 125.902 496.089 125.518 495.108 126.025C492.704 127.268 490.405 128.578 488.198 129.935C487.257 130.514 486.963 131.746 487.542 132.686C488.121 133.627 489.352 133.921 490.293 133.342C492.423 132.033 494.635 130.773 496.945 129.578ZM73.3947 44.6486C72.9641 43.6314 71.7905 43.1558 70.7733 43.5864C69.7561 44.017 69.2806 45.1906 69.7112 46.2078C70.6921 48.5252 71.6447 50.9 72.5735 53.3225C72.9689 54.3539 74.1256 54.8694 75.1569 54.474C76.1883 54.0786 76.7038 52.9219 76.3084 51.8906C75.3653 49.4306 74.3956 47.013 73.3947 44.6486ZM276.19 93.7169C277.425 93.853 278.671 94.0446 279.931 94.2946C281.185 94.5435 282.419 94.8145 283.636 95.1067C284.71 95.3647 285.79 94.7032 286.048 93.6292C286.306 92.5552 285.644 91.4754 284.57 91.2174C283.302 90.9128 282.016 90.6304 280.71 90.3711C279.338 90.0989 277.978 89.8898 276.628 89.741C275.53 89.62 274.542 90.4119 274.421 91.5099C274.3 92.6078 275.092 93.5959 276.19 93.7169ZM292.141 93.3612C291.092 93.0177 289.962 93.5903 289.619 94.6402C289.275 95.69 289.848 96.8194 290.898 97.1629C293.327 97.9577 295.684 98.8387 297.976 99.7965C298.995 100.222 300.167 99.7412 300.593 98.722C301.018 97.7028 300.537 96.5314 299.518 96.1056C297.131 95.1082 294.675 94.19 292.141 93.3612ZM268.687 93.5569C269.789 93.4825 270.623 92.5289 270.548 91.4268C270.474 90.3248 269.52 89.4916 268.418 89.566C265.666 89.7517 262.966 90.179 260.313 90.818C259.239 91.0766 258.578 92.1568 258.837 93.2307C259.095 94.3045 260.176 94.9654 261.25 94.7067C263.695 94.1177 266.172 93.7266 268.687 93.5569ZM483.883 137.582C484.785 136.944 485 135.696 484.362 134.794C483.725 133.892 482.477 133.677 481.575 134.315C479.383 135.863 477.278 137.445 475.243 139.036C474.372 139.716 474.219 140.973 474.899 141.843C475.579 142.714 476.836 142.868 477.706 142.187C479.701 140.628 481.753 139.086 483.883 137.582ZM306.652 99.4114C305.668 98.91 304.464 99.3014 303.963 100.286C303.461 101.27 303.853 102.474 304.837 102.976C307.101 104.129 309.305 105.356 311.46 106.646C312.408 107.213 313.636 106.905 314.203 105.957C314.771 105.009 314.462 103.781 313.515 103.214C311.287 101.88 309.003 100.609 306.652 99.4114ZM78.998 59.2028C78.6296 58.1615 77.4868 57.616 76.4454 57.9843C75.4041 58.3527 74.8586 59.4955 75.227 60.5369C76.0755 62.9354 76.9057 65.3674 77.7217 67.8243C78.0699 68.8726 79.2019 69.4402 80.2502 69.092C81.2985 68.7438 81.866 67.6118 81.5179 66.5635C80.695 64.0859 79.8563 61.6292 78.998 59.2028ZM254.043 97.0279C255.068 96.6161 255.565 95.4514 255.153 94.4265C254.741 93.4015 253.577 92.9044 252.552 93.3162C250.067 94.3146 247.623 95.4835 245.218 96.7949C244.248 97.3236 243.89 98.5384 244.419 99.5082C244.948 100.478 246.163 100.836 247.132 100.307C249.416 99.0619 251.718 97.9619 254.043 97.0279ZM320.111 107.439C319.198 106.817 317.954 107.052 317.332 107.965C316.709 108.878 316.945 110.122 317.857 110.744C319.957 112.176 322.015 113.662 324.041 115.191C324.923 115.856 326.177 115.681 326.843 114.799C327.508 113.918 327.333 112.664 326.451 111.998C324.38 110.435 322.27 108.911 320.111 107.439ZM471.684 147.056C472.534 146.351 472.651 145.09 471.946 144.24C471.241 143.39 469.98 143.272 469.13 143.978C467.726 145.143 466.342 146.306 464.98 147.45C464.36 147.971 463.744 148.489 463.133 149.001C462.287 149.71 462.175 150.972 462.885 151.818C463.594 152.665 464.856 152.776 465.702 152.066C466.322 151.547 466.941 151.027 467.563 150.504C468.921 149.363 470.289 148.213 471.684 147.056ZM332.575 116.807C331.718 116.11 330.459 116.24 329.762 117.097C329.065 117.954 329.194 119.213 330.051 119.91C332.031 121.521 333.988 123.163 335.934 124.826C336.774 125.543 338.036 125.444 338.754 124.604C339.471 123.765 339.372 122.502 338.533 121.785C336.569 120.106 334.586 118.443 332.575 116.807ZM240.568 104.296C241.487 103.683 241.734 102.441 241.121 101.523C240.507 100.604 239.265 100.357 238.347 100.97C236.152 102.436 233.984 104.005 231.839 105.657C230.964 106.331 230.8 107.587 231.474 108.462C232.148 109.337 233.404 109.5 234.279 108.827C236.363 107.222 238.458 105.706 240.568 104.296ZM83.9136 73.9556C83.5797 72.9027 82.4555 72.3198 81.4026 72.6536C80.3497 72.9875 79.7668 74.1117 80.1007 75.1646C80.8765 77.6114 81.6422 80.0727 82.4017 82.5407C82.7266 83.5964 83.8458 84.1889 84.9015 83.864C85.9572 83.5391 86.5496 82.4199 86.2247 81.3642C85.4629 78.8887 84.6937 76.4161 83.9136 73.9556ZM344.38 126.854C343.549 126.126 342.286 126.21 341.558 127.041C340.83 127.872 340.914 129.135 341.745 129.863C342.711 130.709 343.676 131.557 344.642 132.406C345.608 133.254 346.575 134.104 347.543 134.952C348.374 135.68 349.638 135.596 350.365 134.765C351.093 133.935 351.01 132.671 350.179 131.943C349.22 131.104 348.263 130.262 347.304 129.42L347.282 129.401L347.258 129.379C346.3 128.538 345.341 127.695 344.38 126.854ZM459.634 157.053C460.498 156.365 460.641 155.106 459.952 154.243C459.264 153.379 458.005 153.236 457.142 153.925C455.093 155.557 453.059 157.107 451.009 158.545C450.105 159.18 449.886 160.427 450.52 161.331C451.155 162.235 452.402 162.454 453.306 161.82C455.442 160.321 457.543 158.72 459.634 157.053ZM228.244 113.726C229.085 113.01 229.187 111.748 228.471 110.907C227.755 110.065 226.493 109.964 225.652 110.679C223.652 112.38 221.667 114.139 219.694 115.936C218.877 116.68 218.818 117.945 219.562 118.761C220.306 119.578 221.571 119.637 222.388 118.893C224.334 117.12 226.285 115.393 228.244 113.726ZM355.989 136.981C355.15 136.263 353.887 136.362 353.17 137.202C352.452 138.042 352.551 139.304 353.391 140.022C355.355 141.7 357.337 143.364 359.348 144.999C360.205 145.696 361.465 145.567 362.162 144.71C362.859 143.853 362.729 142.593 361.872 141.896C359.892 140.286 357.935 138.644 355.989 136.981ZM88.4874 88.7759C88.1664 87.719 87.0495 87.1224 85.9926 87.4434C84.9356 87.7643 84.339 88.8813 84.66 89.9382C84.7991 90.3961 84.938 90.854 85.077 91.3118L85.3083 92.0739C85.8425 93.8341 86.3761 95.5926 86.91 97.3442C87.232 98.4008 88.3496 98.9962 89.4062 98.6742C90.4628 98.3521 91.0582 97.2346 90.7362 96.178C90.2028 94.428 89.67 92.6723 89.1358 90.912L88.4874 88.7759ZM367.882 146.615C367 145.95 365.746 146.125 365.081 147.007C364.416 147.889 364.591 149.143 365.473 149.808C367.544 151.371 369.654 152.895 371.813 154.367C372.725 154.989 373.97 154.754 374.592 153.841C375.214 152.929 374.979 151.684 374.066 151.062C371.966 149.631 369.909 148.145 367.882 146.615ZM446.538 166.098C447.503 165.56 447.85 164.342 447.312 163.377C446.774 162.412 445.556 162.066 444.591 162.603C442.383 163.834 440.128 164.907 437.794 165.793C436.761 166.184 436.241 167.339 436.633 168.372C437.024 169.405 438.179 169.924 439.212 169.533C441.751 168.57 444.183 167.41 446.538 166.098ZM216.653 124.241C217.453 123.48 217.485 122.214 216.724 121.414C215.963 120.613 214.697 120.581 213.896 121.342C211.994 123.151 210.098 124.982 208.207 126.817C207.415 127.587 207.396 128.853 208.165 129.646C208.935 130.438 210.201 130.457 210.993 129.688C212.88 127.856 214.765 126.036 216.653 124.241ZM380.463 155.161C379.516 154.593 378.287 154.902 377.72 155.85C377.153 156.797 377.461 158.025 378.409 158.593C380.636 159.926 382.921 161.198 385.271 162.395C386.255 162.896 387.46 162.505 387.961 161.521C388.462 160.537 388.071 159.332 387.087 158.831C384.823 157.678 382.618 156.451 380.463 155.161ZM431.385 171.759C432.47 171.551 433.18 170.503 432.972 169.418C432.764 168.333 431.716 167.622 430.632 167.83C428.283 168.281 425.827 168.543 423.236 168.587C422.131 168.606 421.251 169.517 421.27 170.621C421.289 171.726 422.2 172.606 423.304 172.587C426.125 172.538 428.81 172.252 431.385 171.759ZM393.947 162.01C392.928 161.584 391.757 162.065 391.331 163.084C390.905 164.104 391.386 165.275 392.405 165.701C394.793 166.698 397.249 167.616 399.782 168.445C400.832 168.789 401.961 168.216 402.305 167.166C402.648 166.116 402.076 164.987 401.026 164.644C398.597 163.849 396.24 162.968 393.947 162.01ZM93.006 103.558C92.6777 102.503 91.5566 101.914 90.5019 102.243C89.4473 102.571 88.8585 103.692 89.1868 104.747C89.9619 107.236 90.7425 109.706 91.5326 112.146C91.8729 113.197 93.0006 113.773 94.0515 113.433C95.1023 113.093 95.6784 111.965 95.3381 110.914C94.5537 108.492 93.7777 106.037 93.006 103.558ZM415.225 172.102C416.32 172.248 417.325 171.478 417.471 170.383C417.617 169.288 416.847 168.282 415.752 168.137C414.53 167.974 413.278 167.767 411.993 167.512C410.739 167.263 409.504 166.992 408.288 166.7C407.214 166.442 406.134 167.103 405.876 168.177C405.618 169.251 406.279 170.331 407.353 170.589C408.621 170.894 409.908 171.176 411.214 171.435C412.579 171.706 413.916 171.928 415.225 172.102ZM205.344 135.18C206.137 134.411 206.156 133.145 205.386 132.352C204.617 131.56 203.351 131.541 202.558 132.31C200.672 134.142 198.787 135.962 196.899 137.757C196.099 138.518 196.067 139.784 196.828 140.584C197.589 141.385 198.855 141.417 199.655 140.655C201.558 138.847 203.454 137.016 205.344 135.18ZM97.7737 118.228C97.4148 117.183 96.277 116.627 95.2324 116.986C94.1877 117.345 93.6318 118.483 93.9907 119.528C94.8471 122.021 95.7192 124.471 96.6116 126.868C96.997 127.903 98.1486 128.43 99.1838 128.045C100.219 127.659 100.746 126.508 100.36 125.472C99.4814 123.112 98.6208 120.694 97.7737 118.228ZM193.858 146.062C194.674 145.318 194.733 144.053 193.99 143.236C193.246 142.42 191.981 142.361 191.164 143.105C189.218 144.877 187.267 146.605 185.308 148.272C184.467 148.987 184.365 150.25 185.081 151.091C185.796 151.932 187.059 152.034 187.9 151.318C189.9 149.617 191.885 147.859 193.858 146.062ZM103.157 132.613C102.735 131.593 101.565 131.107 100.544 131.529C99.5236 131.951 99.0382 133.121 99.4603 134.142C100.481 136.61 101.532 139.004 102.621 141.308C103.093 142.307 104.285 142.734 105.284 142.262C106.282 141.79 106.709 140.598 106.238 139.599C105.181 137.362 104.156 135.029 103.157 132.613ZM181.713 156.341C182.588 155.667 182.751 154.411 182.078 153.536C181.404 152.661 180.148 152.497 179.273 153.171C177.188 154.776 175.093 156.292 172.983 157.701C172.065 158.315 171.818 159.557 172.431 160.475C173.045 161.394 174.287 161.641 175.205 161.028C177.399 159.562 179.567 157.992 181.713 156.341ZM109.697 146.347C109.158 145.383 107.939 145.039 106.975 145.579C106.011 146.118 105.667 147.337 106.207 148.301C107.544 150.69 108.941 152.949 110.408 155.054C111.039 155.96 112.286 156.183 113.192 155.551C114.098 154.92 114.321 153.673 113.69 152.767C112.308 150.785 110.98 148.639 109.697 146.347ZM168.334 165.203C169.304 164.674 169.661 163.459 169.133 162.49C168.604 161.52 167.389 161.162 166.419 161.691C164.136 162.936 161.834 164.036 159.509 164.97C158.484 165.382 157.987 166.546 158.399 167.571C158.81 168.596 159.975 169.093 161 168.682C163.485 167.683 165.928 166.514 168.334 165.203ZM118.357 158.593C117.603 157.786 116.337 157.743 115.53 158.497C114.724 159.252 114.681 160.517 115.435 161.324C117.341 163.363 119.365 165.165 121.524 166.688C122.427 167.324 123.675 167.109 124.311 166.206C124.947 165.303 124.732 164.055 123.829 163.419C121.922 162.075 120.102 160.46 118.357 158.593ZM153.239 171.18C154.313 170.921 154.974 169.841 154.715 168.767C154.456 167.693 153.376 167.032 152.302 167.291C149.856 167.88 147.379 168.271 144.864 168.441C143.762 168.515 142.929 169.469 143.003 170.571C143.078 171.673 144.031 172.506 145.134 172.432C147.886 172.246 150.586 171.819 153.239 171.18ZM130.167 166.748C129.127 166.376 127.982 166.917 127.61 167.957C127.237 168.997 127.779 170.142 128.819 170.514C130.121 170.98 131.461 171.353 132.842 171.627C134.213 171.899 135.574 172.108 136.924 172.257C138.022 172.378 139.01 171.586 139.131 170.488C139.252 169.39 138.46 168.402 137.362 168.281C136.127 168.145 134.88 167.953 133.621 167.703C132.435 167.468 131.285 167.148 130.167 166.748ZM1117.55 4.45597C1115.09 4.85971 1112.76 5.51319 1110.54 6.3945C1109.51 6.80179 1108.35 6.29963 1107.95 5.2729C1107.54 4.24616 1108.04 3.08365 1109.07 2.67636C1111.55 1.69022 1114.16 0.959608 1116.9 0.509036C1117.99 0.329704 1119.02 1.06788 1119.2 2.15779C1119.38 3.24771 1118.64 4.27663 1117.55 4.45597ZM1124.84 3.99898C1123.74 3.96296 1122.87 3.03881 1122.91 1.93483C1122.95 0.830851 1123.87 -0.0349086 1124.97 0.00110603C1127.54 0.0847576 1130.2 0.390889 1132.95 0.930747C1134.04 1.14303 1134.74 2.19385 1134.53 3.27783C1134.32 4.36181 1133.27 5.06846 1132.18 4.85618C1129.62 4.35476 1127.18 4.07518 1124.84 3.99898ZM1101.87 6.44204C1102.79 5.83454 1104.03 6.0899 1104.64 7.0124C1105.25 7.93491 1104.99 9.17522 1104.07 9.78273C1102.06 11.106 1100.14 12.6403 1098.3 14.3687C1097.49 15.1249 1096.23 15.0854 1095.47 14.2803C1094.71 13.4752 1094.75 12.2095 1095.56 11.4533C1097.55 9.58277 1099.65 7.90279 1101.87 6.44204ZM1139.4 6.76651C1138.35 6.42028 1137.78 5.2893 1138.13 4.2404C1138.47 3.1915 1139.6 2.62187 1140.65 2.9681C1141.92 3.38554 1143.2 3.84816 1144.5 4.35689C1145.53 4.75838 1146.04 5.91805 1145.64 6.94706C1145.24 7.97608 1144.08 8.48478 1143.05 8.08329C1141.81 7.59929 1140.59 7.16084 1139.4 6.76651ZM579.895 120.186C578.801 120.335 577.793 119.569 577.643 118.475C577.494 117.38 578.26 116.372 579.354 116.222C580.701 116.038 582.03 115.871 583.342 115.718C584.44 115.591 585.432 116.377 585.56 117.475C585.687 118.572 584.901 119.565 583.803 119.692C582.518 119.841 581.216 120.005 579.895 120.186ZM591.473 118.968C590.371 119.047 589.413 118.218 589.334 117.117C589.255 116.015 590.083 115.057 591.185 114.978C593.888 114.783 596.514 114.658 599.066 114.599C600.17 114.574 601.086 115.448 601.112 116.553C601.137 117.657 600.263 118.573 599.158 118.598C596.673 118.656 594.112 118.777 591.473 118.968ZM1090.13 17.322C1090.83 16.4648 1092.08 16.3348 1092.94 17.0315C1093.8 17.7282 1093.93 18.9878 1093.23 19.8449C1091.69 21.7369 1090.22 23.7727 1088.8 25.9378C1088.19 26.8613 1086.95 27.1187 1086.03 26.5127C1085.11 25.9067 1084.85 24.6668 1085.45 23.7433C1086.94 21.4781 1088.5 19.3311 1090.13 17.322ZM606.848 118.629C605.744 118.593 604.878 117.67 604.913 116.566C604.949 115.462 605.872 114.595 606.976 114.631C609.703 114.718 612.34 114.885 614.892 115.125C615.992 115.228 616.799 116.203 616.696 117.303C616.592 118.403 615.617 119.211 614.517 119.107C612.049 118.875 609.495 118.713 606.848 118.629ZM622.127 120.082C621.037 119.903 620.298 118.875 620.476 117.785C620.654 116.695 621.682 115.956 622.773 116.134C625.469 116.575 628.064 117.102 630.565 117.705C631.639 117.964 632.299 119.044 632.04 120.118C631.781 121.192 630.701 121.852 629.627 121.594C627.224 121.014 624.726 120.507 622.127 120.082ZM1081.39 30.5137C1081.92 29.5463 1083.14 29.1943 1084.11 29.7275C1085.08 30.2607 1085.43 31.4771 1084.89 32.4445C1083.7 34.6186 1082.54 36.8843 1081.42 39.23C1080.94 40.2269 1079.75 40.6494 1078.75 40.1737C1077.76 39.698 1077.33 38.5042 1077.81 37.5074C1078.96 35.0995 1080.15 32.7636 1081.39 30.5137ZM636.964 123.67C635.914 123.328 635.341 122.198 635.684 121.148C636.027 120.098 637.156 119.525 638.206 119.868C640.802 120.716 643.288 121.647 645.674 122.649C646.693 123.076 647.172 124.248 646.745 125.267C646.318 126.285 645.146 126.765 644.127 126.337C641.838 125.377 639.454 124.484 636.964 123.67ZM651.055 129.578C650.074 129.071 649.69 127.864 650.197 126.883C650.705 125.902 651.911 125.518 652.892 126.025C655.297 127.268 657.595 128.578 659.802 129.935C660.743 130.514 661.037 131.746 660.458 132.686C659.88 133.627 658.648 133.921 657.707 133.343C655.577 132.033 653.365 130.773 651.055 129.578ZM1074.61 44.6486C1075.04 43.6314 1076.21 43.1558 1077.23 43.5864C1078.24 44.017 1078.72 45.1907 1078.29 46.2078C1077.31 48.5252 1076.36 50.9001 1075.43 53.3225C1075.03 54.3539 1073.87 54.8694 1072.84 54.474C1071.81 54.0786 1071.3 52.9219 1071.69 51.8906C1072.63 49.4307 1073.6 47.013 1074.61 44.6486ZM871.81 93.7169C870.576 93.853 869.329 94.0446 868.069 94.2946C866.815 94.5435 865.581 94.8145 864.364 95.1067C863.29 95.3648 862.211 94.7033 861.953 93.6292C861.695 92.5552 862.356 91.4754 863.43 91.2174C864.698 90.9128 865.984 90.6304 867.29 90.3712C868.662 90.0989 870.022 89.8898 871.372 89.741C872.47 89.62 873.458 90.412 873.579 91.5099C873.7 92.6078 872.908 93.5959 871.81 93.7169ZM855.859 93.3612C856.909 93.0178 858.038 93.5904 858.382 94.6402C858.725 95.69 858.152 96.8195 857.103 97.1629C854.673 97.9578 852.317 98.8388 850.024 99.7965C849.005 100.222 847.833 99.7413 847.408 98.7221C846.982 97.7029 847.463 96.5315 848.482 96.1057C850.87 95.1083 853.326 94.19 855.859 93.3612ZM879.313 93.5569C878.211 93.4826 877.378 92.5289 877.452 91.4268C877.526 90.3248 878.48 89.4917 879.582 89.566C882.334 89.7517 885.035 90.179 887.687 90.818C888.761 91.0766 889.422 92.1569 889.163 93.2307C888.905 94.3046 887.824 94.9654 886.751 94.7068C884.305 94.1177 881.828 93.7266 879.313 93.5569ZM664.117 137.582C663.215 136.944 663 135.696 663.638 134.794C664.275 133.892 665.523 133.677 666.425 134.315C668.617 135.863 670.722 137.445 672.757 139.036C673.628 139.716 673.782 140.973 673.101 141.843C672.421 142.714 671.164 142.868 670.294 142.187C668.299 140.628 666.247 139.086 664.117 137.582ZM841.348 99.4114C842.332 98.91 843.536 99.3015 844.038 100.286C844.539 101.27 844.148 102.474 843.163 102.976C840.899 104.129 838.695 105.356 836.54 106.646C835.592 107.213 834.364 106.905 833.797 105.957C833.229 105.009 833.538 103.781 834.485 103.214C836.713 101.88 838.997 100.609 841.348 99.4114ZM1069 59.2028C1069.37 58.1615 1070.51 57.616 1071.55 57.9844C1072.6 58.3528 1073.14 59.4956 1072.77 60.5369C1071.92 62.9354 1071.09 65.3674 1070.28 67.8244C1069.93 68.8726 1068.8 69.4402 1067.75 69.092C1066.7 68.7438 1066.13 67.6118 1066.48 66.5636C1067.31 64.086 1068.14 61.6292 1069 59.2028ZM893.957 97.0279C892.932 96.6161 892.435 95.4515 892.847 94.4265C893.259 93.4016 894.424 92.9045 895.448 93.3162C897.934 94.3146 900.377 95.4835 902.782 96.7949C903.752 97.3237 904.11 98.5384 903.581 99.5083C903.052 100.478 901.838 100.836 900.868 100.307C898.584 99.0619 896.282 97.9619 893.957 97.0279ZM827.889 107.439C828.802 106.817 830.046 107.053 830.669 107.965C831.291 108.878 831.055 110.122 830.143 110.744C828.043 112.176 825.985 113.662 823.959 115.191C823.077 115.856 821.823 115.681 821.158 114.799C820.492 113.918 820.668 112.664 821.549 111.998C823.62 110.435 825.731 108.911 827.889 107.439ZM676.316 147.056C675.466 146.351 675.349 145.09 676.054 144.24C676.76 143.39 678.02 143.272 678.87 143.978C680.275 145.143 681.658 146.306 683.02 147.45L683.054 147.479C683.663 147.99 684.267 148.498 684.867 149.001C685.714 149.71 685.825 150.972 685.115 151.818C684.406 152.665 683.144 152.776 682.298 152.066C681.678 151.547 681.059 151.027 680.437 150.504L680.431 150.499C679.075 149.36 677.709 148.212 676.316 147.056ZM815.425 116.807C816.282 116.11 817.541 116.24 818.238 117.097C818.935 117.954 818.806 119.213 817.949 119.91C815.969 121.521 814.012 123.163 812.066 124.826C811.226 125.543 809.964 125.444 809.246 124.604C808.529 123.765 808.628 122.502 809.467 121.785C811.431 120.106 813.414 118.443 815.425 116.807ZM907.432 104.297C906.513 103.683 906.266 102.441 906.88 101.523C907.493 100.604 908.735 100.357 909.654 100.97C911.848 102.436 914.016 104.005 916.161 105.657C917.037 106.331 917.2 107.587 916.526 108.462C915.852 109.337 914.596 109.5 913.721 108.827C911.637 107.222 909.542 105.706 907.432 104.297ZM1064.09 73.9556C1064.42 72.9027 1065.54 72.3198 1066.6 72.6536C1067.65 72.9875 1068.23 74.1117 1067.9 75.1646C1067.12 77.6114 1066.36 80.0727 1065.6 82.5407C1065.27 83.5964 1064.15 84.1889 1063.1 83.864C1062.04 83.5391 1061.45 82.4199 1061.78 81.3642C1062.54 78.8887 1063.31 76.4161 1064.09 73.9556ZM803.62 126.854C804.451 126.126 805.714 126.21 806.442 127.041C807.17 127.872 807.086 129.135 806.255 129.863C805.289 130.709 804.325 131.557 803.358 132.406C802.393 133.254 801.426 134.104 800.457 134.952C799.626 135.68 798.362 135.596 797.635 134.765C796.907 133.935 796.991 132.671 797.821 131.943C798.787 131.097 799.752 130.25 800.718 129.401C801.684 128.552 802.651 127.703 803.62 126.854ZM688.366 157.053C687.502 156.365 687.36 155.106 688.048 154.243C688.736 153.379 689.995 153.236 690.859 153.925C692.907 155.557 694.941 157.107 696.991 158.545C697.896 159.18 698.114 160.427 697.48 161.331C696.845 162.235 695.598 162.454 694.694 161.82C692.558 160.321 690.457 158.72 688.366 157.053ZM919.757 113.726C918.915 113.01 918.813 111.748 919.529 110.907C920.245 110.065 921.507 109.964 922.348 110.679C924.348 112.38 926.333 114.139 928.306 115.936C929.123 116.68 929.182 117.945 928.438 118.762C927.694 119.578 926.429 119.637 925.613 118.893C923.666 117.12 921.716 115.393 919.757 113.726ZM792.011 136.981C792.85 136.263 794.113 136.362 794.83 137.202C795.548 138.042 795.449 139.304 794.609 140.022C792.646 141.7 790.663 143.364 788.652 144.999C787.795 145.696 786.535 145.567 785.838 144.71C785.141 143.853 785.271 142.593 786.128 141.896C788.108 140.286 790.065 138.644 792.011 136.981ZM1059.51 88.7759C1059.83 87.719 1060.95 87.1224 1062.01 87.4434C1063.06 87.7644 1063.66 88.8813 1063.34 89.9383L1062.69 92.0739C1062.16 93.8342 1061.62 95.5926 1061.09 97.3442C1060.77 98.4008 1059.65 98.9962 1058.59 98.6742C1057.54 98.3522 1056.94 97.2346 1057.26 96.178C1057.8 94.428 1058.33 92.6723 1058.86 90.9121L1059.51 88.7759ZM780.118 146.615C781 145.95 782.254 146.125 782.919 147.007C783.585 147.889 783.409 149.143 782.528 149.808C780.456 151.371 778.346 152.895 776.187 154.367C775.275 154.989 774.031 154.754 773.408 153.841C772.786 152.929 773.021 151.684 773.934 151.062C776.034 149.631 778.092 148.145 780.118 146.615ZM701.462 166.098C700.497 165.56 700.151 164.342 700.688 163.377C701.226 162.412 702.444 162.066 703.409 162.603C705.617 163.834 707.872 164.907 710.206 165.793C711.239 166.184 711.759 167.339 711.367 168.372C710.976 169.405 709.821 169.924 708.788 169.533C706.249 168.57 703.818 167.41 701.462 166.098ZM931.348 124.241C930.547 123.48 930.515 122.214 931.276 121.414C932.037 120.613 933.303 120.581 934.104 121.342C936.006 123.151 937.902 124.982 939.793 126.817C940.585 127.587 940.604 128.853 939.835 129.646C939.066 130.438 937.799 130.457 937.007 129.688C935.12 127.856 933.235 126.036 931.348 124.241ZM767.537 155.161C768.484 154.593 769.713 154.902 770.28 155.85C770.847 156.797 770.539 158.025 769.591 158.593C767.364 159.926 765.08 161.198 762.729 162.395C761.745 162.896 760.541 162.505 760.039 161.521C759.538 160.537 759.929 159.332 760.914 158.831C763.177 157.678 765.382 156.451 767.537 155.161ZM716.615 171.759C715.531 171.551 714.82 170.503 715.028 169.418C715.236 168.333 716.284 167.622 717.368 167.83C719.717 168.281 722.173 168.543 724.764 168.587C725.869 168.606 726.749 169.517 726.73 170.621C726.711 171.726 725.8 172.606 724.696 172.587C721.875 172.538 719.19 172.252 716.615 171.759ZM754.053 162.01C755.072 161.584 756.243 162.065 756.669 163.084C757.095 164.104 756.614 165.275 755.595 165.701C753.207 166.698 750.751 167.616 748.218 168.445C747.168 168.789 746.039 168.216 745.695 167.166C745.352 166.116 745.924 164.987 746.974 164.644C749.403 163.849 751.76 162.968 754.053 162.01ZM1054.99 103.558C1055.32 102.503 1056.44 101.914 1057.5 102.243C1058.55 102.571 1059.14 103.692 1058.81 104.747C1058.04 107.236 1057.26 109.706 1056.47 112.146C1056.13 113.197 1055 113.773 1053.95 113.433C1052.9 113.093 1052.32 111.965 1052.66 110.914C1053.45 108.492 1054.22 106.037 1054.99 103.558ZM732.775 172.102C731.68 172.248 730.675 171.478 730.529 170.383C730.384 169.288 731.153 168.282 732.248 168.137C733.47 167.974 734.723 167.767 736.008 167.512C737.261 167.263 738.496 166.992 739.712 166.7C740.786 166.442 741.866 167.103 742.124 168.177C742.382 169.251 741.721 170.331 740.647 170.589C739.379 170.894 738.092 171.176 736.786 171.435C735.421 171.706 734.084 171.928 732.775 172.102ZM942.656 135.18C941.863 134.411 941.844 133.145 942.614 132.352C943.383 131.56 944.649 131.541 945.442 132.31C947.328 134.142 949.213 135.962 951.101 137.757C951.901 138.518 951.933 139.784 951.172 140.584C950.411 141.385 949.145 141.417 948.345 140.655C946.443 138.847 944.547 137.016 942.656 135.18ZM1050.23 118.228C1050.59 117.183 1051.72 116.627 1052.77 116.986C1053.81 117.345 1054.37 118.483 1054.01 119.528C1053.15 122.021 1052.28 124.471 1051.39 126.868C1051 127.903 1049.85 128.43 1048.82 128.045C1047.78 127.659 1047.25 126.508 1047.64 125.472C1048.52 123.112 1049.38 120.694 1050.23 118.228ZM954.142 146.062C953.326 145.318 953.267 144.053 954.011 143.236C954.754 142.42 956.019 142.361 956.836 143.105C958.782 144.877 960.733 146.605 962.692 148.272C963.533 148.987 963.635 150.25 962.919 151.091C962.204 151.932 960.942 152.034 960.1 151.318C958.101 149.617 956.115 147.859 954.142 146.062ZM1044.84 132.613C1045.27 131.593 1046.44 131.107 1047.46 131.529C1048.48 131.951 1048.96 133.121 1048.54 134.142C1047.52 136.61 1046.47 139.004 1045.38 141.308C1044.91 142.307 1043.72 142.734 1042.72 142.262C1041.72 141.79 1041.29 140.598 1041.76 139.599C1042.82 137.362 1043.84 135.03 1044.84 132.613ZM966.287 156.341C965.412 155.667 965.249 154.411 965.923 153.536C966.596 152.661 967.852 152.497 968.727 153.171C970.812 154.776 972.907 156.292 975.017 157.701C975.935 158.315 976.182 159.557 975.569 160.475C974.956 161.394 973.714 161.641 972.795 161.028C970.601 159.562 968.433 157.992 966.287 156.341ZM1038.3 146.347C1038.84 145.383 1040.06 145.039 1041.02 145.579C1041.99 146.118 1042.33 147.337 1041.79 148.301C1040.46 150.69 1039.06 152.949 1037.59 155.054C1036.96 155.96 1035.71 156.183 1034.81 155.551C1033.9 154.92 1033.68 153.673 1034.31 152.767C1035.69 150.785 1037.02 148.639 1038.3 146.347ZM979.666 165.203C978.696 164.674 978.339 163.459 978.868 162.49C979.396 161.52 980.611 161.162 981.581 161.691C983.865 162.936 986.166 164.036 988.491 164.97C989.516 165.382 990.013 166.546 989.602 167.571C989.19 168.596 988.025 169.093 987 168.682C984.515 167.683 982.072 166.514 979.666 165.203ZM1029.64 158.593C1030.4 157.786 1031.66 157.743 1032.47 158.497C1033.28 159.252 1033.32 160.517 1032.57 161.324C1030.66 163.363 1028.64 165.166 1026.48 166.688C1025.57 167.324 1024.33 167.109 1023.69 166.206C1023.05 165.303 1023.27 164.055 1024.17 163.419C1026.08 162.075 1027.9 160.46 1029.64 158.593ZM994.761 171.18C993.687 170.921 993.027 169.841 993.285 168.767C993.544 167.693 994.624 167.032 995.698 167.291C998.144 167.88 1000.62 168.271 1003.14 168.441C1004.24 168.515 1005.07 169.469 1005 170.571C1004.92 171.673 1003.97 172.506 1002.87 172.432C1000.11 172.246 997.414 171.819 994.761 171.18ZM1017.83 166.748C1018.87 166.376 1020.02 166.917 1020.39 167.957C1020.76 168.997 1020.22 170.142 1019.18 170.514C1017.88 170.98 1016.54 171.353 1015.16 171.627C1013.79 171.899 1012.43 172.108 1011.08 172.257C1009.98 172.378 1008.99 171.586 1008.87 170.488C1008.75 169.39 1009.54 168.402 1010.64 168.281C1011.87 168.145 1013.12 167.953 1014.38 167.703C1015.56 167.468 1016.72 167.148 1017.83 166.748Z" fill="#3084B6"/>
<path fill-rule="evenodd" clip-rule="evenodd" d="M78.4516 395.718C80.9054 395.314 83.2369 394.661 85.4586 393.78C86.4853 393.372 87.6478 393.874 88.0551 394.901C88.4624 395.928 87.9603 397.09 86.9335 397.498C84.4476 398.484 81.8395 399.214 79.101 399.665C78.0111 399.844 76.9822 399.106 76.8029 398.016C76.6235 396.926 77.3617 395.897 78.4516 395.718ZM71.1562 396.175C72.2602 396.211 73.1259 397.135 73.0899 398.239C73.0539 399.343 72.1298 400.209 71.0258 400.173C68.4615 400.089 65.8037 399.783 63.0469 399.243C61.963 399.031 61.2563 397.98 61.4686 396.896C61.6809 395.812 62.7317 395.106 63.8157 395.318C66.3761 395.819 68.8203 396.099 71.1562 396.175ZM94.1323 393.732C93.2098 394.34 91.9695 394.084 91.362 393.162C90.7545 392.239 91.0099 390.999 91.9324 390.391C93.9418 389.068 95.8621 387.534 97.7021 385.805C98.5071 385.049 99.7729 385.089 100.529 385.894C101.285 386.699 101.246 387.965 100.441 388.721C98.4495 390.591 96.3505 392.271 94.1323 393.732ZM56.6025 393.408C57.6514 393.754 58.221 394.885 57.8748 395.934C57.5286 396.983 56.3976 397.552 55.3487 397.206C54.0841 396.789 52.8001 396.326 51.4962 395.817C50.4672 395.416 49.9585 394.256 50.36 393.227C50.7615 392.198 51.9212 391.689 52.9502 392.091C54.1906 392.575 55.4079 393.013 56.6025 393.408ZM616.105 279.989C617.199 279.839 618.208 280.605 618.357 281.699C618.506 282.794 617.74 283.802 616.646 283.952C615.299 284.136 613.97 284.304 612.658 284.456C611.56 284.583 610.568 283.797 610.441 282.699C610.313 281.602 611.1 280.61 612.197 280.482C613.482 280.333 614.784 280.169 616.105 279.989ZM604.527 281.207C605.629 281.127 606.587 281.956 606.666 283.058C606.746 284.159 605.917 285.117 604.815 285.196C602.112 285.391 599.486 285.516 596.934 285.575C595.83 285.6 594.914 284.726 594.888 283.621C594.863 282.517 595.738 281.601 596.842 281.576C599.327 281.519 601.888 281.397 604.527 281.207ZM105.872 382.852C105.175 383.709 103.915 383.839 103.058 383.143C102.201 382.446 102.071 381.186 102.768 380.329C104.305 378.437 105.781 376.401 107.202 374.236C107.808 373.313 109.048 373.055 109.971 373.661C110.895 374.267 111.152 375.507 110.546 376.431C109.06 378.696 107.505 380.843 105.872 382.852ZM589.152 281.545C590.256 281.581 591.122 282.504 591.087 283.608C591.051 284.712 590.128 285.579 589.024 285.543C586.297 285.456 583.66 285.289 581.108 285.049C580.009 284.946 579.201 283.971 579.304 282.871C579.408 281.771 580.383 280.964 581.483 281.067C583.951 281.299 586.506 281.461 589.152 281.545ZM573.873 280.092C574.963 280.271 575.703 281.299 575.524 282.389C575.346 283.479 574.318 284.218 573.228 284.04C570.531 283.599 567.936 283.072 565.435 282.469C564.362 282.21 563.701 281.13 563.96 280.056C564.219 278.982 565.299 278.322 566.373 278.581C568.776 279.16 571.274 279.667 573.873 280.092ZM114.609 369.66C114.076 370.628 112.86 370.98 111.892 370.447C110.925 369.913 110.573 368.697 111.106 367.73C112.304 365.556 113.46 363.29 114.58 360.944C115.055 359.947 116.249 359.525 117.246 360C118.243 360.476 118.665 361.67 118.19 362.667C117.041 365.075 115.849 367.41 114.609 369.66ZM559.036 276.504C560.086 276.847 560.659 277.976 560.316 279.026C559.973 280.076 558.844 280.649 557.794 280.306C555.198 279.458 552.713 278.527 550.326 277.525C549.307 277.098 548.828 275.926 549.255 274.907C549.682 273.889 550.854 273.41 551.873 273.837C554.162 274.797 556.546 275.69 559.036 276.504ZM544.945 270.596C545.926 271.104 546.31 272.31 545.803 273.291C545.296 274.273 544.089 274.657 543.108 274.149C540.704 272.906 538.405 271.596 536.198 270.239C535.257 269.66 534.963 268.429 535.542 267.488C536.121 266.547 537.352 266.253 538.293 266.832C540.423 268.141 542.635 269.402 544.945 270.596ZM121.395 355.526C120.964 356.543 119.79 357.018 118.773 356.588C117.756 356.157 117.281 354.983 117.711 353.966C118.692 351.649 119.645 349.274 120.573 346.852C120.969 345.82 122.126 345.305 123.157 345.7C124.188 346.096 124.704 347.252 124.308 348.284C123.365 350.743 122.396 353.161 121.395 355.526ZM324.19 306.457C325.425 306.321 326.671 306.129 327.931 305.879C329.185 305.631 330.419 305.36 331.636 305.067C332.71 304.809 333.79 305.471 334.048 306.545C334.306 307.619 333.644 308.699 332.57 308.957C331.302 309.261 330.016 309.544 328.71 309.803C327.338 310.075 325.978 310.284 324.628 310.433C323.53 310.554 322.542 309.762 322.421 308.664C322.3 307.566 323.092 306.578 324.19 306.457ZM340.141 306.813C339.092 307.156 337.962 306.584 337.619 305.534C337.275 304.484 337.848 303.355 338.898 303.011C341.327 302.216 343.684 301.335 345.976 300.378C346.995 299.952 348.167 300.433 348.593 301.452C349.018 302.471 348.537 303.643 347.518 304.068C345.131 305.066 342.675 305.984 340.141 306.813ZM316.687 306.617C317.789 306.692 318.623 307.645 318.548 308.747C318.474 309.849 317.52 310.682 316.418 310.608C313.666 310.422 310.966 309.995 308.313 309.356C307.239 309.097 306.578 308.017 306.837 306.943C307.095 305.87 308.176 305.209 309.25 305.467C311.695 306.056 314.172 306.447 316.687 306.617ZM531.883 262.592C532.785 263.23 533 264.478 532.362 265.38C531.725 266.282 530.477 266.497 529.575 265.86C527.383 264.311 525.278 262.729 523.243 261.138C522.372 260.458 522.219 259.201 522.899 258.331C523.579 257.461 524.836 257.307 525.706 257.987C527.701 259.546 529.753 261.088 531.883 262.592ZM354.652 300.763C353.668 301.264 352.464 300.873 351.963 299.888C351.461 298.904 351.853 297.7 352.837 297.198C355.101 296.045 357.305 294.818 359.46 293.528C360.408 292.961 361.636 293.269 362.203 294.217C362.771 295.165 362.462 296.393 361.515 296.96C359.287 298.294 357.003 299.565 354.652 300.763ZM126.998 340.971C126.63 342.013 125.487 342.558 124.445 342.19C123.404 341.821 122.859 340.679 123.227 339.637C124.075 337.239 124.906 334.807 125.722 332.35C126.07 331.301 127.202 330.734 128.25 331.082C129.298 331.43 129.866 332.562 129.518 333.611C128.695 336.088 127.856 338.545 126.998 340.971ZM302.043 303.146C303.068 303.558 303.565 304.723 303.153 305.748C302.741 306.773 301.577 307.27 300.552 306.858C298.067 305.859 295.623 304.691 293.218 303.379C292.248 302.85 291.89 301.636 292.419 300.666C292.948 299.696 294.163 299.338 295.132 299.867C297.416 301.112 299.718 302.212 302.043 303.146ZM368.111 292.735C367.198 293.357 365.954 293.122 365.332 292.209C364.709 291.296 364.945 290.052 365.857 289.43C367.957 287.998 370.015 286.512 372.041 284.983C372.923 284.318 374.177 284.493 374.843 285.375C375.508 286.256 375.333 287.51 374.451 288.176C372.38 289.739 370.27 291.263 368.111 292.735ZM519.684 253.118C520.534 253.823 520.651 255.084 519.946 255.934C519.241 256.784 517.98 256.902 517.13 256.196C515.726 255.031 514.342 253.869 512.98 252.724C512.36 252.203 511.744 251.685 511.133 251.173C510.287 250.464 510.175 249.203 510.885 248.356C511.594 247.509 512.856 247.398 513.702 248.108C514.322 248.627 514.941 249.148 515.563 249.67C516.921 250.811 518.289 251.961 519.684 253.118ZM380.575 283.367C379.718 284.064 378.459 283.934 377.762 283.077C377.065 282.22 377.194 280.961 378.051 280.264C380.031 278.653 381.988 277.011 383.934 275.349C384.774 274.631 386.036 274.73 386.754 275.57C387.471 276.409 387.372 277.672 386.533 278.389C384.569 280.068 382.586 281.731 380.575 283.367ZM288.568 295.878C289.487 296.491 289.734 297.733 289.121 298.652C288.507 299.57 287.265 299.817 286.347 299.204C284.152 297.738 281.984 296.169 279.839 294.517C278.964 293.843 278.8 292.587 279.474 291.712C280.148 290.837 281.404 290.674 282.279 291.347C284.363 292.952 286.458 294.468 288.568 295.878ZM131.914 326.218C131.58 327.271 130.456 327.854 129.403 327.52C128.35 327.187 127.767 326.062 128.101 325.01C128.876 322.563 129.642 320.101 130.402 317.633C130.727 316.578 131.846 315.985 132.901 316.31C133.957 316.635 134.55 317.754 134.225 318.81C133.463 321.285 132.694 323.758 131.914 326.218ZM392.38 273.32C391.549 274.048 390.286 273.964 389.558 273.133C388.83 272.302 388.914 271.039 389.745 270.311C390.711 269.465 391.676 268.617 392.642 267.768C393.608 266.92 394.575 266.07 395.543 265.222C396.374 264.494 397.638 264.578 398.365 265.409C399.093 266.24 399.01 267.503 398.179 268.231C397.22 269.07 396.263 269.912 395.304 270.754L395.282 270.773L395.258 270.795C394.3 271.636 393.341 272.479 392.38 273.32ZM507.634 243.121C508.498 243.809 508.641 245.068 507.952 245.932C507.264 246.795 506.005 246.938 505.142 246.249C503.093 244.617 501.059 243.067 499.009 241.629C498.105 240.994 497.886 239.747 498.52 238.843C499.155 237.939 500.402 237.72 501.306 238.354C503.442 239.853 505.543 241.455 507.634 243.121ZM276.244 286.448C277.085 287.164 277.187 288.426 276.471 289.267C275.755 290.109 274.493 290.21 273.652 289.495C271.652 287.794 269.667 286.035 267.694 284.238C266.877 283.494 266.818 282.229 267.562 281.413C268.306 280.596 269.571 280.537 270.388 281.281C272.334 283.054 274.285 284.782 276.244 286.448ZM403.989 263.193C403.15 263.911 401.887 263.812 401.17 262.972C400.452 262.132 400.551 260.87 401.391 260.152C403.355 258.474 405.337 256.811 407.348 255.175C408.205 254.478 409.465 254.607 410.162 255.464C410.859 256.321 410.729 257.581 409.872 258.278C407.892 259.888 405.935 261.53 403.989 263.193ZM136.487 311.398C136.166 312.455 135.049 313.052 133.993 312.731C132.936 312.41 132.339 311.293 132.66 310.236C132.799 309.778 132.938 309.32 133.077 308.862L133.308 308.1C133.842 306.34 134.376 304.581 134.91 302.83C135.232 301.773 136.35 301.178 137.406 301.5C138.463 301.822 139.058 302.94 138.736 303.996C138.203 305.746 137.67 307.502 137.136 309.262L136.487 311.398ZM415.882 253.559C415 254.224 413.746 254.049 413.081 253.167C412.416 252.285 412.591 251.031 413.473 250.366C415.544 248.803 417.654 247.279 419.813 245.807C420.725 245.185 421.97 245.42 422.592 246.333C423.214 247.245 422.979 248.49 422.066 249.112C419.966 250.544 417.909 252.029 415.882 253.559ZM494.538 234.077C495.503 234.614 495.85 235.832 495.312 236.797C494.774 237.762 493.556 238.108 492.591 237.571C490.383 236.34 488.128 235.267 485.794 234.381C484.761 233.99 484.241 232.835 484.633 231.802C485.024 230.769 486.179 230.25 487.212 230.641C489.751 231.604 492.183 232.764 494.538 234.077ZM264.653 275.933C265.453 276.694 265.485 277.96 264.724 278.761C263.963 279.561 262.697 279.593 261.896 278.832C259.994 277.023 258.098 275.192 256.207 273.357C255.415 272.587 255.396 271.321 256.165 270.529C256.935 269.736 258.201 269.717 258.993 270.486C260.88 272.318 262.765 274.138 264.653 275.933ZM428.463 245.013C427.516 245.581 426.287 245.272 425.72 244.325C425.153 243.377 425.461 242.149 426.409 241.581C428.636 240.248 430.921 238.976 433.271 237.779C434.255 237.278 435.46 237.669 435.961 238.653C436.462 239.638 436.071 240.842 435.087 241.343C432.823 242.496 430.618 243.723 428.463 245.013ZM479.385 228.415C480.47 228.623 481.18 229.671 480.972 230.756C480.764 231.841 479.716 232.552 478.632 232.344C476.283 231.894 473.827 231.631 471.236 231.587C470.131 231.568 469.251 230.657 469.27 229.553C469.289 228.448 470.2 227.568 471.304 227.587C474.125 227.636 476.81 227.922 479.385 228.415ZM441.947 238.164C440.928 238.59 439.757 238.109 439.331 237.09C438.905 236.07 439.386 234.899 440.405 234.473C442.793 233.476 445.249 232.558 447.782 231.729C448.832 231.385 449.961 231.958 450.305 233.008C450.648 234.058 450.076 235.187 449.026 235.531C446.597 236.325 444.24 237.206 441.947 238.164ZM141.006 296.616C140.678 297.671 139.557 298.26 138.502 297.932C137.447 297.603 136.858 296.482 137.187 295.427C137.962 292.938 138.742 290.468 139.533 288.028C139.873 286.977 141.001 286.401 142.051 286.741C143.102 287.081 143.678 288.209 143.338 289.26C142.554 291.682 141.778 294.137 141.006 296.616ZM463.225 228.072C464.32 227.927 465.325 228.696 465.471 229.791C465.617 230.886 464.847 231.892 463.752 232.037C462.53 232.2 461.278 232.407 459.993 232.662C458.739 232.911 457.504 233.182 456.288 233.474C455.214 233.732 454.134 233.071 453.876 231.997C453.618 230.923 454.279 229.843 455.353 229.585C456.621 229.28 457.908 228.998 459.214 228.739C460.579 228.468 461.916 228.246 463.225 228.072ZM253.344 264.994C254.137 265.763 254.156 267.029 253.386 267.822C252.617 268.614 251.351 268.633 250.558 267.864C248.672 266.032 246.787 264.212 244.899 262.417C244.099 261.656 244.067 260.39 244.828 259.59C245.589 258.789 246.855 258.757 247.655 259.519C249.558 261.327 251.454 263.158 253.344 264.994ZM145.774 281.946C145.415 282.991 144.277 283.547 143.232 283.188C142.188 282.829 141.632 281.691 141.991 280.646C142.847 278.153 143.719 275.703 144.612 273.306C144.997 272.271 146.149 271.744 147.184 272.129C148.219 272.515 148.746 273.666 148.36 274.702C147.481 277.062 146.621 279.48 145.774 281.946ZM241.858 254.112C242.674 254.856 242.733 256.121 241.99 256.938C241.246 257.754 239.981 257.813 239.164 257.07C237.218 255.297 235.267 253.569 233.308 251.902C232.467 251.187 232.365 249.924 233.081 249.083C233.796 248.242 235.059 248.14 235.9 248.856C237.9 250.557 239.885 252.315 241.858 254.112ZM151.157 267.561C150.735 268.581 149.565 269.067 148.544 268.645C147.524 268.223 147.038 267.053 147.46 266.032C148.481 263.564 149.532 261.17 150.621 258.866C151.093 257.867 152.285 257.44 153.284 257.912C154.282 258.384 154.709 259.576 154.238 260.575C153.181 262.812 152.156 265.145 151.157 267.561ZM229.713 243.833C230.588 244.507 230.751 245.763 230.078 246.638C229.404 247.514 228.148 247.677 227.273 247.003C225.188 245.398 223.093 243.882 220.983 242.473C220.065 241.859 219.818 240.617 220.431 239.699C221.045 238.78 222.287 238.533 223.205 239.147C225.399 240.612 227.567 242.182 229.713 243.833ZM157.697 253.827C157.158 254.791 155.939 255.135 154.975 254.596C154.011 254.056 153.667 252.837 154.207 251.874C155.544 249.484 156.941 247.225 158.408 245.12C159.039 244.214 160.286 243.991 161.192 244.623C162.098 245.254 162.321 246.501 161.69 247.407C160.308 249.39 158.98 251.535 157.697 253.827ZM216.334 234.971C217.304 235.5 217.661 236.715 217.133 237.685C216.604 238.654 215.389 239.012 214.419 238.483C212.136 237.238 209.834 236.138 207.509 235.204C206.484 234.792 205.987 233.628 206.399 232.603C206.81 231.578 207.975 231.081 209 231.493C211.485 232.491 213.928 233.66 216.334 234.971ZM166.357 241.581C165.603 242.388 164.337 242.431 163.53 241.677C162.724 240.922 162.681 239.657 163.435 238.85C165.341 236.811 167.365 235.009 169.524 233.486C170.427 232.85 171.675 233.065 172.311 233.968C172.947 234.871 172.732 236.119 171.829 236.755C169.922 238.099 168.102 239.715 166.357 241.581ZM201.239 228.994C202.313 229.253 202.974 230.333 202.715 231.407C202.456 232.481 201.376 233.142 200.302 232.883C197.856 232.294 195.379 231.903 192.864 231.733C191.762 231.659 190.929 230.705 191.003 229.603C191.078 228.501 192.031 227.668 193.134 227.742C195.886 227.928 198.586 228.355 201.239 228.994ZM178.167 233.426C177.127 233.799 175.982 233.257 175.61 232.217C175.237 231.177 175.779 230.033 176.819 229.66C178.121 229.194 179.461 228.821 180.842 228.547C182.213 228.275 183.574 228.066 184.924 227.917C186.022 227.796 187.01 228.588 187.131 229.686C187.252 230.784 186.46 231.772 185.362 231.893C184.127 232.029 182.88 232.221 181.621 232.471C180.435 232.706 179.285 233.026 178.167 233.426ZM1165.55 395.718C1163.09 395.314 1160.76 394.661 1158.54 393.78C1157.51 393.372 1156.35 393.874 1155.95 394.901C1155.54 395.928 1156.04 397.09 1157.07 397.498C1159.55 398.484 1162.16 399.214 1164.9 399.665C1165.99 399.844 1167.02 399.106 1167.2 398.016C1167.38 396.926 1166.64 395.897 1165.55 395.718ZM1172.84 396.175C1171.74 396.211 1170.87 397.135 1170.91 398.239C1170.95 399.343 1171.87 400.209 1172.97 400.173C1175.54 400.089 1178.2 399.783 1180.95 399.243C1182.04 399.031 1182.74 397.98 1182.53 396.896C1182.32 395.812 1181.27 395.106 1180.18 395.318C1177.62 395.819 1175.18 396.099 1172.84 396.175ZM1149.87 393.732C1150.79 394.34 1152.03 394.084 1152.64 393.162C1153.25 392.239 1152.99 390.999 1152.07 390.391C1150.06 389.068 1148.14 387.534 1146.3 385.805C1145.49 385.049 1144.23 385.089 1143.47 385.894C1142.71 386.699 1142.75 387.965 1143.56 388.721C1145.55 390.591 1147.65 392.271 1149.87 393.732ZM1187.4 393.408C1186.35 393.754 1185.78 394.885 1186.13 395.934C1186.47 396.983 1187.6 397.552 1188.65 397.206C1189.92 396.789 1191.2 396.326 1192.5 395.817C1193.53 395.416 1194.04 394.256 1193.64 393.227C1193.24 392.198 1192.08 391.689 1191.05 392.091C1189.81 392.575 1188.59 393.013 1187.4 393.408ZM627.895 279.989C626.801 279.839 625.793 280.605 625.643 281.699C625.494 282.794 626.26 283.802 627.354 283.952C628.701 284.136 630.03 284.304 631.342 284.456C632.44 284.583 633.432 283.797 633.56 282.699C633.687 281.602 632.901 280.61 631.803 280.482C630.518 280.333 629.216 280.169 627.895 279.989ZM639.473 281.207C638.371 281.127 637.413 281.956 637.334 283.058C637.255 284.159 638.083 285.117 639.185 285.196C641.888 285.391 644.514 285.516 647.066 285.575C648.17 285.6 649.086 284.726 649.112 283.621C649.137 282.517 648.263 281.601 647.158 281.576C644.673 281.519 642.112 281.397 639.473 281.207ZM1138.13 382.852C1138.83 383.709 1140.08 383.839 1140.94 383.143C1141.8 382.446 1141.93 381.186 1141.23 380.329C1139.69 378.437 1138.22 376.401 1136.8 374.236C1136.19 373.313 1134.95 373.055 1134.03 373.661C1133.11 374.267 1132.85 375.507 1133.45 376.431C1134.94 378.696 1136.5 380.843 1138.13 382.852ZM654.848 281.545C653.744 281.581 652.878 282.504 652.913 283.608C652.949 284.712 653.872 285.579 654.976 285.543C657.703 285.456 660.34 285.289 662.892 285.049C663.992 284.946 664.799 283.971 664.696 282.871C664.592 281.771 663.617 280.964 662.517 281.067C660.049 281.299 657.495 281.461 654.848 281.545ZM670.127 280.092C669.037 280.271 668.298 281.299 668.476 282.389C668.654 283.479 669.682 284.218 670.773 284.04C673.469 283.599 676.064 283.072 678.565 282.469C679.639 282.21 680.299 281.13 680.04 280.056C679.781 278.982 678.701 278.322 677.627 278.581C675.224 279.16 672.726 279.667 670.127 280.092ZM1129.39 369.66C1129.92 370.628 1131.14 370.98 1132.11 370.447C1133.08 369.913 1133.43 368.697 1132.89 367.73C1131.7 365.555 1130.54 363.29 1129.42 360.944C1128.94 359.947 1127.75 359.525 1126.75 360C1125.76 360.476 1125.33 361.67 1125.81 362.667C1126.96 365.075 1128.15 367.41 1129.39 369.66ZM684.964 276.504C683.914 276.847 683.341 277.976 683.684 279.026C684.027 280.076 685.156 280.649 686.206 280.306C688.802 279.458 691.288 278.527 693.674 277.525C694.693 277.098 695.172 275.926 694.745 274.907C694.318 273.889 693.146 273.41 692.127 273.837C689.838 274.797 687.454 275.69 684.964 276.504ZM699.055 270.596C698.074 271.104 697.69 272.31 698.197 273.291C698.705 274.273 699.911 274.657 700.892 274.149C703.297 272.906 705.595 271.596 707.802 270.239C708.743 269.66 709.037 268.428 708.458 267.488C707.88 266.547 706.648 266.253 705.707 266.832C703.577 268.141 701.365 269.402 699.055 270.596ZM1122.61 355.525C1123.04 356.543 1124.21 357.018 1125.23 356.588C1126.24 356.157 1126.72 354.983 1126.29 353.966C1125.31 351.649 1124.36 349.274 1123.43 346.852C1123.03 345.82 1121.87 345.305 1120.84 345.7C1119.81 346.095 1119.3 347.252 1119.69 348.283C1120.63 350.743 1121.6 353.161 1122.61 355.525ZM919.81 306.457C918.576 306.321 917.329 306.129 916.069 305.879C914.815 305.631 913.581 305.36 912.364 305.067C911.29 304.809 910.211 305.471 909.953 306.545C909.695 307.619 910.356 308.699 911.43 308.957C912.698 309.261 913.984 309.544 915.29 309.803C916.662 310.075 918.022 310.284 919.372 310.433C920.47 310.554 921.458 309.762 921.579 308.664C921.7 307.566 920.908 306.578 919.81 306.457ZM903.859 306.813C904.909 307.156 906.038 306.584 906.382 305.534C906.725 304.484 906.152 303.355 905.103 303.011C902.673 302.216 900.317 301.335 898.024 300.378C897.005 299.952 895.833 300.433 895.408 301.452C894.982 302.471 895.463 303.643 896.482 304.068C898.87 305.066 901.326 305.984 903.859 306.813ZM927.313 306.617C926.211 306.691 925.378 307.645 925.452 308.747C925.526 309.849 926.48 310.682 927.582 310.608C930.334 310.422 933.035 309.995 935.687 309.356C936.761 309.097 937.422 308.017 937.163 306.943C936.905 305.87 935.824 305.209 934.751 305.467C932.305 306.056 929.828 306.447 927.313 306.617ZM712.117 262.592C711.215 263.23 711 264.478 711.638 265.38C712.275 266.282 713.523 266.497 714.425 265.86C716.617 264.311 718.722 262.729 720.757 261.138C721.628 260.458 721.782 259.201 721.101 258.331C720.421 257.46 719.164 257.307 718.294 257.987C716.299 259.546 714.247 261.088 712.117 262.592ZM889.348 300.763C890.332 301.264 891.536 300.873 892.038 299.888C892.539 298.904 892.148 297.7 891.163 297.198C888.899 296.045 886.695 294.818 884.54 293.528C883.592 292.961 882.364 293.269 881.797 294.217C881.229 295.165 881.538 296.393 882.485 296.96C884.713 298.294 886.997 299.565 889.348 300.763ZM1117 340.971C1117.37 342.013 1118.51 342.558 1119.55 342.19C1120.6 341.821 1121.14 340.679 1120.77 339.637C1119.92 337.239 1119.09 334.807 1118.28 332.35C1117.93 331.301 1116.8 330.734 1115.75 331.082C1114.7 331.43 1114.13 332.562 1114.48 333.611C1115.31 336.088 1116.14 338.545 1117 340.971ZM941.957 303.146C940.932 303.558 940.435 304.723 940.847 305.748C941.259 306.773 942.424 307.27 943.448 306.858C945.934 305.859 948.377 304.691 950.782 303.379C951.752 302.85 952.11 301.636 951.581 300.666C951.052 299.696 949.838 299.338 948.868 299.867C946.584 301.112 944.282 302.212 941.957 303.146ZM875.889 292.735C876.802 293.357 878.046 293.122 878.669 292.209C879.291 291.296 879.055 290.052 878.143 289.43C876.043 287.998 873.985 286.512 871.959 284.983C871.077 284.318 869.823 284.493 869.158 285.375C868.492 286.256 868.668 287.51 869.549 288.176C871.62 289.739 873.731 291.263 875.889 292.735ZM724.316 253.118C723.466 253.823 723.349 255.084 724.054 255.934C724.76 256.784 726.02 256.902 726.87 256.196C728.275 255.031 729.658 253.868 731.02 252.724L731.054 252.695C731.663 252.184 732.267 251.676 732.867 251.173C733.714 250.464 733.825 249.202 733.115 248.356C732.406 247.509 731.144 247.398 730.298 248.108C729.678 248.627 729.059 249.148 728.437 249.67L728.431 249.675C727.075 250.814 725.709 251.962 724.316 253.118ZM863.425 283.367C864.282 284.064 865.541 283.934 866.238 283.077C866.935 282.22 866.806 280.961 865.949 280.264C863.969 278.653 862.012 277.011 860.066 275.349C859.226 274.631 857.964 274.73 857.246 275.57C856.529 276.409 856.628 277.672 857.467 278.389C859.431 280.068 861.414 281.731 863.425 283.367ZM955.432 295.878C954.513 296.491 954.266 297.733 954.88 298.652C955.493 299.57 956.735 299.817 957.654 299.204C959.848 297.738 962.016 296.169 964.161 294.517C965.037 293.843 965.2 292.587 964.526 291.712C963.852 290.837 962.596 290.674 961.721 291.347C959.637 292.952 957.542 294.468 955.432 295.878ZM1112.09 326.218C1112.42 327.271 1113.54 327.854 1114.6 327.52C1115.65 327.187 1116.23 326.062 1115.9 325.009C1115.12 322.563 1114.36 320.101 1113.6 317.633C1113.27 316.578 1112.15 315.985 1111.1 316.31C1110.04 316.635 1109.45 317.754 1109.78 318.81C1110.54 321.285 1111.31 323.758 1112.09 326.218ZM851.62 273.32C852.451 274.048 853.714 273.964 854.442 273.133C855.17 272.302 855.086 271.039 854.255 270.311C853.289 269.465 852.325 268.617 851.358 267.768C850.393 266.92 849.426 266.07 848.457 265.222C847.626 264.494 846.362 264.578 845.635 265.409C844.907 266.24 844.991 267.503 845.821 268.231C846.787 269.077 847.752 269.925 848.718 270.773C849.684 271.622 850.651 272.472 851.62 273.32ZM736.366 243.121C735.502 243.809 735.36 245.068 736.048 245.931C736.736 246.795 737.995 246.938 738.859 246.249C740.907 244.617 742.941 243.067 744.991 241.629C745.896 240.994 746.114 239.747 745.48 238.843C744.845 237.939 743.598 237.72 742.694 238.354C740.558 239.853 738.457 241.455 736.366 243.121ZM967.757 286.448C966.915 287.164 966.813 288.426 967.529 289.267C968.245 290.109 969.507 290.21 970.348 289.495C972.348 287.794 974.333 286.035 976.306 284.238C977.123 283.494 977.182 282.229 976.438 281.413C975.694 280.596 974.429 280.537 973.613 281.281C971.666 283.054 969.716 284.782 967.757 286.448ZM840.011 263.193C840.85 263.911 842.113 263.812 842.83 262.972C843.548 262.132 843.449 260.87 842.609 260.152C840.646 258.474 838.663 256.81 836.652 255.175C835.795 254.478 834.535 254.607 833.838 255.464C833.141 256.321 833.271 257.581 834.128 258.278C836.108 259.888 838.065 261.53 840.011 263.193ZM1107.51 311.398C1107.83 312.455 1108.95 313.052 1110.01 312.731C1111.06 312.41 1111.66 311.293 1111.34 310.236L1110.69 308.1C1110.16 306.34 1109.62 304.581 1109.09 302.83C1108.77 301.773 1107.65 301.178 1106.59 301.5C1105.54 301.822 1104.94 302.939 1105.26 303.996C1105.8 305.746 1106.33 307.502 1106.86 309.262L1107.51 311.398ZM828.118 253.559C829 254.224 830.254 254.049 830.919 253.167C831.585 252.285 831.409 251.031 830.528 250.366C828.456 248.803 826.346 247.279 824.187 245.807C823.275 245.185 822.031 245.42 821.408 246.333C820.786 247.245 821.021 248.49 821.934 249.112C824.034 250.543 826.092 252.029 828.118 253.559ZM749.462 234.077C748.497 234.614 748.151 235.832 748.688 236.797C749.226 237.762 750.444 238.108 751.409 237.571C753.617 236.34 755.872 235.267 758.206 234.381C759.239 233.99 759.759 232.835 759.367 231.802C758.976 230.769 757.821 230.25 756.788 230.641C754.249 231.604 751.818 232.764 749.462 234.077ZM979.348 275.933C978.547 276.694 978.515 277.96 979.276 278.761C980.037 279.561 981.303 279.593 982.104 278.832C984.006 277.023 985.902 275.192 987.793 273.357C988.585 272.587 988.604 271.321 987.835 270.529C987.066 269.736 985.799 269.717 985.007 270.486C983.12 272.318 981.235 274.138 979.348 275.933ZM815.537 245.013C816.484 245.581 817.713 245.272 818.28 244.325C818.847 243.377 818.539 242.149 817.591 241.581C815.364 240.248 813.08 238.976 810.729 237.779C809.745 237.278 808.541 237.669 808.039 238.653C807.538 239.638 807.929 240.842 808.914 241.343C811.177 242.496 813.382 243.723 815.537 245.013ZM764.615 228.415C763.531 228.623 762.82 229.671 763.028 230.756C763.236 231.841 764.284 232.552 765.368 232.344C767.717 231.894 770.173 231.631 772.764 231.587C773.869 231.568 774.749 230.657 774.73 229.553C774.711 228.448 773.8 227.568 772.696 227.587C769.875 227.636 767.19 227.922 764.615 228.415ZM802.053 238.164C803.072 238.59 804.243 238.109 804.669 237.09C805.095 236.07 804.614 234.899 803.595 234.473C801.207 233.476 798.751 232.558 796.218 231.729C795.168 231.385 794.039 231.958 793.695 233.008C793.352 234.058 793.924 235.187 794.974 235.531C797.403 236.325 799.76 237.206 802.053 238.164ZM1102.99 296.616C1103.32 297.671 1104.44 298.26 1105.5 297.932C1106.55 297.603 1107.14 296.482 1106.81 295.427C1106.04 292.938 1105.26 290.468 1104.47 288.028C1104.13 286.977 1103 286.401 1101.95 286.741C1100.9 287.081 1100.32 288.209 1100.66 289.26C1101.45 291.682 1102.22 294.137 1102.99 296.616ZM780.775 228.072C779.68 227.926 778.675 228.696 778.529 229.791C778.384 230.886 779.153 231.892 780.248 232.037C781.47 232.2 782.723 232.407 784.008 232.662C785.261 232.911 786.496 233.182 787.712 233.474C788.786 233.732 789.866 233.071 790.124 231.997C790.382 230.923 789.721 229.843 788.647 229.585C787.379 229.28 786.092 228.998 784.786 228.739C783.421 228.468 782.084 228.246 780.775 228.072ZM990.656 264.994C989.863 265.763 989.844 267.029 990.614 267.822C991.383 268.614 992.649 268.633 993.442 267.864C995.328 266.032 997.213 264.212 999.101 262.417C999.901 261.656 999.933 260.39 999.172 259.59C998.411 258.789 997.145 258.757 996.345 259.519C994.443 261.327 992.547 263.158 990.656 264.994ZM1098.23 281.946C1098.59 282.991 1099.72 283.547 1100.77 283.188C1101.81 282.829 1102.37 281.691 1102.01 280.646C1101.15 278.153 1100.28 275.703 1099.39 273.306C1099 272.271 1097.85 271.744 1096.82 272.129C1095.78 272.515 1095.25 273.666 1095.64 274.702C1096.52 277.062 1097.38 279.48 1098.23 281.946ZM1002.14 254.112C1001.33 254.856 1001.27 256.121 1002.01 256.938C1002.75 257.754 1004.02 257.813 1004.84 257.07C1006.78 255.297 1008.73 253.569 1010.69 251.902C1011.53 251.187 1011.64 249.924 1010.92 249.083C1010.2 248.242 1008.94 248.14 1008.1 248.856C1006.1 250.557 1004.12 252.315 1002.14 254.112ZM1092.84 267.561C1093.27 268.581 1094.44 269.067 1095.46 268.645C1096.48 268.223 1096.96 267.053 1096.54 266.032C1095.52 263.564 1094.47 261.17 1093.38 258.866C1092.91 257.867 1091.72 257.44 1090.72 257.912C1089.72 258.384 1089.29 259.576 1089.76 260.575C1090.82 262.812 1091.84 265.145 1092.84 267.561ZM1014.29 243.833C1013.41 244.507 1013.25 245.763 1013.92 246.638C1014.6 247.513 1015.85 247.677 1016.73 247.003C1018.81 245.398 1020.91 243.882 1023.02 242.473C1023.94 241.859 1024.18 240.617 1023.57 239.699C1022.96 238.78 1021.71 238.533 1020.8 239.146C1018.6 240.612 1016.43 242.182 1014.29 243.833ZM1086.3 253.827C1086.84 254.791 1088.06 255.135 1089.02 254.595C1089.99 254.056 1090.33 252.837 1089.79 251.874C1088.46 249.484 1087.06 247.225 1085.59 245.12C1084.96 244.214 1083.71 243.991 1082.81 244.623C1081.9 245.254 1081.68 246.501 1082.31 247.407C1083.69 249.389 1085.02 251.535 1086.3 253.827ZM1027.67 234.971C1026.7 235.5 1026.34 236.715 1026.87 237.685C1027.4 238.654 1028.61 239.012 1029.58 238.483C1031.86 237.238 1034.17 236.138 1036.49 235.204C1037.52 234.792 1038.01 233.628 1037.6 232.603C1037.19 231.578 1036.03 231.081 1035 231.492C1032.52 232.491 1030.07 233.66 1027.67 234.971ZM1077.64 241.581C1078.4 242.388 1079.66 242.431 1080.47 241.677C1081.28 240.922 1081.32 239.657 1080.57 238.85C1078.66 236.811 1076.64 235.009 1074.48 233.486C1073.57 232.85 1072.33 233.065 1071.69 233.968C1071.05 234.871 1071.27 236.119 1072.17 236.755C1074.08 238.099 1075.9 239.714 1077.64 241.581ZM1042.76 228.994C1041.69 229.253 1041.03 230.333 1041.29 231.407C1041.54 232.481 1042.62 233.142 1043.7 232.883C1046.14 232.294 1048.62 231.903 1051.14 231.733C1052.24 231.659 1053.07 230.705 1053 229.603C1052.92 228.501 1051.97 227.668 1050.87 227.742C1048.11 227.928 1045.41 228.355 1042.76 228.994ZM1065.83 233.426C1066.87 233.799 1068.02 233.257 1068.39 232.217C1068.76 231.177 1068.22 230.033 1067.18 229.66C1065.88 229.194 1064.54 228.821 1063.16 228.547C1061.79 228.275 1060.43 228.066 1059.08 227.917C1057.98 227.796 1056.99 228.588 1056.87 229.686C1056.75 230.784 1057.54 231.772 1058.64 231.893C1059.87 232.029 1061.12 232.221 1062.38 232.471C1063.56 232.706 1064.72 233.026 1065.83 233.426Z" fill="#CFE44A"/>
<ellipse cx="215.263" cy="506.47" rx="7.34689" ry="7.5302" fill="#F7D65D"/>
<ellipse cx="190.285" cy="434.933" rx="3.67344" ry="3.7651" fill="#44C587"/>
<ellipse cx="132.979" cy="440.957" rx="2.20407" ry="2.25906" fill="#F7D65D"/>
<ellipse cx="121.958" cy="484.632" rx="5.87751" ry="6.02416" fill="#F461A6"/>
<ellipse cx="393.793" cy="104.518" rx="4.40813" ry="4.51812" fill="#FBD95E"/>
<ellipse cx="3.95709" cy="3.87353" rx="3.95709" ry="3.87353" transform="matrix(-0.252926 0.967486 -0.964295 -0.264829 583.998 295.417)" fill="#F361A5"/>
<ellipse cx="564.974" cy="242.16" rx="3.67344" ry="3.7651" fill="#4DCB8E"/>
<path d="M590.088 263.203C589.203 262.96 588.678 262.028 588.915 261.121C589.152 260.214 590.062 259.676 590.947 259.919C591.831 260.162 592.357 261.094 592.119 262.001C591.882 262.908 590.973 263.446 590.088 263.203Z" fill="#5489FA"/>
<ellipse cx="2.61553" cy="2.5603" rx="2.61553" ry="2.5603" transform="matrix(-0.252926 0.967486 -0.964295 -0.264829 617.521 234.479)" fill="#FBD95E"/>
<ellipse cx="170.447" cy="478.608" rx="3.67344" ry="3.7651" fill="#5489FA"/>
<ellipse cx="710.673" cy="137.765" rx="3.67344" ry="3.7651" fill="#5489FA"/>
<ellipse cx="225.548" cy="373.938" rx="2.93875" ry="3.01208" fill="#FDFFFF"/>
<ellipse cx="4.77548" cy="189.072" rx="4.77548" ry="4.89463" fill="#1666FF"/>
</svg>
