<svg width="24" height="25" viewBox="0 0 24 25" fill="none" xmlns="http://www.w3.org/2000/svg">
<path fill-rule="evenodd" clip-rule="evenodd" d="M17.9351 10.4983L7.04382 4.97352C6.28608 4.57305 5.36403 4.65193 4.68475 5.17533C4.00547 5.69873 3.694 6.5703 3.88784 7.40526L4.99856 12.0657C5.07339 12.3728 5.07613 12.6932 5.00656 13.0016L3.97562 17.6817C3.81267 18.3941 4.03408 19.1396 4.55936 19.6472C5.25052 20.3357 6.30971 20.4938 7.17248 20.0372L17.9677 14.3137C18.676 13.9369 19.1159 13.1974 19.1091 12.3954C19.1022 11.5934 18.6497 10.8621 17.9351 10.4983ZM7.00117 11.5704L5.89045 6.90994C5.88816 6.85138 5.93044 6.80051 5.98844 6.79205C6.05996 6.7374 6.12349 6.79981 6.12349 6.79981L17.0148 12.3246L16.9613 12.3791L6.16604 18.1026C6.1011 18.1501 6.01049 18.1391 5.95884 18.0775L7.01654 13.3701C7.13877 12.7758 7.13353 12.1624 7.00117 11.5704Z" fill="white"/>
</svg>
