<svg width="82" height="68" viewBox="0 0 82 68" fill="none" xmlns="http://www.w3.org/2000/svg">
<path d="M18.4215 28.9983C20.3098 35.4517 25.7525 48.616 34.9497 47.4344C44.1742 46.2492 40.5718 34.3543 49.0162 32.724C52.7335 32.0063 55.2532 38.4399 58.9788 38.2398C63.777 37.982 66.2193 33.2323 67.5601 29.2393C70.4032 20.7729 66.1456 6.4164 56.1806 3.92995C47.4847 1.7602 46.4675 12.385 38.9063 9.29892C34.6565 7.56435 35.0811 2.38444 29.9051 1.33924C14.2465 -1.82267 15.909 20.4111 18.4215 28.9983Z" fill="url(#paint0_linear_744_1342)"/>
<path d="M58.982 39.2119C58.1874 39.2119 57.541 38.5655 57.541 37.7709C57.541 36.9763 58.1874 36.3298 58.982 36.3298C59.7765 36.3298 60.4229 36.9763 60.4229 37.7709C60.4229 38.5655 59.7765 39.2119 58.982 39.2119ZM58.982 37.3382C58.7434 37.3382 58.5493 37.5323 58.5493 37.771C58.5493 38.0097 58.7434 38.2037 58.982 38.2037C59.2205 38.2037 59.4146 38.0097 59.4146 37.771C59.4146 37.5323 59.2205 37.3382 58.982 37.3382Z" fill="#25C3C8"/>
<path d="M25.1621 17.7524C25.0284 17.7524 24.9002 17.6992 24.8056 17.6047C24.7111 17.5102 24.658 17.3819 24.658 17.2482C24.658 16.9146 24.3866 16.6432 24.053 16.6432C23.9193 16.6432 23.791 16.5901 23.6965 16.4956C23.6019 16.401 23.5488 16.2728 23.5488 16.1391C23.5488 16.0054 23.6019 15.8771 23.6965 15.7826C23.791 15.6881 23.9193 15.6349 24.053 15.6349C24.3866 15.6349 24.658 15.3636 24.658 15.03C24.658 14.8963 24.7111 14.768 24.8056 14.6735C24.9002 14.5789 25.0284 14.5258 25.1621 14.5258C25.2958 14.5258 25.424 14.5789 25.5186 14.6735C25.6131 14.768 25.6662 14.8963 25.6662 15.03C25.6662 15.3636 25.9376 15.6349 26.2712 15.6349C26.4049 15.6349 26.5332 15.6881 26.6277 15.7826C26.7223 15.8771 26.7754 16.0054 26.7754 16.1391C26.7754 16.2728 26.7223 16.401 26.6277 16.4956C26.5332 16.5901 26.4049 16.6432 26.2712 16.6432C25.9376 16.6432 25.6662 16.9146 25.6662 17.2482C25.6662 17.3819 25.6131 17.5102 25.5186 17.6047C25.424 17.6992 25.2958 17.7524 25.1621 17.7524ZM60.4255 43.7748C60.2918 43.7748 60.1635 43.7217 60.069 43.6272C59.9744 43.5326 59.9213 43.4044 59.9213 43.2707C59.9213 42.937 59.65 42.6657 59.3164 42.6657C59.1827 42.6657 59.0544 42.6126 58.9599 42.518C58.8653 42.4235 58.8122 42.2953 58.8122 42.1616C58.8122 42.0279 58.8653 41.8996 58.9599 41.8051C59.0544 41.7105 59.1827 41.6574 59.3164 41.6574C59.65 41.6574 59.9213 41.3861 59.9213 41.0524C59.9213 40.9187 59.9744 40.7905 60.069 40.6959C60.1635 40.6014 60.2918 40.5483 60.4255 40.5483C60.5592 40.5483 60.6874 40.6014 60.782 40.6959C60.8765 40.7905 60.9296 40.9187 60.9296 41.0524C60.9296 41.3861 61.201 41.6574 61.5346 41.6574C61.6683 41.6574 61.7965 41.7105 61.8911 41.8051C61.9856 41.8996 62.0388 42.0279 62.0388 42.1616C62.0388 42.2953 61.9856 42.4235 61.8911 42.518C61.7965 42.6126 61.6683 42.6657 61.5346 42.6657C61.201 42.6657 60.9296 42.937 60.9296 43.2707C60.9296 43.4044 60.8765 43.5326 60.782 43.6272C60.6874 43.7217 60.5592 43.7748 60.4255 43.7748Z" fill="#CFE44A"/>
<path d="M78.3938 32.9593C78.3394 32.8371 78.3357 32.6984 78.3836 32.5735C78.4315 32.4487 78.527 32.348 78.6492 32.2936C78.9539 32.1578 79.0914 31.7995 78.9556 31.4948C78.9012 31.3726 78.8975 31.2339 78.9454 31.109C78.9933 30.9842 79.0888 30.8835 79.2109 30.8291C79.3331 30.7747 79.4718 30.771 79.5967 30.8189C79.7215 30.8668 79.8222 30.9623 79.8766 31.0845C80.0124 31.3892 80.3707 31.5267 80.6754 31.3909C80.7976 31.3365 80.9363 31.3328 81.0611 31.3807C81.186 31.4286 81.2867 31.5241 81.3411 31.6462C81.3955 31.7684 81.3992 31.9071 81.3513 32.032C81.3034 32.1568 81.2079 32.2575 81.0857 32.3119C80.781 32.4477 80.6435 32.806 80.7793 33.1107C80.8337 33.2329 80.8374 33.3716 80.7895 33.4965C80.7416 33.6213 80.6461 33.722 80.524 33.7764C80.4018 33.8308 80.2631 33.8345 80.1382 33.7866C80.0134 33.7387 79.9127 33.6432 79.8583 33.521C79.7225 33.2163 79.3642 33.0788 79.0595 33.2146C78.9373 33.269 78.7986 33.2727 78.6737 33.2248C78.5489 33.1769 78.4482 33.0814 78.3938 32.9593ZM55.5178 2.1957C55.4634 2.07357 55.4598 1.93482 55.5076 1.80998C55.5555 1.68514 55.6511 1.58444 55.7732 1.53003C56.078 1.39426 56.2154 1.03599 56.0796 0.731224C56.0252 0.609087 56.0215 0.470339 56.0694 0.345501C56.1173 0.220663 56.2128 0.119962 56.335 0.0655513C56.4571 0.01114 56.5959 0.00747676 56.7207 0.0553658C56.8455 0.103255 56.9462 0.198774 57.0007 0.32091C57.1364 0.62568 57.4947 0.763114 57.7995 0.627342C57.9216 0.572931 58.0603 0.569267 58.1852 0.617156C58.31 0.665046 58.4107 0.760564 58.4651 0.882701C58.5195 1.00484 58.5232 1.14359 58.4753 1.26842C58.4274 1.39326 58.3319 1.49396 58.2098 1.54837C57.905 1.68415 57.7676 2.04241 57.9033 2.34718C57.9578 2.46932 57.9614 2.60807 57.9135 2.73291C57.8656 2.85774 57.7701 2.95844 57.648 3.01285C57.5258 3.06727 57.3871 3.07093 57.2623 3.02304C57.1374 2.97515 57.0367 2.87963 56.9823 2.75749C56.8465 2.45273 56.4883 2.31529 56.1835 2.45106C56.0614 2.50547 55.9226 2.50914 55.7978 2.46125C55.6729 2.41336 55.5722 2.31784 55.5178 2.1957Z" fill="#3084B6"/>
<path d="M57.125 45.4654C53.9841 45.4654 51.3305 47.5832 50.512 50.4654H43.875V43.146H50.6516C58.012 43.146 64 37.158 64 29.7976C64 23.8962 60.086 18.712 54.5295 17.0235C52.8499 10.298 46.7789 5.47436 39.7477 5.47436C37.0221 5.47436 34.4111 6.17723 32.1069 7.52011C29.6665 5.28836 26.4666 4.03461 23.1045 4.03461C15.8929 4.03461 9.99862 9.78348 9.76338 16.9387C4.05575 18.5341 0 23.76 0 29.7976C0 37.158 5.988 43.146 13.3484 43.146H20.125V50.4654H13.488C12.6696 47.5832 10.0159 45.4654 6.875 45.4654C3.08413 45.4654 0 48.5495 0 52.3404C0 56.1312 3.08413 59.2154 6.875 59.2154C10.0159 59.2154 12.6695 57.0975 13.488 54.2154H22C23.0355 54.2154 23.875 53.3759 23.875 52.3404V43.146H30.125V54.4774C27.2429 55.2957 25.125 57.9495 25.125 61.0904C25.125 64.8812 28.2091 67.9654 32 67.9654C35.7909 67.9654 38.875 64.8812 38.875 61.0904C38.875 57.9495 36.7571 55.2959 33.875 54.4774V43.146H40.125V52.3404C40.125 53.3759 40.9645 54.2154 42 54.2154H50.512C51.3304 57.0975 53.9841 59.2154 57.125 59.2154C60.9159 59.2154 64 56.1312 64 52.3404C64 48.5495 60.9159 45.4654 57.125 45.4654ZM6.875 55.4654C5.15188 55.4654 3.75 54.0635 3.75 52.3404C3.75 50.6172 5.15188 49.2154 6.875 49.2154C8.59813 49.2154 10 50.6172 10 52.3404C10 54.0635 8.59813 55.4654 6.875 55.4654ZM35.125 61.0904C35.125 62.8135 33.7231 64.2154 32 64.2154C30.2769 64.2154 28.875 62.8135 28.875 61.0904C28.875 59.3672 30.2769 57.9654 32 57.9654C33.7231 57.9654 35.125 59.3672 35.125 61.0904ZM13.3484 39.396C8.05588 39.396 3.75 35.0902 3.75 29.7976C3.75 25.0672 7.27588 20.9844 11.9513 20.3006C12.9379 20.1564 13.6389 19.2651 13.5469 18.2724C13.5196 17.9766 13.506 17.6798 13.506 17.3829C13.506 12.0905 17.8119 7.78473 23.1044 7.78473C25.9281 7.78473 28.591 9.01223 30.41 11.1525C31.0486 11.9039 32.16 12.0321 32.9531 11.4461C34.9196 9.99261 37.2691 9.22436 39.7476 9.22436C45.4511 9.22436 50.1943 13.4092 51.0809 18.8531C51.1421 19.2291 51.3164 19.5774 51.5806 19.8519C51.8447 20.1263 52.1862 20.3138 52.5595 20.3894C57.0156 21.2915 60.2499 25.2481 60.2499 29.7976C60.2499 35.0902 55.944 39.396 50.6515 39.396H13.3484ZM57.125 55.4654C55.4019 55.4654 54 54.0635 54 52.3404C54 50.6172 55.4019 49.2154 57.125 49.2154C58.8481 49.2154 60.25 50.6172 60.25 52.3404C60.25 54.0635 58.8481 55.4654 57.125 55.4654Z" fill="#3084B6"/>
<defs>
<linearGradient id="paint0_linear_744_1342" x1="23.2008" y1="40.6338" x2="56.0008" y2="-9.76619" gradientUnits="userSpaceOnUse">
<stop offset="0.257999" stop-color="#FBFFE4"/>
<stop offset="1" stop-color="#CFE44A"/>
</linearGradient>
</defs>
</svg>
