<svg width="84" height="67" viewBox="0 0 84 67" fill="none" xmlns="http://www.w3.org/2000/svg">
<path d="M21.0211 29.5982C22.9094 36.0516 28.3521 49.216 37.5493 48.0344C46.7738 46.8491 43.1714 34.9543 51.6158 33.324C55.3331 32.6063 57.8528 39.0399 61.5784 38.8398C66.3766 38.5819 68.8189 33.8323 70.1598 29.8393C73.0028 21.3729 68.7452 7.01638 58.7802 4.52993C50.0843 2.36018 49.0671 12.985 41.5059 9.89889C37.2561 8.16432 37.6807 2.98441 32.5047 1.93921C16.8461 -1.2227 18.5086 21.0111 21.0211 29.5982Z" fill="url(#paint0_linear_744_1328)"/>
<path d="M61.5816 39.8119C60.787 39.8119 60.1406 39.1655 60.1406 38.3709C60.1406 37.5762 60.787 36.9298 61.5816 36.9298C62.3761 36.9298 63.0225 37.5762 63.0225 38.3709C63.0225 39.1655 62.3761 39.8119 61.5816 39.8119ZM61.5816 37.9382C61.343 37.9382 61.1489 38.1323 61.1489 38.371C61.1489 38.6096 61.343 38.8037 61.5816 38.8037C61.8201 38.8037 62.0142 38.6096 62.0142 38.371C62.0142 38.1323 61.8201 37.9382 61.5816 37.9382Z" fill="#25C3C8"/>
<path d="M27.7617 18.3523C27.628 18.3523 27.4998 18.2992 27.4052 18.2047C27.3107 18.1101 27.2576 17.9819 27.2576 17.8482C27.2576 17.5145 26.9862 17.2432 26.6526 17.2432C26.5189 17.2432 26.3906 17.1901 26.2961 17.0956C26.2016 17.001 26.1484 16.8728 26.1484 16.7391C26.1484 16.6054 26.2016 16.4771 26.2961 16.3826C26.3906 16.288 26.5189 16.2349 26.6526 16.2349C26.9862 16.2349 27.2576 15.9636 27.2576 15.6299C27.2576 15.4962 27.3107 15.368 27.4052 15.2735C27.4998 15.1789 27.628 15.1258 27.7617 15.1258C27.8954 15.1258 28.0236 15.1789 28.1182 15.2735C28.2127 15.368 28.2659 15.4962 28.2659 15.6299C28.2659 15.9636 28.5372 16.2349 28.8708 16.2349C29.0045 16.2349 29.1328 16.288 29.2273 16.3826C29.3219 16.4771 29.375 16.6054 29.375 16.7391C29.375 16.8728 29.3219 17.001 29.2273 17.0956C29.1328 17.1901 29.0045 17.2432 28.8708 17.2432C28.5372 17.2432 28.2659 17.5145 28.2659 17.8482C28.2659 17.9819 28.2127 18.1101 28.1182 18.2047C28.0236 18.2992 27.8954 18.3523 27.7617 18.3523ZM63.0251 44.3748C62.8914 44.3748 62.7631 44.3217 62.6686 44.2271C62.5741 44.1326 62.5209 44.0044 62.5209 43.8707C62.5209 43.537 62.2496 43.2657 61.916 43.2657C61.7823 43.2657 61.654 43.2126 61.5595 43.118C61.4649 43.0235 61.4118 42.8952 61.4118 42.7615C61.4118 42.6278 61.4649 42.4996 61.5595 42.405C61.654 42.3105 61.7823 42.2574 61.916 42.2574C62.2496 42.2574 62.5209 41.9861 62.5209 41.6524C62.5209 41.5187 62.5741 41.3905 62.6686 41.2959C62.7631 41.2014 62.8914 41.1483 63.0251 41.1483C63.1588 41.1483 63.287 41.2014 63.3816 41.2959C63.4761 41.3905 63.5292 41.5187 63.5292 41.6524C63.5292 41.9861 63.8006 42.2574 64.1342 42.2574C64.2679 42.2574 64.3962 42.3105 64.4907 42.405C64.5852 42.4996 64.6384 42.6278 64.6384 42.7615C64.6384 42.8952 64.5852 43.0235 64.4907 43.118C64.3962 43.2126 64.2679 43.2657 64.1342 43.2657C63.8006 43.2657 63.5292 43.537 63.5292 43.8707C63.5292 44.0044 63.4761 44.1326 63.3816 44.2271C63.287 44.3217 63.1588 44.3748 63.0251 44.3748Z" fill="#CFE44A"/>
<path d="M80.9934 33.5592C80.939 33.4371 80.9353 33.2983 80.9832 33.1735C81.0311 33.0487 81.1266 32.948 81.2488 32.8936C81.5535 32.7578 81.691 32.3995 81.5552 32.0947C81.5008 31.9726 81.4971 31.8339 81.545 31.709C81.5929 31.5842 81.6884 31.4835 81.8106 31.4291C81.9327 31.3747 82.0714 31.371 82.1963 31.4189C82.3211 31.4668 82.4218 31.5623 82.4762 31.6844C82.612 31.9892 82.9703 32.1266 83.275 31.9909C83.3972 31.9365 83.5359 31.9328 83.6608 31.9807C83.7856 32.0286 83.8863 32.1241 83.9407 32.2462C83.9951 32.3684 83.9988 32.5071 83.9509 32.6319C83.903 32.7568 83.8075 32.8575 83.6854 32.9119C83.3806 33.0477 83.2431 33.4059 83.3789 33.7107C83.4333 33.8328 83.437 33.9716 83.3891 34.0964C83.3412 34.2213 83.2457 34.322 83.1236 34.3764C83.0014 34.4308 82.8627 34.4345 82.7378 34.3866C82.613 34.3387 82.5123 34.2432 82.4579 34.121C82.3221 33.8163 81.9638 33.6788 81.6591 33.8146C81.5369 33.869 81.3982 33.8727 81.2734 33.8248C81.1485 33.7769 81.0478 33.6814 80.9934 33.5592ZM58.1174 2.79568C58.063 2.67354 58.0594 2.5348 58.1073 2.40996C58.1551 2.28512 58.2507 2.18442 58.3728 2.13001C58.6776 1.99423 58.815 1.63597 58.6792 1.3312C58.6248 1.20906 58.6212 1.07031 58.669 0.945476C58.7169 0.820639 58.8125 0.719938 58.9346 0.665527C59.0567 0.611116 59.1955 0.607452 59.3203 0.655341C59.4452 0.703231 59.5459 0.79875 59.6003 0.920886C59.736 1.22566 60.0943 1.36309 60.3991 1.22732C60.5212 1.17291 60.66 1.16924 60.7848 1.21713C60.9096 1.26502 61.0103 1.36054 61.0647 1.48268C61.1192 1.60481 61.1228 1.74356 61.0749 1.8684C61.027 1.99324 60.9315 2.09394 60.8094 2.14835C60.5046 2.28412 60.3672 2.64239 60.503 2.94716C60.5574 3.06929 60.561 3.20804 60.5131 3.33288C60.4652 3.45772 60.3697 3.55842 60.2476 3.61283C60.1255 3.66724 59.9867 3.67091 59.8619 3.62302C59.737 3.57513 59.6363 3.47961 59.5819 3.35747C59.4461 3.0527 59.0879 2.91527 58.7831 3.05104C58.661 3.10545 58.5222 3.10911 58.3974 3.06123C58.2726 3.01334 58.1719 2.91782 58.1174 2.79568Z" fill="#3084B6"/>
<path d="M14.5446 44.468L3.04956 49.449C2.52556 49.675 2.53156 50.031 3.06056 50.243L32.1256 61.868C32.6546 62.08 33.5136 62.08 34.0436 61.868L63.1086 50.243C63.6366 50.031 63.6426 49.675 63.1186 49.449L51.6216 44.468" stroke="#3084B6" stroke-width="4" stroke-miterlimit="10" stroke-linecap="round" stroke-linejoin="round"/>
<path d="M14.5456 30.041L3.04956 35.023C2.52556 35.249 2.53156 35.605 3.06056 35.817L32.1256 47.442C32.6546 47.654 33.5136 47.654 34.0436 47.442L63.1086 35.817C63.6366 35.605 63.6426 35.25 63.1186 35.023L51.6206 30.041" stroke="#3084B6" stroke-width="4" stroke-miterlimit="10" stroke-linecap="round"/>
<path d="M3.06056 21.391L18.2176 27.454L32.1256 33.018C32.6546 33.23 33.5136 33.23 34.0436 33.018L47.9566 27.453L63.1086 21.392C63.6376 21.18 63.6436 20.825 63.1196 20.598L34.0316 7.99299C33.5076 7.76699 32.6596 7.76699 32.1366 7.99299L3.04956 20.597C2.52556 20.825 2.53156 21.18 3.06056 21.391Z" stroke="#3084B6" stroke-width="4" stroke-miterlimit="10" stroke-linecap="round" stroke-linejoin="round"/>
<defs>
<linearGradient id="paint0_linear_744_1328" x1="25.8004" y1="41.2338" x2="58.6004" y2="-9.16621" gradientUnits="userSpaceOnUse">
<stop offset="0.257999" stop-color="#FBFFE4"/>
<stop offset="1" stop-color="#CFE44A"/>
</linearGradient>
</defs>
</svg>
