<svg width="17" height="17" viewBox="0 0 17 17" fill="none" xmlns="http://www.w3.org/2000/svg">
<path fill-rule="evenodd" clip-rule="evenodd" d="M14.9351 6.49827L4.04382 0.973519C3.28608 0.573051 2.36403 0.651929 1.68475 1.17533C1.00547 1.69873 0.693996 2.5703 0.887843 3.40526L1.99856 8.06574C2.07339 8.37285 2.07613 8.69316 2.00656 9.00159L0.975617 13.6817C0.812669 14.3941 1.03408 15.1396 1.55936 15.6472C2.25052 16.3357 3.30971 16.4938 4.17248 16.0372L14.9677 10.3137C15.676 9.93686 16.1159 9.19738 16.1091 8.39537C16.1022 7.59336 15.6497 6.86207 14.9351 6.49827ZM4.00117 7.57041L2.89045 2.90994C2.88816 2.85138 2.93044 2.80051 2.98844 2.79205C3.05996 2.7374 3.12349 2.79981 3.12349 2.79981L14.0148 8.32457L13.9613 8.37906L3.16604 14.1026C3.1011 14.1501 3.01049 14.1391 2.95884 14.0775L4.01654 9.37014C4.13877 8.77582 4.13353 8.1624 4.00117 7.57041Z" fill="white"/>
</svg>
