<svg width="83" height="67" viewBox="0 0 83 67" fill="none" xmlns="http://www.w3.org/2000/svg">
<path d="M20.0211 29.0982C21.9094 35.5516 27.3521 48.716 36.5493 47.5344C45.7738 46.3491 42.1714 34.4543 50.6158 32.824C54.3331 32.1063 56.8528 38.5399 60.5784 38.3398C65.3766 38.0819 67.8189 33.3323 69.1598 29.3393C72.0028 20.8729 67.7452 6.51638 57.7802 4.02993C49.0843 1.86018 48.0671 12.485 40.5059 9.39889C36.2561 7.66432 36.6807 2.48441 31.5047 1.43921C15.8461 -1.7227 17.5086 20.5111 20.0211 29.0982Z" fill="url(#paint0_linear_277_9613)"/>
<path d="M60.5806 39.3119C59.7861 39.3119 59.1396 38.6655 59.1396 37.8709C59.1396 37.0762 59.7861 36.4298 60.5806 36.4298C61.3751 36.4298 62.0216 37.0762 62.0216 37.8709C62.0216 38.6655 61.3751 39.3119 60.5806 39.3119ZM60.5806 37.4382C60.342 37.4382 60.1479 37.6323 60.1479 37.871C60.1479 38.1096 60.342 38.3037 60.5806 38.3037C60.8192 38.3037 61.0133 38.1096 61.0133 37.871C61.0133 37.6323 60.8192 37.4382 60.5806 37.4382Z" fill="#25C3C8"/>
<path d="M26.7607 17.8523C26.627 17.8523 26.4988 17.7992 26.4042 17.7046C26.3097 17.6101 26.2566 17.4818 26.2566 17.3481C26.2566 17.0145 25.9853 16.7432 25.6516 16.7432C25.5179 16.7432 25.3897 16.69 25.2951 16.5955C25.2006 16.5009 25.1475 16.3727 25.1475 16.239C25.1475 16.1053 25.2006 15.9771 25.2951 15.8825C25.3897 15.788 25.5179 15.7349 25.6516 15.7349C25.9853 15.7349 26.2566 15.4635 26.2566 15.1299C26.2566 14.9962 26.3097 14.8679 26.4042 14.7734C26.4988 14.6788 26.627 14.6257 26.7607 14.6257C26.8944 14.6257 27.0227 14.6788 27.1172 14.7734C27.2118 14.8679 27.2649 14.9962 27.2649 15.1299C27.2649 15.4635 27.5362 15.7349 27.8699 15.7349C28.0036 15.7349 28.1318 15.788 28.2263 15.8825C28.3209 15.9771 28.374 16.1053 28.374 16.239C28.374 16.3727 28.3209 16.5009 28.2263 16.5955C28.1318 16.69 28.0036 16.7432 27.8699 16.7432C27.5362 16.7432 27.2649 17.0145 27.2649 17.3481C27.2649 17.4818 27.2118 17.6101 27.1172 17.7046C27.0227 17.7992 26.8944 17.8523 26.7607 17.8523ZM62.0241 43.8747C61.8904 43.8747 61.7622 43.8216 61.6676 43.7271C61.5731 43.6325 61.52 43.5043 61.52 43.3706C61.52 43.037 61.2486 42.7656 60.915 42.7656C60.7813 42.7656 60.653 42.7125 60.5585 42.618C60.464 42.5234 60.4108 42.3952 60.4108 42.2615C60.4108 42.1278 60.464 41.9995 60.5585 41.905C60.653 41.8104 60.7813 41.7573 60.915 41.7573C61.2486 41.7573 61.52 41.486 61.52 41.1523C61.52 41.0186 61.5731 40.8904 61.6676 40.7959C61.7622 40.7013 61.8904 40.6482 62.0241 40.6482C62.1578 40.6482 62.2861 40.7013 62.3806 40.7959C62.4751 40.8904 62.5283 41.0186 62.5283 41.1523C62.5283 41.486 62.7996 41.7573 63.1332 41.7573C63.2669 41.7573 63.3952 41.8104 63.4897 41.905C63.5843 41.9995 63.6374 42.1278 63.6374 42.2615C63.6374 42.3952 63.5843 42.5234 63.4897 42.618C63.3952 42.7125 63.2669 42.7656 63.1332 42.7656C62.7996 42.7656 62.5283 43.037 62.5283 43.3706C62.5283 43.5043 62.4751 43.6325 62.3806 43.7271C62.2861 43.8216 62.1578 43.8747 62.0241 43.8747Z" fill="#CFE44A"/>
<path d="M79.9924 33.0592C79.938 32.9371 79.9344 32.7983 79.9822 32.6735C80.0301 32.5487 80.1257 32.448 80.2478 32.3936C80.5526 32.2578 80.69 31.8995 80.5542 31.5947C80.4998 31.4726 80.4961 31.3339 80.544 31.209C80.5919 31.0842 80.6874 30.9835 80.8096 30.9291C80.9317 30.8747 81.0705 30.871 81.1953 30.9189C81.3201 30.9668 81.4208 31.0623 81.4753 31.1844C81.611 31.4892 81.9693 31.6266 82.2741 31.4909C82.3962 31.4365 82.5349 31.4328 82.6598 31.4807C82.7846 31.5286 82.8853 31.6241 82.9397 31.7462C82.9941 31.8684 82.9978 32.0071 82.9499 32.1319C82.902 32.2568 82.8065 32.3575 82.6844 32.4119C82.3796 32.5477 82.2422 32.9059 82.3779 33.2107C82.4324 33.3328 82.436 33.4716 82.3881 33.5964C82.3402 33.7213 82.2447 33.822 82.1226 33.8764C82.0004 33.9308 81.8617 33.9345 81.7369 33.8866C81.612 33.8387 81.5113 33.7432 81.4569 33.621C81.3211 33.3163 80.9629 33.1788 80.6581 33.3146C80.536 33.369 80.3972 33.3727 80.2724 33.3248C80.1475 33.2769 80.0468 33.1814 79.9924 33.0592ZM57.1165 2.29568C57.0621 2.17354 57.0584 2.0348 57.1063 1.90996C57.1542 1.78512 57.2497 1.68442 57.3718 1.63001C57.6766 1.49423 57.814 1.13597 57.6783 0.831199C57.6238 0.709063 57.6202 0.570314 57.6681 0.445476C57.716 0.320639 57.8115 0.219938 57.9336 0.165527C58.0558 0.111116 58.1945 0.107452 58.3193 0.155341C58.4442 0.203231 58.5449 0.29875 58.5993 0.420886C58.7351 0.725656 59.0933 0.86309 59.3981 0.727317C59.5202 0.672906 59.659 0.669243 59.7838 0.717132C59.9087 0.765021 60.0094 0.86054 60.0638 0.982676C60.1182 1.10481 60.1218 1.24356 60.074 1.3684C60.0261 1.49324 59.9305 1.59394 59.8084 1.64835C59.5036 1.78412 59.3662 2.14239 59.502 2.44716C59.5564 2.56929 59.5601 2.70804 59.5122 2.83288C59.4643 2.95772 59.3688 3.05842 59.2466 3.11283C59.1245 3.16724 58.9857 3.17091 58.8609 3.12302C58.7361 3.07513 58.6354 2.97961 58.5809 2.85747C58.4452 2.5527 58.0869 2.41527 57.7821 2.55104C57.66 2.60545 57.5213 2.60911 57.3964 2.56123C57.2716 2.51334 57.1709 2.41782 57.1165 2.29568Z" fill="#3084B6"/>
<g clip-path="url(#clip0_277_9613)">
<path d="M53.7474 29.282C53.1743 28.7363 52.4133 28.4322 51.622 28.4325C50.8307 28.4329 50.0699 28.7378 49.4974 29.284L45.9674 32.822L33.2464 20.092L36.7764 16.56C37.3389 15.9963 37.6548 15.2324 37.6548 14.436C37.6548 13.6396 37.3389 12.8757 36.7764 12.312L27.5704 3.105C27.0033 2.5538 26.2427 2.24685 25.4519 2.25002C24.6611 2.2532 23.903 2.56626 23.3404 3.122C16.4164 8.802 15.4064 19.309 21.9004 25.72L24.0064 27.826H4.19238C3.13192 27.8273 2.11528 28.2492 1.36542 28.999C0.615558 29.7489 0.193706 30.7655 0.192383 31.826V54.826C0.193706 55.8865 0.615558 56.9031 1.36542 57.653C2.11528 58.4028 3.13192 58.8247 4.19238 58.826H24.2044L28.4094 64.326C28.8235 64.8707 29.3843 65.2861 30.0261 65.5234C30.6679 65.7607 31.364 65.8102 32.0329 65.666C32.7018 65.5218 33.3157 65.1899 33.8027 64.7092C34.2896 64.2285 34.6295 63.619 34.7824 62.952L35.7274 58.826H39.2034C40.2591 58.8211 41.2705 58.4009 42.019 57.6564C42.7674 56.9118 43.1929 55.9027 43.2034 54.847L43.2504 46.409C45.5675 47.7971 48.2173 48.5318 50.9184 48.535C55.4434 48.646 59.8654 46.267 62.9374 42.721C63.4953 42.1548 63.8081 41.3919 63.8081 40.597C63.8081 39.8021 63.4953 39.0392 62.9374 38.473L53.7474 29.282ZM34.1324 54.826C33.6794 54.8259 33.2398 54.9796 32.8856 55.2619C32.5313 55.5442 32.2834 55.9384 32.1824 56.38L31.0744 61.225L26.7814 55.612C26.5948 55.3677 26.3543 55.1696 26.0787 55.0333C25.8031 54.897 25.4998 54.8261 25.1924 54.826H4.19238V31.826H28.0044L39.2684 43.09L39.2034 54.826H34.1324ZM58.6704 41.332C56.6114 43.3815 53.8245 44.5321 50.9194 44.5321C48.0142 44.5321 45.2274 43.3815 43.1684 41.332L24.7284 22.892C23.6567 21.8054 22.8211 20.5091 22.2741 19.0844C21.7271 17.6597 21.4804 16.1373 21.5495 14.6127C21.6186 13.0882 22.002 11.5943 22.6757 10.2249C23.3494 8.85554 24.2988 7.64015 25.4644 6.655L33.2454 14.436L29.7284 17.954C29.4458 18.2312 29.221 18.5616 29.067 18.9262C28.913 19.2907 28.8327 19.6823 28.831 20.078C28.8292 20.4738 28.9059 20.866 29.0567 21.232C29.2075 21.5979 29.4293 21.9303 29.7094 22.21L43.8494 36.36V36.362C44.4125 36.9229 45.1752 37.2376 45.97 37.237C46.7648 37.2365 47.527 36.9207 48.0894 36.359L51.6254 32.816L59.4054 40.596L58.6704 41.332Z" fill="#3084B6"/>
<path d="M10.1934 39.826C11.2979 39.826 12.1934 38.9306 12.1934 37.826C12.1934 36.7215 11.2979 35.826 10.1934 35.826C9.08879 35.826 8.19336 36.7215 8.19336 37.826C8.19336 38.9306 9.08879 39.826 10.1934 39.826Z" fill="#3084B6"/>
</g>
<defs>
<linearGradient id="paint0_linear_277_9613" x1="24.8004" y1="40.7338" x2="57.6004" y2="-9.66621" gradientUnits="userSpaceOnUse">
<stop offset="0.257999" stop-color="#FBFFE4"/>
<stop offset="1" stop-color="#CFE44A"/>
</linearGradient>
<clipPath id="clip0_277_9613">
<rect width="64" height="64" fill="white" transform="translate(0 2)"/>
</clipPath>
</defs>
</svg>
