<svg width="83" height="67" viewBox="0 0 83 67" fill="none" xmlns="http://www.w3.org/2000/svg">
<path d="M20.0211 29.5982C21.9094 36.0516 27.3521 49.216 36.5493 48.0344C45.7738 46.8491 42.1714 34.9543 50.6158 33.324C54.3331 32.6063 56.8528 39.0399 60.5784 38.8398C65.3766 38.5819 67.8189 33.8323 69.1598 29.8393C72.0028 21.3729 67.7452 7.01638 57.7802 4.52993C49.0843 2.36018 48.0671 12.985 40.5059 9.89889C36.2561 8.16432 36.6807 2.98441 31.5047 1.93921C15.8461 -1.2227 17.5086 21.0111 20.0211 29.5982Z" fill="url(#paint0_linear_744_9442)"/>
<path d="M60.5816 39.812C59.787 39.812 59.1406 39.1656 59.1406 38.371C59.1406 37.5763 59.787 36.9299 60.5816 36.9299C61.3761 36.9299 62.0225 37.5763 62.0225 38.371C62.0225 39.1656 61.3761 39.812 60.5816 39.812ZM60.5816 37.9383C60.343 37.9383 60.1489 38.1324 60.1489 38.3711C60.1489 38.6098 60.343 38.8038 60.5816 38.8038C60.8201 38.8038 61.0142 38.6098 61.0142 38.3711C61.0142 38.1324 60.8201 37.9383 60.5816 37.9383Z" fill="#25C3C8"/>
<path d="M26.7617 18.3525C26.628 18.3525 26.4998 18.2994 26.4052 18.2049C26.3107 18.1103 26.2576 17.9821 26.2576 17.8484C26.2576 17.5147 25.9862 17.2434 25.6526 17.2434C25.5189 17.2434 25.3906 17.1903 25.2961 17.0957C25.2016 17.0012 25.1484 16.873 25.1484 16.7392C25.1484 16.6055 25.2016 16.4773 25.2961 16.3828C25.3906 16.2882 25.5189 16.2351 25.6526 16.2351C25.9862 16.2351 26.2576 15.9638 26.2576 15.6301C26.2576 15.4964 26.3107 15.3682 26.4052 15.2736C26.4998 15.1791 26.628 15.126 26.7617 15.126C26.8954 15.126 27.0236 15.1791 27.1182 15.2736C27.2127 15.3682 27.2659 15.4964 27.2659 15.6301C27.2659 15.9638 27.5372 16.2351 27.8708 16.2351C28.0045 16.2351 28.1328 16.2882 28.2273 16.3828C28.3219 16.4773 28.375 16.6055 28.375 16.7392C28.375 16.873 28.3219 17.0012 28.2273 17.0957C28.1328 17.1903 28.0045 17.2434 27.8708 17.2434C27.5372 17.2434 27.2659 17.5147 27.2659 17.8484C27.2659 17.9821 27.2127 18.1103 27.1182 18.2049C27.0236 18.2994 26.8954 18.3525 26.7617 18.3525ZM62.0251 44.375C61.8914 44.375 61.7632 44.3219 61.6686 44.2273C61.5741 44.1328 61.5209 44.0045 61.5209 43.8708C61.5209 43.5372 61.2496 43.2659 60.916 43.2659C60.7823 43.2659 60.654 43.2127 60.5595 43.1182C60.4649 43.0237 60.4118 42.8954 60.4118 42.7617C60.4118 42.628 60.4649 42.4998 60.5595 42.4052C60.654 42.3107 60.7823 42.2576 60.916 42.2576C61.2496 42.2576 61.5209 41.9862 61.5209 41.6526C61.5209 41.5189 61.5741 41.3907 61.6686 41.2961C61.7632 41.2016 61.8914 41.1484 62.0251 41.1484C62.1588 41.1484 62.287 41.2016 62.3816 41.2961C62.4761 41.3907 62.5292 41.5189 62.5292 41.6526C62.5292 41.9862 62.8006 42.2576 63.1342 42.2576C63.2679 42.2576 63.3962 42.3107 63.4907 42.4052C63.5852 42.4998 63.6384 42.628 63.6384 42.7617C63.6384 42.8954 63.5852 43.0237 63.4907 43.1182C63.3962 43.2127 63.2679 43.2659 63.1342 43.2659C62.8006 43.2659 62.5292 43.5372 62.5292 43.8708C62.5292 44.0045 62.4761 44.1328 62.3816 44.2273C62.287 44.3219 62.1588 44.375 62.0251 44.375Z" fill="#CFE44A"/>
<path d="M79.9934 33.5594C79.939 33.4372 79.9353 33.2985 79.9832 33.1736C80.0311 33.0488 80.1266 32.9481 80.2488 32.8937C80.5535 32.7579 80.691 32.3996 80.5552 32.0949C80.5008 31.9727 80.4971 31.834 80.545 31.7091C80.5929 31.5843 80.6884 31.4836 80.8106 31.4292C80.9327 31.3748 81.0714 31.3711 81.1963 31.419C81.3211 31.4669 81.4218 31.5624 81.4762 31.6846C81.612 31.9893 81.9703 32.1268 82.275 31.991C82.3972 31.9366 82.5359 31.9329 82.6608 31.9808C82.7856 32.0287 82.8863 32.1242 82.9407 32.2463C82.9951 32.3685 82.9988 32.5072 82.9509 32.6321C82.903 32.7569 82.8075 32.8576 82.6853 32.912C82.3806 33.0478 82.2431 33.4061 82.3789 33.7108C82.4333 33.833 82.437 33.9717 82.3891 34.0966C82.3412 34.2214 82.2457 34.3221 82.1236 34.3765C82.0014 34.4309 81.8627 34.4346 81.7378 34.3867C81.613 34.3388 81.5123 34.2433 81.4579 34.1211C81.3221 33.8164 80.9638 33.6789 80.6591 33.8147C80.5369 33.8691 80.3982 33.8728 80.2734 33.8249C80.1485 33.777 80.0478 33.6815 79.9934 33.5594ZM57.1174 2.7958C57.063 2.67367 57.0594 2.53492 57.1073 2.41008C57.1551 2.28524 57.2507 2.18454 57.3728 2.13013C57.6776 1.99436 57.815 1.63609 57.6792 1.33132C57.6248 1.20919 57.6212 1.07044 57.669 0.945599C57.7169 0.820761 57.8125 0.72006 57.9346 0.665649C58.0567 0.611238 58.1955 0.607574 58.3203 0.655463C58.4452 0.703353 58.5459 0.798872 58.6003 0.921008C58.736 1.22578 59.0943 1.36321 59.3991 1.22744C59.5212 1.17303 59.66 1.16937 59.7848 1.21725C59.9096 1.26514 60.0103 1.36066 60.0647 1.4828C60.1192 1.60493 60.1228 1.74368 60.0749 1.86852C60.027 1.99336 59.9315 2.09406 59.8094 2.14847C59.5046 2.28424 59.3672 2.64251 59.503 2.94728C59.5574 3.06942 59.561 3.20816 59.5131 3.333C59.4652 3.45784 59.3697 3.55854 59.2476 3.61295C59.1255 3.66736 58.9867 3.67103 58.8619 3.62314C58.737 3.57525 58.6363 3.47973 58.5819 3.35759C58.4461 3.05282 58.0879 2.91539 57.7831 3.05116C57.661 3.10557 57.5222 3.10924 57.3974 3.06135C57.2726 3.01346 57.1719 2.91794 57.1174 2.7958Z" fill="white"/>
<path d="M3.44873 36.8853L14.1154 47.5519C14.3614 47.8066 14.6556 48.0098 14.981 48.1495C15.3063 48.2893 15.6563 48.3629 16.0103 48.366C16.3644 48.369 16.7156 48.3016 17.0433 48.1675C17.371 48.0334 17.6687 47.8354 17.9191 47.585C18.1695 47.3346 18.3675 47.0369 18.5016 46.7092C18.6357 46.3814 18.7031 46.0303 18.7001 45.6762C18.697 45.3221 18.6234 44.9722 18.4837 44.6469C18.3439 44.3215 18.1408 44.0273 17.8861 43.7813L9.10473 34.9999L17.8861 26.2186C18.1408 25.9726 18.3439 25.6784 18.4837 25.353C18.6234 25.0277 18.697 24.6778 18.7001 24.3237C18.7031 23.9696 18.6357 23.6185 18.5016 23.2907C18.3675 22.963 18.1695 22.6653 17.9191 22.4149C17.6687 22.1645 17.371 21.9665 17.0433 21.8324C16.7156 21.6983 16.3644 21.6309 16.0103 21.6339C15.6563 21.637 15.3063 21.7106 14.981 21.8503C14.6556 21.9901 14.3614 22.1933 14.1154 22.4479L3.44873 33.1146C2.94881 33.6147 2.66797 34.2928 2.66797 34.9999C2.66797 35.7071 2.94881 36.3852 3.44873 36.8853ZM49.8861 22.4479C49.6401 22.1933 49.3458 21.9901 49.0205 21.8503C48.6951 21.7106 48.3452 21.637 47.9911 21.6339C47.6371 21.6309 47.2859 21.6983 46.9582 21.8324C46.6305 21.9665 46.3327 22.1645 46.0823 22.4149C45.832 22.6653 45.634 22.963 45.4999 23.2907C45.3658 23.6185 45.2983 23.9696 45.3014 24.3237C45.3045 24.6778 45.378 25.0277 45.5178 25.353C45.6576 25.6784 45.8607 25.9726 46.1154 26.2186L54.8967 34.9999L46.1154 43.7813C45.8607 44.0273 45.6576 44.3215 45.5178 44.6469C45.378 44.9722 45.3045 45.3221 45.3014 45.6762C45.2983 46.0303 45.3658 46.3814 45.4999 46.7092C45.634 47.0369 45.832 47.3346 46.0823 47.585C46.3327 47.8354 46.6305 48.0334 46.9582 48.1675C47.2859 48.3016 47.6371 48.369 47.9911 48.366C48.3452 48.3629 48.6951 48.2893 49.0205 48.1495C49.3458 48.0098 49.6401 47.8066 49.8861 47.5519L60.5527 36.8853C61.0527 36.3852 61.3335 35.7071 61.3335 34.9999C61.3335 34.2928 61.0527 33.6147 60.5527 33.1146L49.8861 22.4479ZM34.7714 15.6026L24.1047 52.9359C23.9106 53.6156 23.9942 54.3445 24.3372 54.9626C24.6802 55.5806 25.2546 56.0372 25.9341 56.2319C26.173 56.2979 26.4196 56.332 26.6674 56.3333C27.2469 56.3329 27.8105 56.1437 28.2729 55.7944C28.7353 55.445 29.0713 54.9546 29.2301 54.3973L39.8967 17.0639C40.0079 16.723 40.0492 16.3632 40.0181 16.0059C39.987 15.6487 39.8841 15.3014 39.7157 14.9848C39.5473 14.6682 39.3167 14.3888 39.0379 14.1634C38.759 13.938 38.4375 13.7711 38.0926 13.6728C37.7478 13.5744 37.3866 13.5467 37.0308 13.5911C36.675 13.6356 36.3318 13.7514 36.0217 13.9315C35.7116 14.1117 35.4411 14.3526 35.2263 14.6397C35.0115 14.9268 34.8567 15.2543 34.7714 15.6026Z" fill="white"/>
<defs>
<linearGradient id="paint0_linear_744_9442" x1="24.8004" y1="41.2338" x2="57.6004" y2="-9.16621" gradientUnits="userSpaceOnUse">
<stop offset="0.257999" stop-color="#FBFFE4" stop-opacity="0"/>
<stop offset="1" stop-color="#CFE44A"/>
</linearGradient>
</defs>
</svg>
