<svg width="32" height="33" viewBox="0 0 32 33" fill="none" xmlns="http://www.w3.org/2000/svg">
<rect x="0.5" y="0.775879" width="31" height="31" rx="15.5" stroke="white"/>
<path fill-rule="evenodd" clip-rule="evenodd" d="M14.0831 16.3744C14.0831 15.3449 14.878 14.5102 15.8586 14.5102C16.8391 14.5102 17.634 15.3449 17.634 16.3744C17.634 17.404 16.8391 18.2387 15.8586 18.2387C14.878 18.2387 14.0831 17.404 14.0831 16.3744ZM15.241 16.3744C15.241 16.7326 15.5175 17.0229 15.8586 17.0229C16.1996 17.0229 16.4761 16.7326 16.4761 16.3744C16.4761 16.0163 16.1996 15.726 15.8586 15.726C15.5175 15.726 15.241 16.0163 15.241 16.3744Z" fill="white"/>
<path fill-rule="evenodd" clip-rule="evenodd" d="M19.4943 12.9459L22.721 15.6531C22.9297 15.8284 23.0511 16.0938 23.0511 16.3744C23.0511 16.6551 22.9297 16.9205 22.721 17.0958L19.4943 19.803C17.3677 21.5854 14.3494 21.5854 12.2228 19.803L8.9961 17.0958C8.78746 16.9205 8.66602 16.6551 8.66602 16.3744C8.66602 16.0938 8.78746 15.8284 8.9961 15.6531L12.2228 12.9459C14.3494 11.1635 17.3677 11.1635 19.4943 12.9459ZM12.9407 18.8952C14.6485 20.3224 17.0686 20.3224 18.7764 18.8952L21.7252 16.3744L18.7764 13.8942C17.0686 12.467 14.6485 12.467 12.9407 13.8942L9.99189 16.3744L12.9407 18.8952Z" fill="white"/>
<path fill-rule="evenodd" clip-rule="evenodd" d="M14.0831 16.3744C14.0831 15.3449 14.878 14.5102 15.8586 14.5102C16.8391 14.5102 17.634 15.3449 17.634 16.3744C17.634 17.404 16.8391 18.2387 15.8586 18.2387C14.878 18.2387 14.0831 17.404 14.0831 16.3744ZM15.241 16.3744C15.241 16.7326 15.5175 17.0229 15.8586 17.0229C16.1996 17.0229 16.4761 16.7326 16.4761 16.3744C16.4761 16.0163 16.1996 15.726 15.8586 15.726C15.5175 15.726 15.241 16.0163 15.241 16.3744Z" stroke="white" stroke-width="0.5"/>
<path fill-rule="evenodd" clip-rule="evenodd" d="M19.4943 12.9459L22.721 15.6531C22.9297 15.8284 23.0511 16.0938 23.0511 16.3744C23.0511 16.6551 22.9297 16.9205 22.721 17.0958L19.4943 19.803C17.3677 21.5854 14.3494 21.5854 12.2228 19.803L8.9961 17.0958C8.78746 16.9205 8.66602 16.6551 8.66602 16.3744C8.66602 16.0938 8.78746 15.8284 8.9961 15.6531L12.2228 12.9459C14.3494 11.1635 17.3677 11.1635 19.4943 12.9459ZM12.9407 18.8952C14.6485 20.3224 17.0686 20.3224 18.7764 18.8952L21.7252 16.3744L18.7764 13.8942C17.0686 12.467 14.6485 12.467 12.9407 13.8942L9.99189 16.3744L12.9407 18.8952Z" stroke="white" stroke-width="0.5"/>
</svg>
