<svg width="32" height="32" viewBox="0 0 32 32" fill="none" xmlns="http://www.w3.org/2000/svg">
<path d="M22.3574 23.7632C22.7716 23.7632 23.1074 23.4274 23.1074 23.0132C23.1074 22.599 22.7716 22.2632 22.3574 22.2632C21.9432 22.2632 21.6074 22.599 21.6074 23.0132C21.6074 23.4274 21.9432 23.7632 22.3574 23.7632Z" fill="#222831"/>
<path d="M22.3574 15.9871C22.7716 15.9871 23.1074 15.6513 23.1074 15.2371C23.1074 14.8228 22.7716 14.4871 22.3574 14.4871C21.9432 14.4871 21.6074 14.8228 21.6074 15.2371C21.6074 15.6513 21.9432 15.9871 22.3574 15.9871Z" fill="#CFE44A"/>
<path d="M24.8613 23.7632C25.2755 23.7632 25.6113 23.4274 25.6113 23.0132C25.6113 22.599 25.2755 22.2632 24.8613 22.2632C24.4471 22.2632 24.1113 22.599 24.1113 23.0132C24.1113 23.4274 24.4471 23.7632 24.8613 23.7632Z" fill="#CFE44A"/>
<path d="M22.5459 11.7429H19.0469C18.6327 11.7429 18.2969 12.0787 18.2969 12.4929C18.2969 12.9071 18.6327 13.2429 19.0469 13.2429H22.5459C22.9601 13.2429 23.2959 12.9071 23.2959 12.4929C23.2959 12.0787 22.9601 11.7429 22.5459 11.7429Z" fill="#222831"/>
<path d="M10.7634 25.334C9.28243 25.826 7.77143 25.082 7.17343 23.873C7.11314 23.7543 7.08418 23.6221 7.08928 23.489C7.09439 23.356 7.13339 23.2264 7.2026 23.1126C7.27181 22.9988 7.36893 22.9046 7.48475 22.8389C7.60057 22.7732 7.73127 22.7381 7.86443 22.737H8.02144C8.32444 22.737 8.56443 22.944 8.68243 23.223C8.87243 23.672 9.31744 23.988 9.83443 23.988C10.1547 23.9821 10.4604 23.8535 10.6887 23.6288C10.917 23.4041 11.0504 23.1004 11.0614 22.7803C11.0724 22.4602 10.9602 22.1481 10.748 21.9082C10.5357 21.6683 10.2395 21.519 9.92043 21.491C8.69443 21.408 7.54443 20.733 7.20243 19.552C7.0766 19.1402 7.04893 18.7047 7.12164 18.2803C7.19434 17.8559 7.36541 17.4544 7.62114 17.108C7.87687 16.7616 8.21016 16.4799 8.59433 16.2854C8.97849 16.0909 9.40285 15.9891 9.83343 15.988C11.0124 15.988 12.0674 16.734 12.4784 17.777C12.6604 18.238 12.2994 18.738 11.8034 18.737H11.6464C11.3434 18.737 11.1044 18.529 10.9864 18.251C10.874 17.9857 10.6734 17.7673 10.4184 17.6329C10.1635 17.4984 9.86992 17.4562 9.58744 17.5134C9.30497 17.5706 9.05092 17.7236 8.86832 17.9466C8.68573 18.1696 8.58579 18.4488 8.58544 18.737C8.58544 19.425 9.14644 19.988 9.83544 19.988C10.2683 19.9888 10.6948 20.0915 11.0806 20.2877C11.4664 20.484 11.8006 20.7682 12.0562 21.1176C12.3118 21.4669 12.4815 21.8715 12.5517 22.2985C12.622 22.7256 12.5907 23.1633 12.4604 23.576C12.3376 23.9825 12.1198 24.3539 11.8251 24.6596C11.5304 24.9653 11.1671 25.1964 10.7654 25.334H10.7634Z" fill="#3084B6"/>
<path d="M9.08498 16.737V15.566C9.08117 15.4652 9.0977 15.3648 9.13359 15.2706C9.16947 15.1764 9.22397 15.0904 9.29384 15.0178C9.3637 14.9451 9.44749 14.8873 9.54021 14.8477C9.63292 14.8082 9.73265 14.7877 9.83345 14.7876C9.93424 14.7875 10.034 14.8076 10.1268 14.8469C10.2197 14.8862 10.3036 14.9438 10.3737 15.0163C10.4437 15.0888 10.4985 15.1746 10.5346 15.2687C10.5707 15.3628 10.5875 15.4632 10.584 15.564V16.735H9.08498V16.737ZM9.83398 26.737C9.63507 26.737 9.44431 26.6579 9.30365 26.5173C9.163 26.3766 9.08398 26.1859 9.08398 25.987V24.737H10.584V25.987C10.584 26.1859 10.505 26.3766 10.3643 26.5173C10.2237 26.6579 10.0329 26.737 9.83398 26.737Z" fill="#3084B6"/>
<path d="M9.84461 30.749C9.47261 30.749 9.09661 30.725 8.71961 30.674C4.86561 30.161 1.90661 26.854 1.68061 22.81L1.29361 15.853C1.25061 15.073 1.74461 14.379 2.52461 14.128C2.88068 14.0122 3.2024 13.8097 3.4609 13.5389C3.71939 13.268 3.90657 12.9371 4.00561 12.576C4.21661 11.782 4.88561 11.249 5.66861 11.249H13.9956C14.7786 11.249 15.4466 11.782 15.6586 12.576C15.7578 12.9372 15.9452 13.2681 16.2039 13.539C16.4625 13.8098 16.7844 14.0123 17.1406 14.128C17.9176 14.379 18.4126 15.071 18.3706 15.851L17.9706 23.052C17.9065 24.1736 17.612 25.2699 17.1055 26.2726C16.599 27.2753 15.8913 28.1629 15.0266 28.88C13.5721 30.0918 11.7378 30.7535 9.84461 30.749ZM5.66961 12.749C5.55461 12.749 5.48261 12.864 5.45661 12.963C5.29582 13.5679 4.98525 14.1225 4.55356 14.5757C4.12187 15.0289 3.58297 15.366 2.98661 15.556C2.91161 15.58 2.78661 15.652 2.79361 15.769L3.18061 22.726C3.36561 26.052 5.77861 28.77 8.91961 29.188C10.7986 29.438 12.6276 28.918 14.0706 27.724C14.7764 27.139 15.354 26.4147 15.7673 25.5964C16.1806 24.7781 16.4207 23.8833 16.4726 22.968L16.8726 15.769C16.8786 15.66 16.7726 15.586 16.6796 15.556C16.0831 15.3662 15.544 15.0291 15.1121 14.5759C14.6802 14.1227 14.3695 13.568 14.2086 12.963C14.1826 12.864 14.1106 12.749 13.9956 12.749H5.66961Z" fill="#3084B6"/>
<path d="M22.995 20.75L20.25 20.748C20.1516 20.7479 20.0541 20.7283 19.9631 20.6905C19.8722 20.6527 19.7896 20.5974 19.72 20.5276C19.6505 20.4579 19.5953 20.3751 19.5578 20.2841C19.5202 20.193 19.5009 20.0955 19.501 19.997C19.5012 19.8985 19.5207 19.801 19.5585 19.7101C19.5963 19.6191 19.6517 19.5365 19.7214 19.467C19.7912 19.3974 19.8739 19.3423 19.965 19.3047C20.056 19.2671 20.1536 19.2479 20.252 19.248L22.997 19.25C23.5936 19.2489 24.1655 19.0116 24.5876 18.5899C25.0096 18.1683 25.2475 17.5966 25.249 17V5C25.249 4.40326 25.012 3.83097 24.59 3.40901C24.1681 2.98705 23.5958 2.75 22.999 2.75H4.99805C4.40131 2.75 3.82901 2.98705 3.40706 3.40901C2.9851 3.83097 2.74805 4.40326 2.74805 5V11.502C2.74805 11.7009 2.66903 11.8917 2.52838 12.0323C2.38772 12.173 2.19696 12.252 1.99805 12.252C1.79913 12.252 1.60837 12.173 1.46772 12.0323C1.32706 11.8917 1.24805 11.7009 1.24805 11.502V5C1.24805 4.00544 1.64314 3.05161 2.3464 2.34835C3.04966 1.64509 4.00348 1.25 4.99805 1.25H22.998C23.9926 1.25 24.9464 1.64509 25.6497 2.34835C26.353 3.05161 26.748 4.00544 26.748 5V17C26.7454 17.9943 26.3491 18.947 25.6457 19.6498C24.9424 20.3526 23.9893 20.7482 22.995 20.75Z" fill="#222831" stroke="#222831"/>
<path d="M26.998 26.75H19.748C19.5491 26.75 19.3584 26.671 19.2177 26.5303C19.0771 26.3897 18.998 26.1989 18.998 26C18.998 25.8011 19.0771 25.6103 19.2177 25.4697C19.3584 25.329 19.5491 25.25 19.748 25.25H26.998C27.5948 25.25 28.1671 25.0129 28.589 24.591C29.011 24.169 29.248 23.5967 29.248 23V11C29.248 10.4033 29.011 9.83097 28.589 9.40901C28.1671 8.98705 27.5948 8.75 26.998 8.75H25.998V7.25H26.998C27.9926 7.25 28.9464 7.64509 29.6497 8.34835C30.353 9.05161 30.748 10.0054 30.748 11V23C30.748 23.9946 30.353 24.9484 29.6497 25.6517C28.9464 26.3549 27.9926 26.75 26.998 26.75Z" fill="#222831" stroke="#222831"/>
<path d="M2.01953 6.25098H25.9755V7.75098H2.01953V6.25098ZM25.9755 12.684H29.9985V14.184H25.9755V12.684Z" fill="#222831" stroke="#222831"/>
</svg>
