<svg width="112" height="112" viewBox="0 0 112 112" fill="none" xmlns="http://www.w3.org/2000/svg">
<path d="M75.6875 69.7812C74.4796 69.7812 73.5 70.7606 73.5 71.9688V87.0625C73.5 93.0934 68.5934 98 62.5625 98H38.9445C37.7368 98 36.7579 98.9785 36.757 100.186L36.7539 104.535L31.5328 99.3142C31.3627 98.9237 31.0822 98.5913 30.7258 98.3578C30.3695 98.1243 29.9527 98 29.5267 98H15.3125C9.28156 98 4.375 93.0934 4.375 87.0625V53.375C4.375 47.3441 9.28156 42.4375 15.3125 42.4375H37.4062C38.6142 42.4375 39.5938 41.4582 39.5938 40.25C39.5938 39.0418 38.6142 38.0625 37.4062 38.0625H15.3125C6.86919 38.0625 0 44.9317 0 53.375V87.0625C0 95.5058 6.86919 102.375 15.3125 102.375H28.4064L37.3907 111.359C37.6965 111.665 38.0861 111.873 38.5103 111.958C38.9345 112.042 39.3742 111.999 39.7738 111.834C40.1735 111.668 40.5151 111.388 40.7556 111.029C40.9961 110.669 41.1247 110.247 41.125 109.814L41.1302 102.375H62.5625C71.0058 102.375 77.875 95.5058 77.875 87.0625V71.9688C77.875 70.7606 76.8954 69.7812 75.6875 69.7812Z" fill="#222831"/>
<path d="M80.2058 0H74.6694C57.1379 0 42.875 14.2629 42.875 31.7944C42.875 49.3259 57.1379 63.5887 74.6692 63.5887H80.2056C82.9419 63.5887 85.6503 63.2411 88.2753 62.5542L96.4537 70.728C96.7596 71.0338 97.1494 71.242 97.5737 71.3263C97.998 71.4106 98.4378 71.3672 98.8374 71.2016C99.237 71.036 99.5786 70.7557 99.8189 70.396C100.059 70.0362 100.187 69.6134 100.188 69.1808V56.5248C103.65 53.7206 106.526 50.1784 108.545 46.2212C110.838 41.7268 112 36.8729 112 31.7944C112 14.2629 97.7371 0 80.2058 0ZM96.6838 53.7108C96.4132 53.9147 96.1936 54.1787 96.0424 54.4819C95.8912 54.7851 95.8125 55.1193 95.8125 55.4582V63.9019L90.4595 58.5517C90.1784 58.2709 89.8261 58.072 89.4405 57.9762C89.0549 57.8804 88.6505 57.8915 88.2707 58.0081C85.6669 58.8083 82.9535 59.2139 80.2058 59.2139H74.6694C59.5501 59.2139 47.25 46.9136 47.25 31.7944C47.25 16.6753 59.5503 4.375 74.6694 4.375H80.2058C95.3249 4.375 107.625 16.6753 107.625 31.7944C107.625 40.4856 103.637 48.4739 96.6838 53.7108Z" fill="#3084B6"/>
<path d="M87.2885 23.9359C86.9728 19.3564 83.2812 15.6648 78.7014 15.3491C76.1053 15.1709 73.6278 16.0465 71.7314 17.8168C69.8611 19.5627 68.7886 22.0306 68.7886 24.588C68.7886 25.7962 69.7681 26.7755 70.9761 26.7755C72.184 26.7755 73.1636 25.7962 73.1636 24.588C73.1636 23.2189 73.7153 21.9499 74.7167 21.0152C75.7173 20.0814 77.0249 19.6191 78.4009 19.7141C80.8132 19.8803 82.7577 21.8248 82.924 24.2369C83.092 26.6732 81.4936 28.8261 79.1236 29.3563C77.2034 29.786 75.8625 31.4546 75.8625 33.4139V38.6694C75.8625 39.8776 76.8421 40.8569 78.05 40.8569C79.2582 40.8569 80.2375 39.8776 80.2373 38.6694V33.5887C84.6451 32.5238 87.6024 28.4905 87.2885 23.9359ZM79.5966 45.7757C79.1897 45.3688 78.6253 45.1348 78.05 45.1348C77.4747 45.1348 76.9103 45.3688 76.5034 45.7757C76.0947 46.1869 75.8644 46.7425 75.8625 47.3223C75.8625 47.8998 76.0968 48.4642 76.5034 48.871C76.9103 49.2779 77.4747 49.5098 78.05 49.5098C78.6253 49.5098 79.1897 49.2779 79.5966 48.871C80.0053 48.459 80.2356 47.9027 80.2375 47.3223C80.2375 46.747 80.0032 46.1826 79.5966 45.7757ZM60.1563 67.8126H14C12.7921 67.8126 11.8125 68.7919 11.8125 70.0001C11.8125 71.2083 12.7921 72.1876 14 72.1876H60.1563C61.3644 72.1876 62.3438 71.2083 62.3438 70.0001C62.3438 68.7919 61.3642 67.8126 60.1563 67.8126ZM61.7026 80.7035C61.2959 80.2967 60.7316 80.0626 60.1563 80.0626C59.5809 80.0626 59.0166 80.2967 58.6097 80.7035C58.2026 81.1104 57.9688 81.6748 57.9688 82.2501C57.9688 82.8254 58.2028 83.3898 58.6097 83.7967C59.0166 84.2035 59.5809 84.4376 60.1563 84.4376C60.7316 84.4376 61.2959 84.2035 61.7026 83.7967C62.1118 83.3858 62.3423 82.83 62.3438 82.2501C62.3438 81.6748 62.1095 81.1104 61.7026 80.7035ZM51.5522 80.0626H14C12.7921 80.0626 11.8125 81.0419 11.8125 82.2501C11.8125 83.4583 12.7921 84.4376 14 84.4376H51.5522C52.7603 84.4376 53.7397 83.4583 53.7397 82.2501C53.7397 81.0419 52.7601 80.0626 51.5522 80.0626ZM45.9375 55.5626H14C12.7921 55.5626 11.8125 56.5419 11.8125 57.7501C11.8125 58.9583 12.7921 59.9376 14 59.9376H45.9375C47.1457 59.9376 48.125 58.9583 48.125 57.7501C48.125 56.5419 47.1454 55.5626 45.9375 55.5626Z" fill="#222831"/>
</svg>
