<svg width="120" height="410" viewBox="0 0 120 410" fill="none" xmlns="http://www.w3.org/2000/svg">
<g filter="url(#filter0_d_126_7040)">
<path d="M70 38C70 33.5817 73.5817 30 78 30H126V278H78C73.5817 278 70 274.418 70 270V38Z" fill="white"/>
<path d="M105.24 211.654C105.24 212.761 105.067 213.781 104.72 214.714C104.36 215.634 103.853 216.441 103.2 217.134C102.547 217.814 101.78 218.348 100.9 218.734C100.02 219.108 99.0533 219.294 98 219.294C96.9467 219.294 95.98 219.108 95.1 218.734C94.22 218.348 93.4533 217.808 92.8 217.114C92.1467 216.421 91.6467 215.608 91.3 214.674C90.94 213.741 90.76 212.714 90.76 211.594C90.76 210.354 90.9667 209.241 91.38 208.254C91.7933 207.254 92.3933 206.414 93.18 205.734L95.1 207.814C94.5667 208.321 94.1733 208.874 93.92 209.474C93.6533 210.074 93.52 210.728 93.52 211.434C93.52 212.114 93.6267 212.734 93.84 213.294C94.0533 213.854 94.36 214.341 94.76 214.754C95.16 215.154 95.6333 215.468 96.18 215.694C96.7267 215.908 97.3333 216.014 98 216.014C98.6533 216.014 99.2533 215.908 99.8 215.694C100.347 215.468 100.827 215.154 101.24 214.754C101.64 214.341 101.947 213.861 102.16 213.314C102.373 212.754 102.48 212.141 102.48 211.474C102.48 210.834 102.38 210.214 102.18 209.614C101.967 209.001 101.613 208.408 101.12 207.834L103.46 205.994C104.033 206.754 104.473 207.641 104.78 208.654C105.087 209.654 105.24 210.654 105.24 211.654ZM103.04 208.954H97.78V205.994H103.46L103.04 208.954ZM105.16 197.865C105.16 199.091 104.92 200.171 104.44 201.105C103.96 202.025 103.307 202.738 102.48 203.245C101.64 203.751 100.687 204.005 99.62 204.005C98.54 204.005 97.5867 203.758 96.76 203.265C95.92 202.758 95.2667 202.071 94.8 201.205C94.32 200.338 94.08 199.358 94.08 198.265C94.08 197.211 94.3067 196.265 94.76 195.425C95.2 194.571 95.84 193.898 96.68 193.405C97.5067 192.911 98.5 192.665 99.66 192.665C99.78 192.665 99.92 192.671 100.08 192.685C100.227 192.698 100.367 192.711 100.5 192.725V201.465H98.68V194.365L99.22 195.565C98.66 195.565 98.1733 195.678 97.76 195.905C97.3467 196.131 97.0267 196.445 96.8 196.845C96.56 197.245 96.44 197.711 96.44 198.245C96.44 198.778 96.56 199.251 96.8 199.665C97.0267 200.065 97.3533 200.378 97.78 200.605C98.1933 200.831 98.6867 200.945 99.26 200.945H99.74C100.327 200.945 100.847 200.818 101.3 200.565C101.74 200.298 102.08 199.931 102.32 199.465C102.547 198.985 102.66 198.425 102.66 197.785C102.66 197.211 102.573 196.711 102.4 196.285C102.227 195.845 101.967 195.445 101.62 195.085L103.42 193.425C103.98 193.918 104.413 194.538 104.72 195.285C105.013 196.031 105.16 196.891 105.16 197.865ZM105.16 186.187C105.16 187.454 104.84 188.441 104.2 189.147C103.547 189.854 102.58 190.207 101.3 190.207H91.86V187.087H101.26C101.713 187.087 102.067 186.967 102.32 186.727C102.56 186.487 102.68 186.161 102.68 185.747C102.68 185.254 102.547 184.834 102.28 184.487L104.48 183.647C104.707 183.967 104.88 184.354 105 184.807C105.107 185.247 105.16 185.707 105.16 186.187ZM96.88 191.867H94.48V184.407H96.88V191.867ZM105 176.012H91V172.772H105V176.012ZM94.08 163.129C94.08 162.276 94.2533 161.516 94.6 160.849C94.9333 160.169 95.4533 159.636 96.16 159.249C96.8533 158.863 97.7467 158.669 98.84 158.669H105V161.789H99.32C98.4533 161.789 97.8133 161.983 97.4 162.369C96.9867 162.743 96.78 163.276 96.78 163.969C96.78 164.463 96.8867 164.909 97.1 165.309C97.3 165.696 97.6133 166.003 98.04 166.229C98.4667 166.443 99.0133 166.549 99.68 166.549H105V169.669H94.24V166.689H97.22L96.32 167.249C95.6 166.863 95.0467 166.309 94.66 165.589C94.2733 164.869 94.08 164.049 94.08 163.129ZM105 147.057H93.64V151.537H91V139.337H93.64V143.817H105V147.057ZM105.16 133.788C105.16 134.934 104.92 135.954 104.44 136.848C103.96 137.728 103.307 138.428 102.48 138.948C101.64 139.454 100.687 139.708 99.62 139.708C98.54 139.708 97.5867 139.454 96.76 138.948C95.92 138.428 95.2667 137.728 94.8 136.848C94.32 135.954 94.08 134.934 94.08 133.788C94.08 132.654 94.32 131.641 94.8 130.748C95.2667 129.854 95.9133 129.154 96.74 128.648C97.5667 128.141 98.5267 127.888 99.62 127.888C100.687 127.888 101.64 128.141 102.48 128.648C103.307 129.154 103.96 129.854 104.44 130.748C104.92 131.641 105.16 132.654 105.16 133.788ZM102.6 133.788C102.6 133.268 102.48 132.801 102.24 132.388C102 131.974 101.66 131.648 101.22 131.408C100.767 131.168 100.233 131.048 99.62 131.048C98.9933 131.048 98.46 131.168 98.02 131.408C97.58 131.648 97.24 131.974 97 132.388C96.76 132.801 96.64 133.268 96.64 133.788C96.64 134.308 96.76 134.774 97 135.188C97.24 135.601 97.58 135.934 98.02 136.188C98.46 136.428 98.9933 136.548 99.62 136.548C100.233 136.548 100.767 136.428 101.22 136.188C101.66 135.934 102 135.601 102.24 135.188C102.48 134.774 102.6 134.308 102.6 133.788ZM105.16 121.262C105.16 122.156 104.987 122.956 104.64 123.662C104.293 124.356 103.767 124.896 103.06 125.282C102.34 125.669 101.427 125.862 100.32 125.862H94.24V122.742H99.86C100.753 122.742 101.413 122.556 101.84 122.182C102.253 121.796 102.46 121.256 102.46 120.562C102.46 120.082 102.36 119.656 102.16 119.282C101.947 118.909 101.627 118.616 101.2 118.402C100.76 118.189 100.213 118.082 99.56 118.082H94.24V114.962H105V117.922H102.04L102.9 117.382C103.647 117.742 104.213 118.276 104.6 118.982C104.973 119.676 105.16 120.436 105.16 121.262ZM105.16 106.872C105.16 108.032 104.927 109.065 104.46 109.972C103.98 110.878 103.32 111.592 102.48 112.112C101.64 112.618 100.687 112.872 99.62 112.872C98.54 112.872 97.5867 112.618 96.76 112.112C95.92 111.592 95.2667 110.878 94.8 109.972C94.32 109.065 94.08 108.032 94.08 106.872C94.08 105.738 94.32 104.752 94.8 103.912C95.2667 103.072 95.94 102.452 96.82 102.052L98.12 104.472C97.6133 104.752 97.24 105.105 97 105.532C96.76 105.945 96.64 106.398 96.64 106.892C96.64 107.425 96.76 107.905 97 108.332C97.24 108.758 97.58 109.098 98.02 109.352C98.46 109.592 98.9933 109.712 99.62 109.712C100.247 109.712 100.78 109.592 101.22 109.352C101.66 109.098 102 108.758 102.24 108.332C102.48 107.905 102.6 107.425 102.6 106.892C102.6 106.398 102.487 105.945 102.26 105.532C102.02 105.105 101.64 104.752 101.12 104.472L102.44 102.052C103.307 102.452 103.98 103.072 104.46 103.912C104.927 104.752 105.16 105.738 105.16 106.872ZM94.08 93.7739C94.08 92.9206 94.2533 92.1606 94.6 91.4939C94.9333 90.8139 95.4533 90.2806 96.16 89.8939C96.8533 89.5072 97.7467 89.3139 98.84 89.3139H105V92.4339H99.32C98.4533 92.4339 97.8133 92.6272 97.4 93.0139C96.9867 93.3872 96.78 93.9206 96.78 94.6139C96.78 95.1072 96.8867 95.5539 97.1 95.9539C97.3 96.3406 97.6133 96.6472 98.04 96.8739C98.4667 97.0872 99.0133 97.1939 99.68 97.1939H105V100.314H90.16L90.16 97.1939H97.22L96.32 97.8939C95.6 97.5072 95.0467 96.9539 94.66 96.2339C94.2733 95.5139 94.08 94.6939 94.08 93.7739Z" fill="#3084B6"/>
</g>
<g filter="url(#filter1_d_126_7040)">
<rect x="22" y="316" width="64" height="64" rx="32" fill="white" shape-rendering="crispEdges"/>
<path d="M23.3649 347.617C23.3634 352.994 24.7794 358.245 27.4719 362.873L23.1074 378.685L39.4154 374.442C43.926 376.878 48.9798 378.155 54.1154 378.155H54.1289C71.0827 378.155 84.8834 364.466 84.8907 347.641C84.8939 339.488 81.6969 331.822 75.8884 326.054C70.0809 320.286 62.3572 317.108 54.1277 317.104C37.1719 317.104 23.3722 330.793 23.3652 347.617" fill="url(#paint0_linear_126_7040)"/>
<path d="M22.2675 347.607C22.2658 353.178 23.7325 358.616 26.521 363.41L22 379.788L38.8927 375.393C43.5472 377.912 48.7878 379.239 54.1203 379.241H54.134C71.696 379.241 85.9925 365.06 86 347.632C86.003 339.186 82.691 331.244 76.675 325.27C70.6582 319.296 62.6582 316.003 54.134 316C36.569 316 22.2745 330.179 22.2675 347.607ZM32.3278 362.584L31.697 361.591C29.0455 357.407 27.646 352.573 27.648 347.609C27.6535 333.123 39.5345 321.338 54.144 321.338C61.219 321.341 67.868 324.078 72.869 329.043C77.8698 334.009 80.6215 340.61 80.6198 347.63C80.6133 362.116 68.732 373.903 54.134 373.903H54.1235C49.3703 373.9 44.7085 372.634 40.643 370.24L39.6755 369.671L29.651 372.279L32.3278 362.584Z" fill="url(#paint1_linear_126_7040)"/>
<path d="M46.1689 334.393C45.5724 333.078 44.9447 333.051 44.3774 333.028C43.9129 333.008 43.3819 333.01 42.8514 333.01C42.3204 333.01 41.4577 333.208 40.7284 333.998C39.9984 334.789 37.9414 336.7 37.9414 340.587C37.9414 344.474 40.7947 348.23 41.1924 348.758C41.5907 349.285 46.7007 357.516 54.7937 360.683C61.5197 363.315 62.8884 362.791 64.3482 362.659C65.8082 362.528 69.0592 360.749 69.7224 358.904C70.3862 357.059 70.3862 355.478 70.1872 355.148C69.9882 354.819 69.4572 354.621 68.6609 354.226C67.8644 353.831 63.9499 351.92 63.2202 351.656C62.4902 351.392 61.9594 351.261 61.4284 352.052C60.8974 352.842 59.3727 354.621 58.9079 355.148C58.4437 355.676 57.9789 355.742 57.1829 355.347C56.3862 354.95 53.8219 354.117 50.7797 351.426C48.4127 349.332 46.8147 346.745 46.3502 345.954C45.8857 345.165 46.3004 344.736 46.6997 344.343C47.0574 343.989 47.4962 343.42 47.8947 342.959C48.2917 342.498 48.4242 342.168 48.6897 341.642C48.9554 341.114 48.8224 340.653 48.6237 340.258C48.4242 339.863 46.8769 335.955 46.1689 334.393Z" fill="white"/>
</g>
<defs>
<filter id="filter0_d_126_7040" x="40" y="0" width="126" height="318" filterUnits="userSpaceOnUse" color-interpolation-filters="sRGB">
<feFlood flood-opacity="0" result="BackgroundImageFix"/>
<feColorMatrix in="SourceAlpha" type="matrix" values="0 0 0 0 0 0 0 0 0 0 0 0 0 0 0 0 0 0 127 0" result="hardAlpha"/>
<feMorphology radius="10" operator="dilate" in="SourceAlpha" result="effect1_dropShadow_126_7040"/>
<feOffset dx="5" dy="5"/>
<feGaussianBlur stdDeviation="12.5"/>
<feComposite in2="hardAlpha" operator="out"/>
<feColorMatrix type="matrix" values="0 0 0 0 0 0 0 0 0 0 0 0 0 0 0 0 0 0 0.2 0"/>
<feBlend mode="normal" in2="BackgroundImageFix" result="effect1_dropShadow_126_7040"/>
<feBlend mode="normal" in="SourceGraphic" in2="effect1_dropShadow_126_7040" result="shape"/>
</filter>
<filter id="filter1_d_126_7040" x="2" y="296" width="114" height="114" filterUnits="userSpaceOnUse" color-interpolation-filters="sRGB">
<feFlood flood-opacity="0" result="BackgroundImageFix"/>
<feColorMatrix in="SourceAlpha" type="matrix" values="0 0 0 0 0 0 0 0 0 0 0 0 0 0 0 0 0 0 127 0" result="hardAlpha"/>
<feOffset dx="5" dy="5"/>
<feGaussianBlur stdDeviation="12.5"/>
<feComposite in2="hardAlpha" operator="out"/>
<feColorMatrix type="matrix" values="0 0 0 0 0 0 0 0 0 0 0 0 0 0 0 0 0 0 0.25 0"/>
<feBlend mode="normal" in2="BackgroundImageFix" result="effect1_dropShadow_126_7040"/>
<feBlend mode="normal" in="SourceGraphic" in2="effect1_dropShadow_126_7040" result="shape"/>
</filter>
<linearGradient id="paint0_linear_126_7040" x1="3112.27" y1="6475.12" x2="3112.27" y2="317.104" gradientUnits="userSpaceOnUse">
<stop stop-color="#1FAF38"/>
<stop offset="1" stop-color="#60D669"/>
</linearGradient>
<linearGradient id="paint1_linear_126_7040" x1="3222" y1="6694.84" x2="3222" y2="316" gradientUnits="userSpaceOnUse">
<stop stop-color="#F9F9F9"/>
<stop offset="1" stop-color="white"/>
</linearGradient>
</defs>
</svg>
