<svg width="24" height="25" viewBox="0 0 24 25" fill="none" xmlns="http://www.w3.org/2000/svg">
<path d="M3.49298 3.13062L3.49297 3.13063C2.44184 3.87459 1.8678 4.89753 1.69649 6.06482C1.52893 7.20659 1.74938 8.45399 2.20735 9.70081C3.12247 12.1923 5.06077 14.8845 7.34014 17.1609C9.61958 19.4373 12.315 21.3724 14.8073 22.2871C16.0544 22.7448 17.3016 22.9657 18.4423 22.7998C19.6087 22.6303 20.631 22.059 21.3732 21.0105L21.3732 21.0104C22.0467 20.0589 22.4091 19.1823 22.3531 18.3611C22.2939 17.4918 21.7843 16.8795 21.1693 16.4446C20.5719 16.0221 19.7976 15.7092 19.0268 15.4346C18.6976 15.3173 18.3751 15.2088 18.0537 15.1007C17.5756 14.9399 17.0999 14.7798 16.6078 14.5927C15.6951 14.2457 14.8898 14.1871 14.2381 14.5126C13.5777 14.8425 13.2848 15.4607 13.1577 15.9809C13.1456 16.0305 13.1347 16.0802 13.125 16.13L8.37379 11.3787C8.42357 11.3689 8.47334 11.358 8.52295 11.3459C9.04311 11.2188 9.66128 10.9259 9.9911 10.2654C10.3165 9.61368 10.2578 8.80841 9.91062 7.89575C9.72359 7.40374 9.56361 6.9281 9.40284 6.45012C9.29472 6.12865 9.18624 5.80612 9.06893 5.47683C8.79437 4.70612 8.48152 3.93174 8.05905 3.33436C7.62414 2.71938 7.01179 2.20979 6.14252 2.15062C5.32128 2.09472 4.4446 2.4571 3.49298 3.13062Z" fill="white" stroke="#97A1A5" stroke-width="1.5"/>
</svg>
