<svg width="32" height="32" viewBox="0 0 32 32" fill="none" xmlns="http://www.w3.org/2000/svg">
<path d="M20.2004 11.1998C19.1785 11.1962 18.1659 11.3943 17.2206 11.7825C16.2752 12.1708 15.4158 12.7416 14.6913 13.4624C13.9668 14.1831 13.3916 15.0396 12.9985 15.983C12.6054 16.9263 12.4021 17.9378 12.4004 18.9598V26.7998C12.4004 27.118 12.5268 27.4232 12.7519 27.6483C12.9769 27.8733 13.2821 27.9998 13.6004 27.9998H16.4004C16.7187 27.9998 17.0239 27.8733 17.2489 27.6483C17.474 27.4232 17.6004 27.118 17.6004 26.7998V18.9598C17.6001 18.5963 17.6765 18.2368 17.8244 17.9049C17.9724 17.5729 18.1887 17.2758 18.4591 17.033C18.7296 16.7902 19.0482 16.6071 19.3942 16.4957C19.7402 16.3843 20.1057 16.3471 20.4671 16.3864C21.1151 16.468 21.7106 16.7846 22.1407 17.2762C22.5708 17.7677 22.8055 18.4 22.8004 19.0531V26.7998C22.8004 27.118 22.9268 27.4232 23.1519 27.6483C23.3769 27.8733 23.6821 27.9998 24.0004 27.9998H26.8004C27.1186 27.9998 27.4239 27.8733 27.6489 27.6483C27.874 27.4232 28.0004 27.118 28.0004 26.7998V18.9598C27.9986 17.9378 27.7954 16.9263 27.4023 15.983C27.0092 15.0396 26.434 14.1831 25.7095 13.4624C24.985 12.7416 24.1255 12.1708 23.1802 11.7825C22.2349 11.3943 21.2223 11.1962 20.2004 11.1998Z" fill="white"/>
<path d="M8.8 12.3999H5.2C4.53726 12.3999 4 12.9372 4 13.5999V26.7999C4 27.4626 4.53726 27.9999 5.2 27.9999H8.8C9.46274 27.9999 10 27.4626 10 26.7999V13.5999C10 12.9372 9.46274 12.3999 8.8 12.3999Z" fill="white"/>
<path d="M7 10C8.65685 10 10 8.65685 10 7C10 5.34315 8.65685 4 7 4C5.34315 4 4 5.34315 4 7C4 8.65685 5.34315 10 7 10Z" fill="white"/>
</svg>
