<svg width="32" height="33" viewBox="0 0 32 33" fill="none" xmlns="http://www.w3.org/2000/svg">
<rect x="0.5" y="0.775879" width="31" height="31" rx="15.5" stroke="white"/>
<path d="M16.523 19.9965C16.5929 20.0662 16.6484 20.149 16.6862 20.2402C16.7241 20.3313 16.7436 20.4291 16.7436 20.5278C16.7436 20.6265 16.7241 20.7242 16.6862 20.8154C16.6484 20.9066 16.5929 20.9894 16.523 21.059L16.1517 21.4303C15.4483 22.1338 14.4941 22.529 13.4992 22.529C12.5044 22.529 11.5502 22.1338 10.8467 21.4303C10.1433 20.7268 9.74805 19.7727 9.74805 18.7778C9.74805 17.7829 10.1433 16.8288 10.8467 16.1253L12.3542 14.6184C13.0302 13.9408 13.9396 13.5473 14.8963 13.5185C15.8529 13.4897 16.7844 13.8277 17.4999 14.4634C17.5737 14.5291 17.634 14.6086 17.6771 14.6976C17.7202 14.7865 17.7454 14.883 17.7512 14.9817C17.757 15.0804 17.7433 15.1792 17.7109 15.2726C17.6785 15.366 17.628 15.452 17.5624 15.5259C17.4967 15.5998 17.4171 15.66 17.3282 15.7031C17.2393 15.7462 17.1427 15.7714 17.0441 15.7772C16.9454 15.783 16.8466 15.7693 16.7532 15.7369C16.6598 15.7045 16.5737 15.6541 16.4999 15.5884C16.0708 15.2074 15.5124 15.0046 14.9388 15.0217C14.3652 15.0388 13.8199 15.2744 13.4142 15.6803L11.908 17.1853C11.486 17.6073 11.2489 18.1797 11.2489 18.7765C11.2489 19.3734 11.486 19.9458 11.908 20.3678C12.33 20.7898 12.9024 21.0269 13.4992 21.0269C14.0961 21.0269 14.6685 20.7898 15.0905 20.3678L15.4617 19.9965C15.5314 19.9268 15.6141 19.8715 15.7052 19.8337C15.7962 19.796 15.8938 19.7766 15.9924 19.7766C16.0909 19.7766 16.1885 19.796 16.2796 19.8337C16.3706 19.8715 16.4533 19.9268 16.523 19.9965ZM21.153 11.1215C20.4489 10.4191 19.495 10.0247 18.5005 10.0247C17.506 10.0247 16.5521 10.4191 15.848 11.1215L15.4767 11.4928C15.3359 11.6337 15.2567 11.8248 15.2567 12.024C15.2567 12.2233 15.3359 12.4144 15.4767 12.5553C15.6176 12.6962 15.8087 12.7753 16.008 12.7753C16.2073 12.7753 16.3984 12.6962 16.5392 12.5553L16.9105 12.184C17.3325 11.762 17.9049 11.5249 18.5017 11.5249C19.0986 11.5249 19.671 11.762 20.093 12.184C20.515 12.6061 20.7521 13.1784 20.7521 13.7753C20.7521 14.3721 20.515 14.9445 20.093 15.3665L18.5861 16.874C18.1801 17.2798 17.6345 17.515 17.0607 17.5316C16.487 17.5482 15.9286 17.345 15.4999 16.9634C15.426 16.8977 15.3399 16.8473 15.2466 16.8149C15.1532 16.7825 15.0543 16.7688 14.9557 16.7746C14.857 16.7804 14.7605 16.8056 14.6715 16.8487C14.5826 16.8918 14.503 16.952 14.4374 17.0259C14.3717 17.0998 14.3212 17.1859 14.2888 17.2792C14.2565 17.3726 14.2428 17.4714 14.2486 17.5701C14.2544 17.6688 14.2796 17.7653 14.3227 17.8542C14.3658 17.9432 14.426 18.0227 14.4999 18.0884C15.2149 18.7239 16.1457 19.0622 17.1019 19.034C18.0581 19.0058 18.9674 18.6132 19.6436 17.9365L21.1511 16.4297C21.8543 15.7258 22.2495 14.7716 22.2499 13.7766C22.2502 12.7816 21.8557 11.8272 21.153 11.1228V11.1215Z" fill="white" stroke="white" stroke-width="0.5"/>
</svg>
