<svg width="83" height="67" viewBox="0 0 83 67" fill="none" xmlns="http://www.w3.org/2000/svg">
<path d="M20.0211 29.5984C21.9094 36.0518 27.3521 49.2161 36.5493 48.0345C45.7738 46.8493 42.1714 34.9544 50.6158 33.3241C54.3331 32.6064 56.8528 39.04 60.5784 38.8399C65.3766 38.5821 67.8189 33.8324 69.1598 29.8394C72.0028 21.373 67.7452 7.0165 57.7802 4.53005C49.0843 2.3603 48.0671 12.9851 40.5059 9.89901C36.2561 8.16444 36.6807 2.98453 31.5047 1.93934C15.8461 -1.22257 17.5086 21.0112 20.0211 29.5984Z" fill="url(#paint0_linear_126_7066)"/>
<path d="M60.5806 39.812C59.7861 39.812 59.1396 39.1656 59.1396 38.371C59.1396 37.5763 59.7861 36.9299 60.5806 36.9299C61.3751 36.9299 62.0216 37.5763 62.0216 38.371C62.0216 39.1656 61.3751 39.812 60.5806 39.812ZM60.5806 37.9383C60.342 37.9383 60.1479 38.1324 60.1479 38.3711C60.1479 38.6098 60.342 38.8038 60.5806 38.8038C60.8192 38.8038 61.0133 38.6098 61.0133 38.3711C61.0133 38.1324 60.8192 37.9383 60.5806 37.9383Z" fill="#25C3C8"/>
<path d="M26.7607 18.3524C26.627 18.3524 26.4988 18.2993 26.4042 18.2047C26.3097 18.1102 26.2566 17.982 26.2566 17.8482C26.2566 17.5146 25.9853 17.2433 25.6516 17.2433C25.5179 17.2433 25.3897 17.1902 25.2951 17.0956C25.2006 17.0011 25.1475 16.8728 25.1475 16.7391C25.1475 16.6054 25.2006 16.4772 25.2951 16.3826C25.3897 16.2881 25.5179 16.235 25.6516 16.235C25.9853 16.235 26.2566 15.9636 26.2566 15.63C26.2566 15.4963 26.3097 15.3681 26.4042 15.2735C26.4988 15.179 26.627 15.1259 26.7607 15.1259C26.8944 15.1259 27.0227 15.179 27.1172 15.2735C27.2118 15.3681 27.2649 15.4963 27.2649 15.63C27.2649 15.9636 27.5362 16.235 27.8699 16.235C28.0036 16.235 28.1318 16.2881 28.2263 16.3826C28.3209 16.4772 28.374 16.6054 28.374 16.7391C28.374 16.8728 28.3209 17.0011 28.2263 17.0956C28.1318 17.1902 28.0036 17.2433 27.8699 17.2433C27.5362 17.2433 27.2649 17.5146 27.2649 17.8482C27.2649 17.982 27.2118 18.1102 27.1172 18.2047C27.0227 18.2993 26.8944 18.3524 26.7607 18.3524ZM62.0241 44.3749C61.8904 44.3749 61.7622 44.3218 61.6676 44.2272C61.5731 44.1327 61.52 44.0044 61.52 43.8707C61.52 43.5371 61.2486 43.2657 60.915 43.2657C60.7813 43.2657 60.653 43.2126 60.5585 43.1181C60.464 43.0235 60.4108 42.8953 60.4108 42.7616C60.4108 42.6279 60.464 42.4997 60.5585 42.4051C60.653 42.3106 60.7813 42.2574 60.915 42.2574C61.2486 42.2574 61.52 41.9861 61.52 41.6525C61.52 41.5188 61.5731 41.3905 61.6676 41.296C61.7622 41.2014 61.8904 41.1483 62.0241 41.1483C62.1578 41.1483 62.2861 41.2014 62.3806 41.296C62.4751 41.3905 62.5283 41.5188 62.5283 41.6525C62.5283 41.9861 62.7996 42.2574 63.1332 42.2574C63.2669 42.2574 63.3952 42.3106 63.4897 42.4051C63.5843 42.4997 63.6374 42.6279 63.6374 42.7616C63.6374 42.8953 63.5843 43.0235 63.4897 43.1181C63.3952 43.2126 63.2669 43.2657 63.1332 43.2657C62.7996 43.2657 62.5283 43.5371 62.5283 43.8707C62.5283 44.0044 62.4751 44.1327 62.3806 44.2272C62.2861 44.3218 62.1578 44.3749 62.0241 44.3749Z" fill="#CFE44A"/>
<path d="M79.9924 33.5594C79.938 33.4372 79.9344 33.2985 79.9822 33.1736C80.0301 33.0488 80.1257 32.9481 80.2478 32.8937C80.5526 32.7579 80.69 32.3996 80.5542 32.0949C80.4998 31.9727 80.4961 31.834 80.544 31.7091C80.5919 31.5843 80.6874 31.4836 80.8096 31.4292C80.9317 31.3748 81.0705 31.3711 81.1953 31.419C81.3201 31.4669 81.4208 31.5624 81.4753 31.6846C81.611 31.9893 81.9693 32.1268 82.2741 31.991C82.3962 31.9366 82.5349 31.9329 82.6598 31.9808C82.7846 32.0287 82.8853 32.1242 82.9397 32.2463C82.9941 32.3685 82.9978 32.5072 82.9499 32.6321C82.902 32.7569 82.8065 32.8576 82.6844 32.912C82.3796 33.0478 82.2422 33.4061 82.3779 33.7108C82.4324 33.833 82.436 33.9717 82.3881 34.0966C82.3402 34.2214 82.2447 34.3221 82.1226 34.3765C82.0004 34.4309 81.8617 34.4346 81.7369 34.3867C81.612 34.3388 81.5113 34.2433 81.4569 34.1211C81.3211 33.8164 80.9629 33.6789 80.6581 33.8147C80.536 33.8691 80.3972 33.8728 80.2724 33.8249C80.1475 33.777 80.0468 33.6815 79.9924 33.5594ZM57.1165 2.7958C57.0621 2.67367 57.0584 2.53492 57.1063 2.41008C57.1542 2.28524 57.2497 2.18454 57.3718 2.13013C57.6766 1.99436 57.814 1.63609 57.6783 1.33132C57.6238 1.20919 57.6202 1.07044 57.6681 0.945599C57.716 0.820761 57.8115 0.72006 57.9336 0.665649C58.0558 0.611238 58.1945 0.607574 58.3193 0.655463C58.4442 0.703353 58.5449 0.798872 58.5993 0.921008C58.7351 1.22578 59.0933 1.36321 59.3981 1.22744C59.5202 1.17303 59.659 1.16937 59.7838 1.21725C59.9087 1.26514 60.0094 1.36066 60.0638 1.4828C60.1182 1.60493 60.1218 1.74368 60.074 1.86852C60.0261 1.99336 59.9305 2.09406 59.8084 2.14847C59.5036 2.28424 59.3662 2.64251 59.502 2.94728C59.5564 3.06942 59.5601 3.20817 59.5122 3.333C59.4643 3.45784 59.3688 3.55854 59.2466 3.61295C59.1245 3.66736 58.9857 3.67103 58.8609 3.62314C58.7361 3.57525 58.6354 3.47973 58.5809 3.35759C58.4452 3.05282 58.0869 2.91539 57.7821 3.05116C57.66 3.10557 57.5213 3.10924 57.3964 3.06135C57.2716 3.01346 57.1709 2.91794 57.1165 2.7958Z" fill="#3084B6"/>
<path d="M16.292 39.6206C11.7407 41.6283 8.91699 44.4262 8.91699 47.5208C8.91699 53.6304 19.9233 58.5833 33.5003 58.5833C47.0773 58.5833 58.0837 53.6304 58.0837 47.5208C58.0837 44.4262 55.2599 41.6283 50.7087 39.6206M48.2503 24.1666C48.2503 34.1566 37.1878 38.9166 33.5003 46.2916C29.8128 38.9166 18.7503 34.1566 18.7503 24.1666C18.7503 16.0204 25.3541 9.41663 33.5003 9.41663C41.6465 9.41663 48.2503 16.0204 48.2503 24.1666ZM35.9587 24.1666C35.9587 25.5243 34.858 26.625 33.5003 26.625C32.1426 26.625 31.042 25.5243 31.042 24.1666C31.042 22.8089 32.1426 21.7083 33.5003 21.7083C34.858 21.7083 35.9587 22.8089 35.9587 24.1666Z" stroke="#3084B6" stroke-width="6" stroke-linecap="round" stroke-linejoin="round"/>
<defs>
<linearGradient id="paint0_linear_126_7066" x1="24.8004" y1="41.2339" x2="57.6004" y2="-9.16609" gradientUnits="userSpaceOnUse">
<stop offset="0.257999" stop-color="#FBFFE4"/>
<stop offset="1" stop-color="#CFE44A"/>
</linearGradient>
</defs>
</svg>
