<svg width="34" height="34" viewBox="0 0 34 34" fill="none" xmlns="http://www.w3.org/2000/svg">
<path fill-rule="evenodd" clip-rule="evenodd" d="M7.00065 0.333008H27.0007C30.6826 0.333008 33.6673 3.31778 33.6673 6.99967V26.9997C33.6673 30.6816 30.6826 33.6663 27.0007 33.6663H7.00065C3.31875 33.6663 0.333984 30.6816 0.333984 26.9997V6.99967C0.333984 3.31778 3.31875 0.333008 7.00065 0.333008ZM22.8007 22.7997C23.2881 22.3116 23.2881 21.521 22.8007 21.033L18.7673 16.9997L22.8007 12.9663C23.2596 12.4738 23.246 11.7063 22.77 11.2303C22.294 10.7543 21.5265 10.7407 21.034 11.1997L17.0007 15.233L12.9673 11.1997C12.4748 10.7407 11.7073 10.7543 11.2313 11.2303C10.7553 11.7063 10.7417 12.4738 11.2006 12.9663L15.234 16.9997L11.2006 21.033C10.7132 21.521 10.7132 22.3116 11.2006 22.7997C11.4387 23.0283 11.754 23.1592 12.084 23.1663C12.4147 23.1625 12.7311 23.0311 12.9673 22.7997L17.0007 18.7663L21.034 22.7997C21.2702 23.0311 21.5866 23.1625 21.9173 23.1663C22.2473 23.1592 22.5626 23.0283 22.8007 22.7997Z" fill="white"/>
</svg>
