<svg width="40" height="40" viewBox="0 0 40 40" fill="none" xmlns="http://www.w3.org/2000/svg">
<path d="M2.5 12C1.11929 12 0 13.1659 0 14.6042V24.3958C0 25.8341 1.11929 27 2.5 27C3.88071 27 5 25.8341 5 24.3958V14.6042C5 13.1659 3.88071 12 2.5 12Z" fill="white"/>
<path d="M20 12C18.6193 12 17.5 13.1659 17.5 14.6042V24.3958C17.5 25.8341 18.6193 27 20 27C21.3807 27 22.5 25.8341 22.5 24.3958V14.6042C22.5 13.1659 21.3807 12 20 12Z" fill="white"/>
<path d="M37.5 12C36.1193 12 35 13.1659 35 14.6042V24.3958C35 25.8341 36.1193 27 37.5 27C38.8807 27 40 25.8341 40 24.3958V14.6042C40 13.1659 38.8807 12 37.5 12Z" fill="white"/>
</svg>
