<svg width="81" height="64" viewBox="0 0 81 64" fill="none" xmlns="http://www.w3.org/2000/svg">
<path d="M17.6207 29.7983C19.509 36.2516 24.9517 49.416 34.1489 48.2344C43.3734 47.0492 39.7711 35.1543 48.2154 33.524C51.9327 32.8063 54.4524 39.2399 58.178 39.0398C62.9762 38.782 65.4185 34.0323 66.7594 30.0393C69.6025 21.5729 65.3448 7.21639 55.3799 4.72994C46.6839 2.56019 45.6668 13.185 38.1056 10.0989C33.8557 8.36433 34.2803 3.18442 29.1043 2.13923C13.4457 -1.02268 15.1082 21.2111 17.6207 29.7983Z" fill="url(#paint0_linear_744_1313)"/>
<path d="M58.1812 40.012C57.3867 40.012 56.7402 39.3656 56.7402 38.5709C56.7402 37.7763 57.3867 37.1299 58.1812 37.1299C58.9757 37.1299 59.6221 37.7763 59.6221 38.5709C59.6221 39.3656 58.9757 40.012 58.1812 40.012ZM58.1812 38.1383C57.9426 38.1383 57.7485 38.3324 57.7485 38.571C57.7485 38.8097 57.9426 39.0038 58.1812 39.0038C58.4197 39.0038 58.6138 38.8097 58.6138 38.571C58.6138 38.3324 58.4197 38.1383 58.1812 38.1383Z" fill="#25C3C8"/>
<path d="M24.3613 18.5523C24.2276 18.5523 24.0994 18.4992 24.0048 18.4047C23.9103 18.3101 23.8572 18.1819 23.8572 18.0482C23.8572 17.7146 23.5858 17.4432 23.2522 17.4432C23.1185 17.4432 22.9903 17.3901 22.8957 17.2956C22.8012 17.201 22.748 17.0728 22.748 16.9391C22.748 16.8054 22.8012 16.6771 22.8957 16.5826C22.9903 16.488 23.1185 16.4349 23.2522 16.4349C23.5858 16.4349 23.8572 16.1636 23.8572 15.83C23.8572 15.6962 23.9103 15.568 24.0048 15.4735C24.0994 15.3789 24.2276 15.3258 24.3613 15.3258C24.495 15.3258 24.6233 15.3789 24.7178 15.4735C24.8124 15.568 24.8655 15.6962 24.8655 15.83C24.8655 16.1636 25.1368 16.4349 25.4704 16.4349C25.6042 16.4349 25.7324 16.488 25.8269 16.5826C25.9215 16.6771 25.9746 16.8054 25.9746 16.9391C25.9746 17.0728 25.9215 17.201 25.8269 17.2956C25.7324 17.3901 25.6042 17.4432 25.4704 17.4432C25.1368 17.4432 24.8655 17.7146 24.8655 18.0482C24.8655 18.1819 24.8124 18.3101 24.7178 18.4047C24.6233 18.4992 24.495 18.5523 24.3613 18.5523ZM59.6247 44.5748C59.491 44.5748 59.3628 44.5217 59.2682 44.4272C59.1737 44.3326 59.1206 44.2044 59.1206 44.0707C59.1206 43.737 58.8492 43.4657 58.5156 43.4657C58.3819 43.4657 58.2536 43.4126 58.1591 43.318C58.0645 43.2235 58.0114 43.0953 58.0114 42.9615C58.0114 42.8278 58.0645 42.6996 58.1591 42.6051C58.2536 42.5105 58.3819 42.4574 58.5156 42.4574C58.8492 42.4574 59.1206 42.1861 59.1206 41.8524C59.1206 41.7187 59.1737 41.5905 59.2682 41.4959C59.3628 41.4014 59.491 41.3483 59.6247 41.3483C59.7584 41.3483 59.8866 41.4014 59.9812 41.4959C60.0757 41.5905 60.1288 41.7187 60.1288 41.8524C60.1288 42.1861 60.4002 42.4574 60.7338 42.4574C60.8675 42.4574 60.9958 42.5105 61.0903 42.6051C61.1849 42.6996 61.238 42.8278 61.238 42.9615C61.238 43.0953 61.1849 43.2235 61.0903 43.318C60.9958 43.4126 60.8675 43.4657 60.7338 43.4657C60.4002 43.4657 60.1288 43.737 60.1288 44.0707C60.1288 44.2044 60.0757 44.3326 59.9812 44.4272C59.8866 44.5217 59.7584 44.5748 59.6247 44.5748Z" fill="#CFE44A"/>
<path d="M77.593 33.7592C77.5386 33.6371 77.5349 33.4984 77.5828 33.3735C77.6307 33.2487 77.7262 33.148 77.8484 33.0936C78.1531 32.9578 78.2906 32.5995 78.1548 32.2948C78.1004 32.1726 78.0967 32.0339 78.1446 31.909C78.1925 31.7842 78.288 31.6835 78.4102 31.6291C78.5323 31.5747 78.671 31.571 78.7959 31.6189C78.9207 31.6668 79.0214 31.7623 79.0758 31.8844C79.2116 32.1892 79.5699 32.3267 79.8746 32.1909C79.9968 32.1365 80.1355 32.1328 80.2604 32.1807C80.3852 32.2286 80.4859 32.3241 80.5403 32.4462C80.5947 32.5684 80.5984 32.7071 80.5505 32.832C80.5026 32.9568 80.4071 33.0575 80.285 33.1119C79.9802 33.2477 79.8428 33.606 79.9785 33.9107C80.0329 34.0329 80.0366 34.1716 79.9887 34.2964C79.9408 34.4213 79.8453 34.522 79.7232 34.5764C79.601 34.6308 79.4623 34.6345 79.3374 34.5866C79.2126 34.5387 79.1119 34.4432 79.0575 34.321C78.9217 34.0163 78.5635 33.8788 78.2587 34.0146C78.1366 34.069 77.9978 34.0727 77.873 34.0248C77.7481 33.9769 77.6474 33.8814 77.593 33.7592ZM54.7171 2.99569C54.6626 2.87356 54.659 2.73481 54.7069 2.60997C54.7548 2.48513 54.8503 2.38443 54.9724 2.33002C55.2772 2.19425 55.4146 1.83598 55.2788 1.53121C55.2244 1.40908 55.2208 1.27033 55.2687 1.14549C55.3165 1.02065 55.4121 0.91995 55.5342 0.865539C55.6563 0.811128 55.7951 0.807465 55.9199 0.855354C56.0448 0.903243 56.1455 0.998762 56.1999 1.1209C56.3356 1.42567 56.6939 1.5631 56.9987 1.42733C57.1208 1.37292 57.2596 1.36926 57.3844 1.41714C57.5092 1.46503 57.6099 1.56055 57.6644 1.68269C57.7188 1.80483 57.7224 1.94357 57.6745 2.06841C57.6266 2.19325 57.5311 2.29395 57.409 2.34836C57.1042 2.48413 56.9668 2.8424 57.1026 3.14717C57.157 3.26931 57.1606 3.40806 57.1127 3.53289C57.0649 3.65773 56.9693 3.75843 56.8472 3.81284C56.7251 3.86725 56.5863 3.87092 56.4615 3.82303C56.3366 3.77514 56.2359 3.67962 56.1815 3.55748C56.0458 3.25271 55.6875 3.11528 55.3827 3.25105C55.2606 3.30546 55.1218 3.30913 54.997 3.26124C54.8722 3.21335 54.7715 3.11783 54.7171 2.99569Z" fill="#3084B6"/>
<rect x="17.6016" y="4.79999" width="28.8" height="54.4" rx="3" fill="white"/>
<path d="M37.8672 5.33337H31.4672C30.5829 5.33337 29.8672 6.04912 29.8672 6.93337C29.8672 7.81762 30.5829 8.53337 31.4672 8.53337H37.8672C38.7514 8.53337 39.4672 7.81762 39.4672 6.93337C39.4672 6.04912 38.7514 5.33337 37.8672 5.33337Z" fill="#3084B6"/>
<path d="M44.8008 0H19.2008C15.6723 0 12.8008 2.8715 12.8008 6.4V57.6C12.8008 61.1285 15.6723 64 19.2008 64H44.8008C48.3293 64 51.2008 61.1285 51.2008 57.6V6.4C51.2008 2.8715 48.3293 0 44.8008 0ZM48.0008 57.6C48.0008 59.3675 46.5683 60.8 44.8008 60.8H19.2008C17.4333 60.8 16.0008 59.3675 16.0008 57.6V6.4C16.0008 4.6325 17.4333 3.2 19.2008 3.2H44.8008C46.5683 3.2 48.0008 4.6325 48.0008 6.4V57.6Z" fill="#3084B6"/>
<path d="M32.0008 58.6666C33.7681 58.6666 35.2008 57.2339 35.2008 55.4666C35.2008 53.6993 33.7681 52.2666 32.0008 52.2666C30.2335 52.2666 28.8008 53.6993 28.8008 55.4666C28.8008 57.2339 30.2335 58.6666 32.0008 58.6666Z" fill="#3084B6"/>
<path d="M26.1332 8.53337C27.0169 8.53337 27.7332 7.81703 27.7332 6.93337C27.7332 6.04972 27.0169 5.33337 26.1332 5.33337C25.2495 5.33337 24.5332 6.04972 24.5332 6.93337C24.5332 7.81703 25.2495 8.53337 26.1332 8.53337Z" fill="#3084B6"/>
<defs>
<linearGradient id="paint0_linear_744_1313" x1="22.4" y1="41.4338" x2="55.2" y2="-8.9662" gradientUnits="userSpaceOnUse">
<stop offset="0.257999" stop-color="#FBFFE4"/>
<stop offset="1" stop-color="#CFE44A"/>
</linearGradient>
</defs>
</svg>
