<svg width="83" height="67" viewBox="0 0 83 67" fill="none" xmlns="http://www.w3.org/2000/svg">
<path d="M20.0211 29.5982C21.9094 36.0516 27.3521 49.216 36.5493 48.0344C45.7738 46.8491 42.1714 34.9543 50.6158 33.324C54.3331 32.6063 56.8528 39.0399 60.5784 38.8398C65.3766 38.5819 67.8189 33.8323 69.1598 29.8393C72.0028 21.3729 67.7452 7.01638 57.7802 4.52993C49.0843 2.36018 48.0671 12.985 40.5059 9.89889C36.2561 8.16432 36.6807 2.98441 31.5047 1.93921C15.8461 -1.2227 17.5086 21.0111 20.0211 29.5982Z" fill="url(#paint0_linear_220_12147)"/>
<path d="M60.5816 39.8119C59.787 39.8119 59.1406 39.1655 59.1406 38.3709C59.1406 37.5762 59.787 36.9298 60.5816 36.9298C61.3761 36.9298 62.0225 37.5762 62.0225 38.3709C62.0225 39.1655 61.3761 39.8119 60.5816 39.8119ZM60.5816 37.9382C60.343 37.9382 60.1489 38.1323 60.1489 38.371C60.1489 38.6096 60.343 38.8037 60.5816 38.8037C60.8201 38.8037 61.0142 38.6096 61.0142 38.371C61.0142 38.1323 60.8201 37.9382 60.5816 37.9382Z" fill="#25C3C8"/>
<path d="M26.7617 18.3523C26.628 18.3523 26.4998 18.2992 26.4052 18.2046C26.3107 18.1101 26.2576 17.9818 26.2576 17.8481C26.2576 17.5145 25.9862 17.2432 25.6526 17.2432C25.5189 17.2432 25.3906 17.19 25.2961 17.0955C25.2016 17.0009 25.1484 16.8727 25.1484 16.739C25.1484 16.6053 25.2016 16.4771 25.2961 16.3825C25.3906 16.288 25.5189 16.2349 25.6526 16.2349C25.9862 16.2349 26.2576 15.9635 26.2576 15.6299C26.2576 15.4962 26.3107 15.3679 26.4052 15.2734C26.4998 15.1788 26.628 15.1257 26.7617 15.1257C26.8954 15.1257 27.0236 15.1788 27.1182 15.2734C27.2127 15.3679 27.2659 15.4962 27.2659 15.6299C27.2659 15.9635 27.5372 16.2349 27.8708 16.2349C28.0045 16.2349 28.1328 16.288 28.2273 16.3825C28.3219 16.4771 28.375 16.6053 28.375 16.739C28.375 16.8727 28.3219 17.0009 28.2273 17.0955C28.1328 17.19 28.0045 17.2432 27.8708 17.2432C27.5372 17.2432 27.2659 17.5145 27.2659 17.8481C27.2659 17.9818 27.2127 18.1101 27.1182 18.2046C27.0236 18.2992 26.8954 18.3523 26.7617 18.3523ZM62.0251 44.3747C61.8914 44.3747 61.7631 44.3216 61.6686 44.2271C61.5741 44.1325 61.5209 44.0043 61.5209 43.8706C61.5209 43.537 61.2496 43.2656 60.916 43.2656C60.7823 43.2656 60.654 43.2125 60.5595 43.118C60.4649 43.0234 60.4118 42.8952 60.4118 42.7615C60.4118 42.6278 60.4649 42.4995 60.5595 42.405C60.654 42.3104 60.7823 42.2573 60.916 42.2573C61.2496 42.2573 61.5209 41.986 61.5209 41.6523C61.5209 41.5186 61.5741 41.3904 61.6686 41.2959C61.7631 41.2013 61.8914 41.1482 62.0251 41.1482C62.1588 41.1482 62.287 41.2013 62.3816 41.2959C62.4761 41.3904 62.5292 41.5186 62.5292 41.6523C62.5292 41.986 62.8006 42.2573 63.1342 42.2573C63.2679 42.2573 63.3962 42.3104 63.4907 42.405C63.5852 42.4995 63.6384 42.6278 63.6384 42.7615C63.6384 42.8952 63.5852 43.0234 63.4907 43.118C63.3962 43.2125 63.2679 43.2656 63.1342 43.2656C62.8006 43.2656 62.5292 43.537 62.5292 43.8706C62.5292 44.0043 62.4761 44.1325 62.3816 44.2271C62.287 44.3216 62.1588 44.3747 62.0251 44.3747Z" fill="#CFE44A"/>
<path d="M79.9934 33.5592C79.939 33.4371 79.9353 33.2983 79.9832 33.1735C80.0311 33.0487 80.1266 32.948 80.2488 32.8936C80.5535 32.7578 80.691 32.3995 80.5552 32.0947C80.5008 31.9726 80.4971 31.8339 80.545 31.709C80.5929 31.5842 80.6884 31.4835 80.8106 31.4291C80.9327 31.3747 81.0714 31.371 81.1963 31.4189C81.3211 31.4668 81.4218 31.5623 81.4762 31.6844C81.612 31.9892 81.9703 32.1266 82.275 31.9909C82.3972 31.9365 82.5359 31.9328 82.6608 31.9807C82.7856 32.0286 82.8863 32.1241 82.9407 32.2462C82.9951 32.3684 82.9988 32.5071 82.9509 32.6319C82.903 32.7568 82.8075 32.8575 82.6854 32.9119C82.3806 33.0477 82.2431 33.4059 82.3789 33.7107C82.4333 33.8328 82.437 33.9716 82.3891 34.0964C82.3412 34.2213 82.2457 34.322 82.1236 34.3764C82.0014 34.4308 81.8627 34.4345 81.7378 34.3866C81.613 34.3387 81.5123 34.2432 81.4579 34.121C81.3221 33.8163 80.9638 33.6788 80.6591 33.8146C80.5369 33.869 80.3982 33.8727 80.2734 33.8248C80.1485 33.7769 80.0478 33.6814 79.9934 33.5592ZM57.1174 2.79568C57.063 2.67354 57.0594 2.5348 57.1073 2.40996C57.1551 2.28512 57.2507 2.18442 57.3728 2.13001C57.6776 1.99423 57.815 1.63597 57.6792 1.3312C57.6248 1.20906 57.6212 1.07031 57.669 0.945476C57.7169 0.820639 57.8125 0.719938 57.9346 0.665527C58.0567 0.611116 58.1955 0.607452 58.3203 0.655341C58.4452 0.703231 58.5459 0.79875 58.6003 0.920886C58.736 1.22566 59.0943 1.36309 59.3991 1.22732C59.5212 1.17291 59.66 1.16924 59.7848 1.21713C59.9096 1.26502 60.0103 1.36054 60.0647 1.48268C60.1192 1.60481 60.1228 1.74356 60.0749 1.8684C60.027 1.99324 59.9315 2.09394 59.8094 2.14835C59.5046 2.28412 59.3672 2.64239 59.503 2.94716C59.5574 3.06929 59.561 3.20804 59.5131 3.33288C59.4652 3.45772 59.3697 3.55842 59.2476 3.61283C59.1255 3.66724 58.9867 3.67091 58.8619 3.62302C58.737 3.57513 58.6363 3.47961 58.5819 3.35747C58.4461 3.0527 58.0879 2.91527 57.7831 3.05104C57.661 3.10545 57.5222 3.10911 57.3974 3.06123C57.2726 3.01334 57.1719 2.91782 57.1174 2.79568Z" fill="#3084B6"/>
<path d="M6.27826 49.36C5.73312 49.3605 5.20404 49.1754 4.77818 48.8351C4.35232 48.4948 4.05509 48.0195 3.93544 47.4877C3.8158 46.9558 3.88088 46.3991 4.11997 45.9092C4.35905 45.4193 4.75789 45.0254 5.25076 44.7925C9.66076 42.7062 18.9783 39.2 31.8195 39.1675H32.0008C44.9245 39.1675 54.2983 42.6875 58.7508 44.7925C59.3011 45.0791 59.719 45.5678 59.9167 46.1561C60.1143 46.7443 60.0763 47.3862 59.8106 47.947C59.5449 48.5078 59.0723 48.9438 58.4919 49.1634C57.9116 49.3831 57.2687 49.3693 56.6983 49.125C52.6133 47.1962 43.987 43.965 32.0008 43.965H31.8308C19.9233 44 11.352 47.2125 7.30326 49.125C6.98316 49.2781 6.6331 49.3584 6.27826 49.36ZM32.0008 30.8325H31.8208C18.9783 30.8 9.66076 27.2937 5.25076 25.2075C4.70038 24.9208 4.28249 24.4321 4.08486 23.8439C3.88724 23.2557 3.92525 22.6137 4.19092 22.0529C4.45659 21.4922 4.92924 21.0561 5.5096 20.8365C6.08996 20.6168 6.73286 20.6306 7.30326 20.875C11.352 22.7912 19.9283 26.0087 31.8333 26.0387C43.9045 26.0712 52.5945 22.8162 56.6983 20.875C56.9844 20.726 57.2977 20.6362 57.6193 20.6111C57.9409 20.5859 58.2643 20.6259 58.5702 20.7287C58.876 20.8314 59.1579 20.9948 59.3991 21.209C59.6404 21.4233 59.8359 21.684 59.974 21.9755C60.1121 22.2671 60.19 22.5835 60.203 22.9059C60.216 23.2282 60.1638 23.5499 60.0496 23.8516C59.9354 24.1533 59.7616 24.4289 59.5384 24.6619C59.3152 24.8949 59.0473 25.0804 58.7508 25.2075C54.3008 27.3125 44.9245 30.8325 32.0008 30.8325ZM6.27701 37.3987C5.64082 37.3987 5.03069 37.146 4.58084 36.6961C4.13098 36.2463 3.87826 35.6362 3.87826 35C3.87826 34.3638 4.13098 33.7536 4.58084 33.3038C5.03069 32.8539 5.64082 32.6012 6.27701 32.6012H57.7245C58.3607 32.6012 58.9708 32.8539 59.4207 33.3038C59.8705 33.7536 60.1233 34.3638 60.1233 35C60.1233 35.6362 59.8705 36.2463 59.4207 36.6961C58.9708 37.146 58.3607 37.3987 57.7245 37.3987H6.27701Z" fill="#3084B6"/>
<path d="M30.8099 22.6988C30.9305 22.908 31.1041 23.0818 31.3133 23.2026C31.5224 23.3234 31.7596 23.3871 32.0012 23.3871C32.2427 23.3871 32.48 23.3234 32.6891 23.2026C32.8982 23.0818 33.0718 22.908 33.1924 22.6988L36.3174 17.2963C36.4381 17.0872 36.5017 16.85 36.5016 16.6086C36.5016 16.3672 36.438 16.1301 36.3173 15.9211C36.1966 15.712 36.0229 15.5384 35.8138 15.4178C35.6047 15.2971 35.3676 15.2337 35.1262 15.2338H34.4049V12.6825C34.4049 12.0463 34.1522 11.4362 33.7023 10.9863C33.2525 10.5365 32.6424 10.2838 32.0062 10.2838C31.37 10.2838 30.7599 10.5365 30.31 10.9863C29.8601 11.4362 29.6074 12.0463 29.6074 12.6825V15.2338H28.8762C28.6349 15.2339 28.3979 15.2975 28.1889 15.4183C27.98 15.539 27.8066 15.7126 27.686 15.9216C27.5654 16.1306 27.5019 16.3677 27.502 16.609C27.502 16.8502 27.5655 17.0873 27.6862 17.2963L30.8099 22.6988ZM32.0012 9.3025C32.6374 9.3025 33.2475 9.04978 33.6973 8.59993C34.1472 8.15007 34.3999 7.53994 34.3999 6.90375V6.77875C34.3999 6.14257 34.1472 5.53244 33.6973 5.08258C33.2475 4.63273 32.6374 4.38 32.0012 4.38C31.365 4.38 30.7548 4.63273 30.305 5.08258C29.8551 5.53244 29.6024 6.14257 29.6024 6.77875V6.90375C29.6024 7.53994 29.8551 8.15007 30.305 8.59993C30.7548 9.04978 31.365 9.3025 32.0012 9.3025ZM33.1924 47.5413C33.0718 47.332 32.8982 47.1582 32.6891 47.0374C32.48 46.9166 32.2427 46.8529 32.0012 46.8529C31.7596 46.8529 31.5224 46.9166 31.3133 47.0374C31.1041 47.1582 30.9305 47.332 30.8099 47.5413L27.6912 52.9438C27.5705 53.1527 27.507 53.3898 27.507 53.6311C27.5069 53.8724 27.5704 54.1094 27.691 54.3184C27.8116 54.5274 27.985 54.701 28.1939 54.8217C28.4029 54.9425 28.6399 55.0061 28.8812 55.0063H29.6024V57.5575C29.6024 58.1937 29.8551 58.8038 30.305 59.2537C30.7548 59.7035 31.365 59.9563 32.0012 59.9563C32.6374 59.9563 33.2475 59.7035 33.6973 59.2537C34.1472 58.8038 34.3999 58.1937 34.3999 57.5575V55.0063H35.1262C35.3675 55.0061 35.6045 54.9425 35.8134 54.8217C36.0223 54.701 36.1958 54.5274 36.3164 54.3184C36.437 54.1094 36.5004 53.8724 36.5004 53.6311C36.5003 53.3898 36.4368 53.1527 36.3162 52.9438L33.1924 47.5413ZM32.0012 60.6975C31.365 60.6975 30.7548 60.9502 30.305 61.4001C29.8551 61.8499 29.6024 62.4601 29.6024 63.0963V63.2213C29.6024 63.8574 29.8551 64.4676 30.305 64.9174C30.7548 65.3673 31.365 65.62 32.0012 65.62C32.6374 65.62 33.2475 65.3673 33.6973 64.9174C34.1472 64.4676 34.3999 63.8574 34.3999 63.2213V63.0963C34.3999 62.4601 34.1472 61.8499 33.6973 61.4001C33.2475 60.9502 32.6374 60.6975 32.0012 60.6975Z" fill="#3084B6"/>
<defs>
<linearGradient id="paint0_linear_220_12147" x1="24.8004" y1="41.2338" x2="57.6004" y2="-9.16621" gradientUnits="userSpaceOnUse">
<stop offset="0.257999" stop-color="#FBFFE4"/>
<stop offset="1" stop-color="#CFE44A"/>
</linearGradient>
</defs>
</svg>
