<svg width="83" height="67" viewBox="0 0 83 67" fill="none" xmlns="http://www.w3.org/2000/svg">
<path d="M20.0211 29.5982C21.9094 36.0516 27.3521 49.216 36.5493 48.0344C45.7738 46.8491 42.1714 34.9543 50.6158 33.324C54.3331 32.6063 56.8528 39.0399 60.5784 38.8398C65.3766 38.5819 67.8189 33.8323 69.1598 29.8393C72.0028 21.3729 67.7452 7.01638 57.7802 4.52993C49.0843 2.36018 48.0671 12.985 40.5059 9.89889C36.2561 8.16432 36.6807 2.98441 31.5047 1.93921C15.8461 -1.2227 17.5086 21.0111 20.0211 29.5982Z" fill="url(#paint0_linear_220_12173)"/>
<path d="M60.5816 39.812C59.787 39.812 59.1406 39.1656 59.1406 38.371C59.1406 37.5763 59.787 36.9299 60.5816 36.9299C61.3761 36.9299 62.0225 37.5763 62.0225 38.371C62.0225 39.1656 61.3761 39.812 60.5816 39.812ZM60.5816 37.9383C60.343 37.9383 60.1489 38.1324 60.1489 38.3711C60.1489 38.6098 60.343 38.8038 60.5816 38.8038C60.8201 38.8038 61.0142 38.6098 61.0142 38.3711C61.0142 38.1324 60.8201 37.9383 60.5816 37.9383Z" fill="#25C3C8"/>
<path d="M26.7617 18.3523C26.628 18.3523 26.4998 18.2992 26.4052 18.2046C26.3107 18.1101 26.2576 17.9818 26.2576 17.8481C26.2576 17.5145 25.9862 17.2432 25.6526 17.2432C25.5189 17.2432 25.3906 17.19 25.2961 17.0955C25.2016 17.0009 25.1484 16.8727 25.1484 16.739C25.1484 16.6053 25.2016 16.4771 25.2961 16.3825C25.3906 16.288 25.5189 16.2349 25.6526 16.2349C25.9862 16.2349 26.2576 15.9635 26.2576 15.6299C26.2576 15.4962 26.3107 15.3679 26.4052 15.2734C26.4998 15.1788 26.628 15.1257 26.7617 15.1257C26.8954 15.1257 27.0236 15.1788 27.1182 15.2734C27.2127 15.3679 27.2659 15.4962 27.2659 15.6299C27.2659 15.9635 27.5372 16.2349 27.8708 16.2349C28.0045 16.2349 28.1328 16.288 28.2273 16.3825C28.3219 16.4771 28.375 16.6053 28.375 16.739C28.375 16.8727 28.3219 17.0009 28.2273 17.0955C28.1328 17.19 28.0045 17.2432 27.8708 17.2432C27.5372 17.2432 27.2659 17.5145 27.2659 17.8481C27.2659 17.9818 27.2127 18.1101 27.1182 18.2046C27.0236 18.2992 26.8954 18.3523 26.7617 18.3523ZM62.0251 44.3747C61.8914 44.3747 61.7631 44.3216 61.6686 44.2271C61.5741 44.1325 61.5209 44.0043 61.5209 43.8706C61.5209 43.537 61.2496 43.2656 60.916 43.2656C60.7823 43.2656 60.654 43.2125 60.5595 43.118C60.4649 43.0234 60.4118 42.8952 60.4118 42.7615C60.4118 42.6278 60.4649 42.4995 60.5595 42.405C60.654 42.3104 60.7823 42.2573 60.916 42.2573C61.2496 42.2573 61.5209 41.986 61.5209 41.6523C61.5209 41.5186 61.5741 41.3904 61.6686 41.2959C61.7631 41.2013 61.8914 41.1482 62.0251 41.1482C62.1588 41.1482 62.287 41.2013 62.3816 41.2959C62.4761 41.3904 62.5292 41.5186 62.5292 41.6523C62.5292 41.986 62.8006 42.2573 63.1342 42.2573C63.2679 42.2573 63.3962 42.3104 63.4907 42.405C63.5852 42.4995 63.6384 42.6278 63.6384 42.7615C63.6384 42.8952 63.5852 43.0234 63.4907 43.118C63.3962 43.2125 63.2679 43.2656 63.1342 43.2656C62.8006 43.2656 62.5292 43.537 62.5292 43.8706C62.5292 44.0043 62.4761 44.1325 62.3816 44.2271C62.287 44.3216 62.1588 44.3747 62.0251 44.3747Z" fill="#CFE44A"/>
<path d="M79.9934 33.5592C79.939 33.4371 79.9353 33.2983 79.9832 33.1735C80.0311 33.0487 80.1266 32.948 80.2488 32.8936C80.5535 32.7578 80.691 32.3995 80.5552 32.0947C80.5008 31.9726 80.4971 31.8339 80.545 31.709C80.5929 31.5842 80.6884 31.4835 80.8106 31.4291C80.9327 31.3747 81.0714 31.371 81.1963 31.4189C81.3211 31.4668 81.4218 31.5623 81.4762 31.6844C81.612 31.9892 81.9703 32.1266 82.275 31.9909C82.3972 31.9365 82.5359 31.9328 82.6608 31.9807C82.7856 32.0286 82.8863 32.1241 82.9407 32.2462C82.9951 32.3684 82.9988 32.5071 82.9509 32.6319C82.903 32.7568 82.8075 32.8575 82.6854 32.9119C82.3806 33.0477 82.2431 33.4059 82.3789 33.7107C82.4333 33.8328 82.437 33.9716 82.3891 34.0964C82.3412 34.2213 82.2457 34.322 82.1236 34.3764C82.0014 34.4308 81.8627 34.4345 81.7378 34.3866C81.613 34.3387 81.5123 34.2432 81.4579 34.121C81.3221 33.8163 80.9638 33.6788 80.6591 33.8146C80.5369 33.869 80.3982 33.8727 80.2734 33.8248C80.1485 33.7769 80.0478 33.6814 79.9934 33.5592ZM57.1174 2.79568C57.063 2.67354 57.0594 2.5348 57.1073 2.40996C57.1551 2.28512 57.2507 2.18442 57.3728 2.13001C57.6776 1.99423 57.815 1.63597 57.6792 1.3312C57.6248 1.20906 57.6212 1.07031 57.669 0.945476C57.7169 0.820639 57.8125 0.719938 57.9346 0.665527C58.0567 0.611116 58.1955 0.607452 58.3203 0.655341C58.4452 0.703231 58.5459 0.79875 58.6003 0.920886C58.736 1.22566 59.0943 1.36309 59.3991 1.22732C59.5212 1.17291 59.66 1.16924 59.7848 1.21713C59.9096 1.26502 60.0103 1.36054 60.0647 1.48268C60.1192 1.60481 60.1228 1.74356 60.0749 1.8684C60.027 1.99324 59.9315 2.09394 59.8094 2.14835C59.5046 2.28412 59.3672 2.64239 59.503 2.94716C59.5574 3.06929 59.561 3.20804 59.5131 3.33288C59.4652 3.45772 59.3697 3.55842 59.2476 3.61283C59.1255 3.66724 58.9867 3.67091 58.8619 3.62302C58.737 3.57513 58.6363 3.47961 58.5819 3.35747C58.4461 3.0527 58.0879 2.91527 57.7831 3.05104C57.661 3.10545 57.5222 3.10911 57.3974 3.06123C57.2726 3.01334 57.1719 2.91782 57.1174 2.79568Z" fill="#3084B6"/>
<g clip-path="url(#clip0_220_12173)">
<path d="M55.585 36.1451C56.8957 35.2543 57.8863 33.9668 58.4114 32.4716C58.9365 30.9764 58.9684 29.3522 58.5024 27.8375C58.0365 26.3229 57.0972 24.9975 55.8224 24.0559C54.5477 23.1144 53.0047 22.6064 51.42 22.6064C49.8353 22.6064 48.2923 23.1144 47.0176 24.0559C45.7428 24.9975 44.8035 26.3229 44.3376 27.8375C43.8716 29.3522 43.9035 30.9764 44.4286 32.4716C44.9537 33.9668 45.9443 35.2543 47.255 36.1451C45.9058 36.6173 44.6475 37.3174 43.535 38.2151C41.6249 36.5487 39.3768 35.3154 36.945 34.6001C38.9168 33.505 40.4691 31.7861 41.3582 29.7133C42.2473 27.6404 42.4228 25.331 41.8572 23.1476C41.2916 20.9642 40.0169 19.0304 38.2333 17.6499C36.4496 16.2694 34.258 15.5204 32.0025 15.5204C29.747 15.5204 27.5554 16.2694 25.7717 17.6499C23.9881 19.0304 22.7134 20.9642 22.1478 23.1476C21.5822 25.331 21.7577 27.6404 22.6468 29.7133C23.5359 31.7861 25.0882 33.505 27.06 34.6001C24.6282 35.3154 22.3801 36.5487 20.47 38.2151C19.3575 37.3174 18.0992 36.6173 16.75 36.1451C18.0622 35.2541 19.0542 33.9659 19.5803 32.4696C20.1063 30.9733 20.1387 29.3477 19.6727 27.8317C19.2067 26.3156 18.2668 24.9889 16.9911 24.0464C15.7154 23.1039 14.1711 22.5953 12.585 22.5953C10.9989 22.5953 9.45461 23.1039 8.1789 24.0464C6.90319 24.9889 5.96331 26.3156 5.49729 27.8317C5.03127 29.3477 5.06366 30.9733 5.58971 32.4696C6.11577 33.9659 7.10776 35.2541 8.42 36.1451C5.96399 37.0095 3.83594 38.6133 2.32826 40.736C0.820569 42.8588 0.00723055 45.3964 0 48.0001C0 48.2653 0.105357 48.5196 0.292893 48.7072C0.48043 48.8947 0.734784 49.0001 1 49.0001C1.26522 49.0001 1.51957 48.8947 1.70711 48.7072C1.89464 48.5196 2 48.2653 2 48.0001C2.00382 46.0265 2.55929 44.0934 3.60368 42.4189C4.64808 40.7444 6.13981 39.3952 7.91045 38.5237C9.68108 37.6521 11.6601 37.2929 13.6241 37.4867C15.5881 37.6804 17.4588 38.4193 19.025 39.6201C16.0558 42.8536 14.4103 47.085 14.415 51.4751C14.415 51.7403 14.5204 51.9946 14.7079 52.1822C14.8954 52.3697 15.1498 52.4751 15.415 52.4751C15.6802 52.4751 15.9346 52.3697 16.1221 52.1822C16.3096 51.9946 16.415 51.7403 16.415 51.4751C16.4882 47.3907 18.1621 43.4983 21.0764 40.6357C23.9907 37.7731 27.9124 36.1692 31.9975 36.1692C36.0826 36.1692 40.0043 37.7731 42.9186 40.6357C45.8329 43.4983 47.5068 47.3907 47.58 51.4751C47.58 51.7403 47.6854 51.9946 47.8729 52.1822C48.0604 52.3697 48.3148 52.4751 48.58 52.4751C48.8452 52.4751 49.0996 52.3697 49.2871 52.1822C49.4746 51.9946 49.58 51.7403 49.58 51.4751C49.5847 47.085 47.9392 42.8536 44.97 39.6201C46.5362 38.4179 48.4074 37.6777 50.3722 37.4832C52.3369 37.2887 54.3169 37.6476 56.0884 38.5193C57.86 39.391 59.3524 40.7408 60.397 42.4162C61.4416 44.0915 61.9969 46.0257 62 48.0001C62 48.2653 62.1054 48.5196 62.2929 48.7072C62.4804 48.8947 62.7348 49.0001 63 49.0001C63.2652 49.0001 63.5196 48.8947 63.7071 48.7072C63.8946 48.5196 64 48.2653 64 48.0001C63.9931 45.397 63.1805 42.8599 61.6738 40.7372C60.167 38.6145 58.0401 37.0103 55.585 36.1451ZM7.17 30.0001C7.17297 28.9297 7.49307 27.8843 8.08988 26.9957C8.68668 26.1072 9.53342 25.4155 10.5231 25.008C11.5129 24.6004 12.6012 24.4953 13.6506 24.7059C14.7 24.9166 15.6635 25.4335 16.4193 26.1914C17.1751 26.9493 17.6893 27.9141 17.897 28.9641C18.1047 30.0141 17.9966 31.1021 17.5864 32.0907C17.1761 33.0793 16.482 33.9241 15.5918 34.5185C14.7017 35.1128 13.6553 35.43 12.585 35.4301C11.8728 35.4294 11.1677 35.2884 10.5101 35.0151C9.85242 34.7418 9.25507 34.3416 8.75217 33.8373C8.24928 33.333 7.8507 32.7345 7.57922 32.0761C7.30774 31.4177 7.16869 30.7122 7.17 30.0001ZM23.82 25.6901C23.824 24.0731 24.3071 22.4935 25.2083 21.151C26.1095 19.8084 27.3884 18.7631 28.8835 18.147C30.3785 17.5309 32.0226 17.3718 33.6081 17.6897C35.1935 18.0076 36.6492 18.7882 37.7912 19.933C38.9332 21.0778 39.7102 22.5353 40.0243 24.1216C40.3383 25.7078 40.1751 27.3515 39.5554 28.845C38.9357 30.3385 37.8872 31.6149 36.5425 32.5129C35.1977 33.4108 33.617 33.89 32 33.8901C29.8313 33.8874 27.7523 33.0247 26.2188 31.4913C24.6853 29.9578 23.8226 27.8787 23.82 25.7101V25.6901ZM46 30.0001C46 28.9291 46.3176 27.8821 46.9126 26.9916C47.5076 26.1011 48.3533 25.4071 49.3428 24.9972C50.3322 24.5874 51.421 24.4802 52.4714 24.6891C53.5218 24.898 54.4867 25.4138 55.244 26.1711C56.0013 26.9284 56.517 27.8932 56.726 28.9436C56.9349 29.994 56.8277 31.0828 56.4178 32.0723C56.008 33.0617 55.3139 33.9075 54.4234 34.5025C53.5329 35.0975 52.486 35.4151 51.415 35.4151C49.9793 35.4137 48.6027 34.8428 47.5875 33.8276C46.5723 32.8124 46.0013 31.4358 46 30.0001Z" fill="#3084B6" stroke="#3084B6" stroke-width="2"/>
</g>
<defs>
<linearGradient id="paint0_linear_220_12173" x1="24.8004" y1="41.2338" x2="57.6004" y2="-9.16621" gradientUnits="userSpaceOnUse">
<stop offset="0.257999" stop-color="#FBFFE4"/>
<stop offset="1" stop-color="#CFE44A"/>
</linearGradient>
<clipPath id="clip0_220_12173">
<rect width="64" height="64" fill="white" transform="translate(0 2)"/>
</clipPath>
</defs>
</svg>
