<svg width="84" height="67" viewBox="0 0 84 67" fill="none" xmlns="http://www.w3.org/2000/svg">
<path d="M21.0211 29.5982C22.9094 36.0516 28.3521 49.216 37.5493 48.0344C46.7738 46.8491 43.1714 34.9543 51.6158 33.324C55.3331 32.6063 57.8528 39.0399 61.5784 38.8398C66.3766 38.5819 68.8189 33.8323 70.1598 29.8393C73.0028 21.3729 68.7452 7.01638 58.7802 4.52993C50.0843 2.36018 49.0671 12.985 41.5059 9.89889C37.2561 8.16432 37.6807 2.98441 32.5047 1.93921C16.8461 -1.2227 18.5086 21.0111 21.0211 29.5982Z" fill="url(#paint0_linear_220_12168)"/>
<path d="M61.5816 39.812C60.787 39.812 60.1406 39.1656 60.1406 38.371C60.1406 37.5763 60.787 36.9299 61.5816 36.9299C62.3761 36.9299 63.0225 37.5763 63.0225 38.371C63.0225 39.1656 62.3761 39.812 61.5816 39.812ZM61.5816 37.9383C61.343 37.9383 61.1489 38.1324 61.1489 38.3711C61.1489 38.6098 61.343 38.8038 61.5816 38.8038C61.8201 38.8038 62.0142 38.6098 62.0142 38.3711C62.0142 38.1324 61.8201 37.9383 61.5816 37.9383Z" fill="#25C3C8"/>
<path d="M27.7617 18.3525C27.628 18.3525 27.4998 18.2994 27.4052 18.2049C27.3107 18.1103 27.2576 17.9821 27.2576 17.8484C27.2576 17.5147 26.9862 17.2434 26.6526 17.2434C26.5189 17.2434 26.3906 17.1903 26.2961 17.0957C26.2016 17.0012 26.1484 16.873 26.1484 16.7392C26.1484 16.6055 26.2016 16.4773 26.2961 16.3828C26.3906 16.2882 26.5189 16.2351 26.6526 16.2351C26.9862 16.2351 27.2576 15.9638 27.2576 15.6301C27.2576 15.4964 27.3107 15.3682 27.4052 15.2736C27.4998 15.1791 27.628 15.126 27.7617 15.126C27.8954 15.126 28.0236 15.1791 28.1182 15.2736C28.2127 15.3682 28.2659 15.4964 28.2659 15.6301C28.2659 15.9638 28.5372 16.2351 28.8708 16.2351C29.0045 16.2351 29.1328 16.2882 29.2273 16.3828C29.3219 16.4773 29.375 16.6055 29.375 16.7392C29.375 16.873 29.3219 17.0012 29.2273 17.0957C29.1328 17.1903 29.0045 17.2434 28.8708 17.2434C28.5372 17.2434 28.2659 17.5147 28.2659 17.8484C28.2659 17.9821 28.2127 18.1103 28.1182 18.2049C28.0236 18.2994 27.8954 18.3525 27.7617 18.3525ZM63.0251 44.375C62.8914 44.375 62.7632 44.3219 62.6686 44.2273C62.5741 44.1328 62.5209 44.0045 62.5209 43.8708C62.5209 43.5372 62.2496 43.2659 61.916 43.2659C61.7823 43.2659 61.654 43.2127 61.5595 43.1182C61.4649 43.0237 61.4118 42.8954 61.4118 42.7617C61.4118 42.628 61.4649 42.4998 61.5595 42.4052C61.654 42.3107 61.7823 42.2576 61.916 42.2576C62.2496 42.2576 62.5209 41.9862 62.5209 41.6526C62.5209 41.5189 62.5741 41.3907 62.6686 41.2961C62.7632 41.2016 62.8914 41.1484 63.0251 41.1484C63.1588 41.1484 63.287 41.2016 63.3816 41.2961C63.4761 41.3907 63.5292 41.5189 63.5292 41.6526C63.5292 41.9862 63.8006 42.2576 64.1342 42.2576C64.2679 42.2576 64.3962 42.3107 64.4907 42.4052C64.5852 42.4998 64.6384 42.628 64.6384 42.7617C64.6384 42.8954 64.5852 43.0237 64.4907 43.1182C64.3962 43.2127 64.2679 43.2659 64.1342 43.2659C63.8006 43.2659 63.5292 43.5372 63.5292 43.8708C63.5292 44.0045 63.4761 44.1328 63.3816 44.2273C63.287 44.3219 63.1588 44.375 63.0251 44.375Z" fill="#CFE44A"/>
<path d="M80.9934 33.5594C80.939 33.4372 80.9353 33.2985 80.9832 33.1736C81.0311 33.0488 81.1266 32.9481 81.2488 32.8937C81.5535 32.7579 81.691 32.3996 81.5552 32.0949C81.5008 31.9727 81.4971 31.834 81.545 31.7091C81.5929 31.5843 81.6884 31.4836 81.8106 31.4292C81.9327 31.3748 82.0714 31.3711 82.1963 31.419C82.3211 31.4669 82.4218 31.5624 82.4762 31.6846C82.612 31.9893 82.9703 32.1268 83.275 31.991C83.3972 31.9366 83.5359 31.9329 83.6608 31.9808C83.7856 32.0287 83.8863 32.1242 83.9407 32.2463C83.9951 32.3685 83.9988 32.5072 83.9509 32.6321C83.903 32.7569 83.8075 32.8576 83.6853 32.912C83.3806 33.0478 83.2431 33.4061 83.3789 33.7108C83.4333 33.833 83.437 33.9717 83.3891 34.0966C83.3412 34.2214 83.2457 34.3221 83.1236 34.3765C83.0014 34.4309 82.8627 34.4346 82.7378 34.3867C82.613 34.3388 82.5123 34.2433 82.4579 34.1211C82.3221 33.8164 81.9638 33.6789 81.6591 33.8147C81.5369 33.8691 81.3982 33.8728 81.2734 33.8249C81.1485 33.777 81.0478 33.6815 80.9934 33.5594ZM58.1174 2.7958C58.063 2.67367 58.0594 2.53492 58.1073 2.41008C58.1551 2.28524 58.2507 2.18454 58.3728 2.13013C58.6776 1.99436 58.815 1.63609 58.6792 1.33132C58.6248 1.20919 58.6212 1.07044 58.669 0.945599C58.7169 0.820761 58.8125 0.72006 58.9346 0.665649C59.0567 0.611238 59.1955 0.607574 59.3203 0.655463C59.4452 0.703353 59.5459 0.798872 59.6003 0.921008C59.736 1.22578 60.0943 1.36321 60.3991 1.22744C60.5212 1.17303 60.66 1.16937 60.7848 1.21725C60.9096 1.26514 61.0103 1.36066 61.0647 1.4828C61.1192 1.60493 61.1228 1.74368 61.0749 1.86852C61.027 1.99336 60.9315 2.09406 60.8094 2.14847C60.5046 2.28424 60.3672 2.64251 60.503 2.94728C60.5574 3.06942 60.561 3.20816 60.5131 3.333C60.4652 3.45784 60.3697 3.55854 60.2476 3.61295C60.1255 3.66736 59.9867 3.67103 59.8619 3.62314C59.737 3.57525 59.6363 3.47973 59.5819 3.35759C59.4461 3.05282 59.0879 2.91539 58.7831 3.05116C58.661 3.10557 58.5222 3.10924 58.3974 3.06135C58.2726 3.01346 58.1719 2.91794 58.1174 2.7958Z" fill="#3084B6"/>
<path d="M14.5446 44.468L3.04956 49.449C2.52556 49.675 2.53156 50.031 3.06056 50.243L32.1256 61.868C32.6546 62.08 33.5136 62.08 34.0436 61.868L63.1086 50.243C63.6366 50.031 63.6426 49.675 63.1186 49.449L51.6216 44.468" stroke="#3084B6" stroke-width="4" stroke-miterlimit="10" stroke-linecap="round" stroke-linejoin="round"/>
<path d="M14.5456 30.041L3.04956 35.023C2.52556 35.249 2.53156 35.605 3.06056 35.817L32.1256 47.442C32.6546 47.654 33.5136 47.654 34.0436 47.442L63.1086 35.817C63.6366 35.605 63.6426 35.25 63.1186 35.023L51.6206 30.041" stroke="#3084B6" stroke-width="4" stroke-miterlimit="10" stroke-linecap="round"/>
<path d="M3.06056 21.391L18.2176 27.454L32.1256 33.018C32.6546 33.23 33.5136 33.23 34.0436 33.018L47.9566 27.453L63.1086 21.392C63.6376 21.18 63.6436 20.825 63.1196 20.598L34.0316 7.99299C33.5076 7.76699 32.6596 7.76699 32.1366 7.99299L3.04956 20.597C2.52556 20.825 2.53156 21.18 3.06056 21.391Z" stroke="#3084B6" stroke-width="4" stroke-miterlimit="10" stroke-linecap="round" stroke-linejoin="round"/>
<defs>
<linearGradient id="paint0_linear_220_12168" x1="25.8004" y1="41.2338" x2="58.6004" y2="-9.16621" gradientUnits="userSpaceOnUse">
<stop offset="0.257999" stop-color="#FBFFE4"/>
<stop offset="1" stop-color="#CFE44A"/>
</linearGradient>
</defs>
</svg>
