<svg width="81" height="77" viewBox="0 0 81 77" fill="none" xmlns="http://www.w3.org/2000/svg">
<path opacity="0.2" fill-rule="evenodd" clip-rule="evenodd" d="M78.0637 41.9253C75.9658 42.6174 73.704 41.4778 73.0119 39.3799L62.9164 8.77893L31.9432 17.6671C29.8198 18.2765 27.6044 17.0491 26.9951 14.9256C26.3857 12.8022 27.6131 10.5868 29.7366 9.97746L62.5582 0.558836C65.6554 -0.329953 68.9016 1.3863 69.9111 4.44627L80.6091 36.8735C81.3013 38.9714 80.1616 41.2331 78.0637 41.9253ZM61.705 72.867C59.6071 73.5592 57.3453 72.4195 56.6532 70.3216L46.5577 39.7207L15.5845 48.6089C13.4611 49.2182 11.2457 47.9908 10.6364 45.8674C10.027 43.744 11.2544 41.5286 13.3779 40.9192L46.1995 31.5006C49.2967 30.6118 52.5429 32.3281 53.5524 35.388L64.2504 67.8152C64.9426 69.9131 63.8029 72.1749 61.705 72.867ZM40.2945 101.263C40.9866 103.361 43.2484 104.501 45.3463 103.809C47.4442 103.117 48.5839 100.855 47.8917 98.757L37.1937 66.3298C36.1842 63.2698 32.938 61.5536 29.8408 62.4424L-2.98083 71.861C-5.10427 72.4704 -6.33168 74.6857 -5.72233 76.8091C-5.11298 78.9326 -2.89761 80.16 -0.774179 79.5506L30.199 70.6625L40.2945 101.263ZM28.9876 134.751C26.8897 135.443 24.6279 134.303 23.9358 132.205L13.8403 101.604L-17.1329 110.492C-19.2563 111.102 -21.4717 109.874 -22.081 107.751C-22.6904 105.627 -21.463 103.412 -19.3395 102.803L13.4821 93.3841C16.5793 92.4953 19.8255 94.2116 20.835 97.2716L31.533 129.699C32.2252 131.797 31.0855 134.058 28.9876 134.751ZM7.57709 163.147C8.26922 165.245 10.531 166.384 12.6289 165.692C14.7268 165 15.8664 162.738 15.1743 160.641L4.4763 128.213C3.46679 125.153 0.220588 123.437 -2.87661 124.326L-35.6982 133.745C-37.8217 134.354 -39.0491 136.569 -38.4397 138.693C-37.8304 140.816 -35.615 142.044 -33.4916 141.434L-2.51843 132.546L7.57709 163.147Z" fill="white"/>
</svg>
