<svg width="142" height="305" viewBox="0 0 142 305" fill="none" xmlns="http://www.w3.org/2000/svg">
<rect width="142" height="305" fill="url(#paint0_linear_241_13959)"/>
<path d="M39.507 184.25C56.7433 184.25 70.7639 170.228 70.7639 152.993C70.7639 135.758 56.7433 121.736 39.507 121.736C22.2707 121.736 8.25 135.757 8.25 152.993C8.25 170.229 22.2707 184.25 39.507 184.25ZM39.5078 180.99C24.0706 180.99 11.5109 168.429 11.5109 152.993C11.5109 137.557 24.0706 124.996 39.507 124.996C54.9433 124.996 67.5048 137.556 67.5048 152.993C67.5048 168.43 54.9451 180.99 39.5078 180.99Z" fill="#3084B6" stroke="#3084B6" stroke-width="1.5"/>
<path d="M94 152.5C94 153.03 93.8096 153.539 93.4707 153.914C93.1318 154.289 92.6721 154.5 92.1928 154.5H47.8072C47.3279 154.5 46.8682 154.289 46.5293 153.914C46.1904 153.539 46 153.03 46 152.5C46 151.97 46.1904 151.461 46.5293 151.086C46.8682 150.711 47.3279 150.5 47.8072 150.5H92.1928C92.6721 150.5 93.1318 150.711 93.4707 151.086C93.8096 151.461 94 151.97 94 152.5Z" fill="#CFE44A"/>
<path d="M95 153.038V153.08C94.9938 153.368 94.92 153.651 94.7849 153.904C94.6497 154.158 94.4571 154.375 94.2229 154.538L81.7878 163.184C81.5945 163.318 81.3771 163.413 81.1479 163.461C80.9188 163.51 80.6825 163.513 80.4524 163.469C80.2224 163.424 80.0031 163.335 79.8072 163.204C79.6113 163.074 79.4425 162.905 79.3105 162.708C79.1784 162.511 79.0858 162.29 79.0378 162.056C78.9899 161.823 78.9875 161.582 79.0308 161.348C79.0742 161.113 79.1625 160.89 79.2906 160.69C79.4186 160.491 79.5841 160.319 79.7774 160.184L90.1611 152.963L80.747 145.739C80.3824 145.445 80.1452 145.017 80.086 144.547C80.0268 144.077 80.1503 143.602 80.4302 143.223C80.7101 142.845 81.1241 142.593 81.5839 142.521C82.0437 142.449 82.5128 142.563 82.8911 142.839L94.2906 151.587C94.738 151.932 95 152.469 95 153.038Z" fill="#CFE44A"/>
<defs>
<linearGradient id="paint0_linear_241_13959" x1="93.5909" y1="132.668" x2="-0.000239546" y2="132.137" gradientUnits="userSpaceOnUse">
<stop stop-color="#447998" stop-opacity="0.12"/>
<stop offset="0.804" stop-color="#9BC4DD" stop-opacity="0"/>
<stop offset="1" stop-color="white" stop-opacity="0"/>
</linearGradient>
</defs>
</svg>
