<svg width="54" height="40" viewBox="0 0 54 40" fill="none" xmlns="http://www.w3.org/2000/svg">
<path d="M13.1671 0C20.6198 0 26.0005 6.153 26.0005 15.2647C25.9538 28.5017 16.0021 37.8607 1.64513 39.6573C0.315132 39.8253 -0.198201 37.9773 1.0268 37.4337C6.53347 34.9837 9.31713 31.8757 9.67647 28.8003C9.9448 26.502 8.69647 24.4883 7.12613 24.1103C3.05913 23.1327 0.333799 18.067 0.333799 12.8333C0.333799 9.42972 1.68588 6.16551 4.0926 3.7588C6.49931 1.35208 9.76352 0 13.1671 0ZM41.1671 0C48.6198 0 54.0005 6.153 54.0005 15.2647C53.9538 28.5017 44.0021 37.8607 29.6451 39.6573C28.3151 39.8253 27.8018 37.9773 29.0268 37.4337C34.5335 34.9837 37.3171 31.8757 37.6765 28.8003C37.9448 26.502 36.6965 24.4883 35.1261 24.1103C31.0591 23.1327 28.3338 18.067 28.3338 12.8333C28.3338 9.42972 29.6859 6.16551 32.0926 3.7588C34.4993 1.35208 37.7635 0 41.1671 0Z" fill="#CFE44A"/>
</svg>
