<svg width="32" height="32" viewBox="0 0 32 32" fill="none" xmlns="http://www.w3.org/2000/svg">
<path d="M10.7724 26.6666C12.744 26.7325 14.7088 26.4026 16.5507 25.6963C18.3926 24.99 20.0743 23.9216 21.4963 22.5543C22.9183 21.187 24.0517 19.5486 24.8297 17.7357C25.6077 15.9229 26.0144 13.9726 26.0257 11.9999C26.9293 10.8818 27.6002 9.59434 27.9991 8.21323C28.0289 8.10411 28.0264 7.98871 27.9922 7.88093C27.9579 7.77314 27.8931 7.67757 27.8058 7.60572C27.7184 7.53386 27.6122 7.48879 27.4998 7.47593C27.3874 7.46307 27.2737 7.48297 27.1724 7.53323C26.6997 7.76077 26.1675 7.83427 25.6509 7.74337C25.1342 7.65247 24.6591 7.40176 24.2924 7.02656C23.8243 6.514 23.2582 6.1006 22.6274 5.81087C21.9966 5.52113 21.3141 5.36095 20.6203 5.33981C19.9265 5.31867 19.2356 5.43701 18.5883 5.68781C17.9411 5.93861 17.3508 6.31678 16.8524 6.7999C16.17 7.46077 15.6702 8.28695 15.4015 9.19813C15.1328 10.1093 15.1044 11.0745 15.3191 11.9999C10.8524 12.2666 7.78574 10.1466 5.33241 7.2399C5.25871 7.15643 5.1623 7.09623 5.05495 7.06666C4.9476 7.03708 4.83396 7.0394 4.72791 7.07333C4.62186 7.10727 4.52799 7.17135 4.45775 7.25776C4.38752 7.34416 4.34397 7.44915 4.33241 7.5599C3.86504 10.1525 4.20218 12.826 5.29857 15.2213C6.39495 17.6167 8.19807 19.6192 10.4657 20.9599C8.94526 22.7037 6.81002 23.7928 4.50575 23.9999C4.38229 24.0204 4.26833 24.0789 4.17981 24.1674C4.09129 24.2558 4.03264 24.3697 4.01207 24.4932C3.9915 24.6166 4.01003 24.7434 4.06508 24.8558C4.12013 24.9681 4.20894 25.0605 4.31908 25.1199C6.32377 26.1217 8.53139 26.6508 10.7724 26.6666Z" fill="white"/>
</svg>
