<svg width="1144" height="173" viewBox="0 0 1144 173" fill="none" xmlns="http://www.w3.org/2000/svg">
<path fill-rule="evenodd" clip-rule="evenodd" d="M28.4516 4.45598C30.9054 4.85972 33.2369 5.5132 35.4586 6.39451C36.4853 6.8018 37.6478 6.29964 38.0551 5.27291C38.4624 4.24617 37.9603 3.08366 36.9335 2.67637C34.4476 1.69023 31.8395 0.959619 29.101 0.509046C28.0111 0.329714 26.9822 1.06789 26.8029 2.1578C26.6235 3.24772 27.3617 4.27664 28.4516 4.45598ZM21.1562 3.99899C22.2602 3.96298 23.1259 3.03883 23.0899 1.93484C23.0539 0.830861 22.1298 -0.0348982 21.0258 0.00111643C18.4615 0.084768 15.8037 0.3909 13.0469 0.930758C11.963 1.14304 11.2563 2.19386 11.4686 3.27784C11.6809 4.36182 12.7317 5.06847 13.8157 4.85619C16.3761 4.35477 18.8203 4.07519 21.1562 3.99899ZM44.1323 6.44206C43.2098 5.83455 41.9695 6.08991 41.362 7.01241C40.7545 7.93492 41.0099 9.17523 41.9324 9.78274C43.9418 11.106 45.8621 12.6403 47.7021 14.3687C48.5071 15.125 49.7729 15.0854 50.5291 14.2803C51.2854 13.4752 51.2458 12.2095 50.4407 11.4533C48.4495 9.58278 46.3505 7.9028 44.1323 6.44206ZM6.6025 6.76652C7.65141 6.42029 8.22103 5.28931 7.8748 4.24041C7.52857 3.19151 6.39759 2.62188 5.34869 2.96811C4.08407 3.38555 2.80007 3.84817 1.49622 4.3569C0.467204 4.7584 -0.0415016 5.91806 0.359995 6.94707C0.761491 7.97609 1.92115 8.48479 2.95017 8.0833C4.19063 7.5993 5.40788 7.16085 6.6025 6.76652ZM566.105 120.186C567.199 120.335 568.208 119.569 568.357 118.475C568.506 117.38 567.74 116.372 566.646 116.222C565.299 116.038 563.97 115.871 562.658 115.718C561.56 115.591 560.568 116.377 560.441 117.475C560.313 118.572 561.1 119.565 562.197 119.692C563.482 119.841 564.784 120.005 566.105 120.186ZM554.527 118.968C555.629 119.047 556.587 118.218 556.666 117.117C556.746 116.015 555.917 115.057 554.815 114.978C552.112 114.783 549.486 114.658 546.934 114.599C545.83 114.574 544.914 115.448 544.888 116.553C544.863 117.657 545.738 118.573 546.842 118.598C549.327 118.656 551.888 118.777 554.527 118.968ZM55.8716 17.322C55.1749 16.4649 53.9152 16.3348 53.0581 17.0315C52.2009 17.7282 52.0709 18.9878 52.7676 19.8449C54.3054 21.737 55.7814 23.7727 57.202 25.9378C57.808 26.8613 59.0479 27.1187 59.9714 26.5127C60.8949 25.9067 61.1523 24.6668 60.5463 23.7433C59.0599 21.4781 57.5045 19.3311 55.8716 17.322ZM539.152 118.629C540.256 118.593 541.122 117.67 541.087 116.566C541.051 115.462 540.128 114.595 539.024 114.631C536.297 114.718 533.66 114.885 531.108 115.125C530.009 115.228 529.201 116.203 529.304 117.303C529.408 118.403 530.383 119.211 531.483 119.107C533.951 118.875 536.506 118.713 539.152 118.629ZM523.873 120.082C524.963 119.903 525.703 118.875 525.524 117.785C525.346 116.695 524.318 115.956 523.228 116.134C520.531 116.575 517.936 117.102 515.435 117.705C514.362 117.964 513.701 119.044 513.96 120.118C514.219 121.192 515.299 121.852 516.373 121.594C518.776 121.014 521.274 120.507 523.873 120.082ZM64.6091 30.5137C64.0759 29.5463 62.8595 29.1943 61.8921 29.7275C60.9248 30.2607 60.5728 31.4771 61.106 32.4445C62.3043 34.6186 63.4604 36.8843 64.5797 39.23C65.0554 40.2269 66.2492 40.6494 67.2461 40.1737C68.243 39.698 68.6655 38.5043 68.1898 37.5074C67.0408 35.0995 65.8493 32.7637 64.6091 30.5137ZM509.036 123.67C510.086 123.328 510.659 122.198 510.316 121.148C509.973 120.098 508.844 119.525 507.794 119.868C505.198 120.716 502.713 121.647 500.326 122.649C499.307 123.076 498.828 124.248 499.255 125.267C499.682 126.285 500.854 126.765 501.873 126.337C504.162 125.377 506.546 124.484 509.036 123.67ZM494.945 129.578C495.926 129.071 496.31 127.864 495.803 126.883C495.296 125.902 494.089 125.518 493.108 126.025C490.704 127.268 488.405 128.578 486.198 129.935C485.257 130.514 484.963 131.746 485.542 132.687C486.121 133.627 487.352 133.921 488.293 133.343C490.423 132.033 492.635 130.773 494.945 129.578ZM71.3947 44.6486C70.9641 43.6314 69.7905 43.1559 68.7733 43.5864C67.7561 44.017 67.2806 45.1907 67.7112 46.2079C68.6921 48.5252 69.6447 50.9001 70.5735 53.3225C70.9689 54.3539 72.1256 54.8694 73.1569 54.474C74.1883 54.0786 74.7038 52.922 74.3084 51.8906C73.3653 49.4307 72.3956 47.013 71.3947 44.6486ZM274.19 93.7169C275.425 93.8531 276.671 94.0446 277.931 94.2946C279.185 94.5435 280.419 94.8145 281.636 95.1068C282.71 95.3648 283.79 94.7033 284.048 93.6292C284.306 92.5552 283.644 91.4754 282.57 91.2174C281.302 90.9128 280.016 90.6304 278.71 90.3712C277.338 90.0989 275.978 89.8898 274.628 89.741C273.53 89.62 272.542 90.412 272.421 91.5099C272.3 92.6078 273.092 93.5959 274.19 93.7169ZM290.141 93.3613C289.092 93.0178 287.962 93.5904 287.619 94.6402C287.275 95.69 287.848 96.8195 288.898 97.1629C291.327 97.9578 293.684 98.8388 295.976 99.7965C296.995 100.222 298.167 99.7413 298.593 98.7221C299.018 97.7029 298.537 96.5315 297.518 96.1057C295.131 95.1083 292.675 94.19 290.141 93.3613ZM266.687 93.5569C267.789 93.4826 268.623 92.5289 268.548 91.4268C268.474 90.3248 267.52 89.4917 266.418 89.566C263.666 89.7517 260.966 90.179 258.313 90.818C257.239 91.0766 256.578 92.1569 256.837 93.2307C257.095 94.3046 258.176 94.9654 259.25 94.7068C261.695 94.1177 264.172 93.7266 266.687 93.5569ZM481.883 137.582C482.785 136.944 483 135.696 482.362 134.794C481.725 133.892 480.477 133.677 479.575 134.315C477.383 135.863 475.278 137.445 473.243 139.036C472.372 139.716 472.219 140.973 472.899 141.843C473.579 142.714 474.836 142.868 475.706 142.187C477.701 140.628 479.753 139.086 481.883 137.582ZM304.652 99.4114C303.668 98.91 302.464 99.3015 301.963 100.286C301.461 101.27 301.853 102.474 302.837 102.976C305.101 104.129 307.305 105.356 309.46 106.646C310.408 107.213 311.636 106.905 312.203 105.957C312.771 105.009 312.462 103.781 311.515 103.214C309.287 101.88 307.003 100.609 304.652 99.4114ZM76.998 59.2029C76.6296 58.1615 75.4868 57.616 74.4454 57.9844C73.4041 58.3528 72.8586 59.4956 73.227 60.5369C74.0755 62.9354 74.9057 65.3674 75.7217 67.8244C76.0699 68.8726 77.2019 69.4402 78.2502 69.092C79.2985 68.7439 79.866 67.6118 79.5179 66.5636C78.695 64.086 77.8563 61.6292 76.998 59.2029ZM252.043 97.0279C253.068 96.6161 253.565 95.4515 253.153 94.4265C252.741 93.4016 251.577 92.9045 250.552 93.3162C248.067 94.3146 245.623 95.4835 243.218 96.7949C242.248 97.3237 241.89 98.5385 242.419 99.5083C242.948 100.478 244.163 100.836 245.132 100.307C247.416 99.0619 249.718 97.9619 252.043 97.0279ZM318.111 107.439C317.198 106.817 315.954 107.053 315.332 107.965C314.709 108.878 314.945 110.122 315.857 110.744C317.957 112.176 320.015 113.662 322.041 115.191C322.923 115.856 324.177 115.681 324.843 114.799C325.508 113.918 325.333 112.664 324.451 111.998C322.38 110.435 320.27 108.911 318.111 107.439ZM469.684 147.056C470.534 146.351 470.651 145.09 469.946 144.24C469.241 143.39 467.98 143.272 467.13 143.978C465.726 145.143 464.342 146.306 462.98 147.45C462.36 147.971 461.744 148.489 461.133 149.001C460.287 149.71 460.175 150.972 460.885 151.818C461.594 152.665 462.856 152.776 463.702 152.066C464.322 151.547 464.941 151.027 465.563 150.504C466.921 149.363 468.289 148.213 469.684 147.056ZM330.575 116.807C329.718 116.11 328.459 116.24 327.762 117.097C327.065 117.954 327.194 119.213 328.051 119.91C330.031 121.521 331.988 123.163 333.934 124.826C334.774 125.543 336.036 125.444 336.754 124.604C337.471 123.765 337.372 122.502 336.533 121.785C334.569 120.106 332.586 118.443 330.575 116.807ZM238.568 104.297C239.487 103.683 239.734 102.441 239.121 101.523C238.507 100.604 237.265 100.357 236.347 100.97C234.152 102.436 231.984 104.005 229.839 105.657C228.964 106.331 228.8 107.587 229.474 108.462C230.148 109.337 231.404 109.5 232.279 108.827C234.363 107.222 236.458 105.706 238.568 104.297ZM81.9136 73.9556C81.5797 72.9027 80.4555 72.3198 79.4026 72.6536C78.3497 72.9875 77.7668 74.1117 78.1007 75.1646C78.8765 77.6114 79.6422 80.0727 80.4017 82.5407C80.7266 83.5964 81.8458 84.1889 82.9015 83.864C83.9572 83.5391 84.5496 82.4199 84.2247 81.3642C83.4629 78.8887 82.6937 76.4161 81.9136 73.9556ZM342.38 126.854C341.549 126.126 340.286 126.21 339.558 127.041C338.83 127.872 338.914 129.135 339.745 129.863C340.711 130.709 341.676 131.557 342.642 132.406C343.608 133.254 344.575 134.104 345.543 134.952C346.374 135.68 347.638 135.596 348.365 134.765C349.093 133.935 349.01 132.671 348.179 131.943C347.22 131.104 346.263 130.262 345.304 129.42L345.282 129.401L345.258 129.38C344.3 128.538 343.341 127.696 342.38 126.854ZM457.634 157.053C458.498 156.365 458.641 155.106 457.952 154.243C457.264 153.379 456.005 153.236 455.142 153.925C453.093 155.557 451.059 157.107 449.009 158.545C448.105 159.18 447.886 160.427 448.52 161.331C449.155 162.235 450.402 162.454 451.306 161.82C453.442 160.321 455.543 158.72 457.634 157.053ZM226.244 113.726C227.085 113.01 227.187 111.748 226.471 110.907C225.755 110.065 224.493 109.964 223.652 110.679C221.652 112.38 219.667 114.139 217.694 115.936C216.877 116.68 216.818 117.945 217.562 118.762C218.306 119.578 219.571 119.637 220.388 118.893C222.334 117.12 224.285 115.393 226.244 113.726ZM353.989 136.981C353.15 136.263 351.887 136.362 351.17 137.202C350.452 138.042 350.551 139.304 351.391 140.022C353.355 141.7 355.337 143.364 357.348 144.999C358.205 145.696 359.465 145.567 360.162 144.71C360.859 143.853 360.729 142.593 359.872 141.896C357.892 140.286 355.935 138.644 353.989 136.981ZM86.4874 88.7759C86.1665 87.719 85.0495 87.1224 83.9926 87.4434C82.9356 87.7644 82.3391 88.8814 82.66 89.9383C82.7991 90.3961 82.938 90.854 83.077 91.3118L83.3083 92.0739C83.8425 93.8342 84.3761 95.5926 84.91 97.3442C85.232 98.4008 86.3496 98.9963 87.4062 98.6742C88.4628 98.3522 89.0582 97.2346 88.7362 96.178C88.2028 94.428 87.67 92.6723 87.1358 90.9121L86.4874 88.7759ZM365.882 146.615C365 145.95 363.746 146.125 363.081 147.007C362.416 147.889 362.591 149.143 363.473 149.808C365.544 151.371 367.654 152.895 369.813 154.367C370.725 154.989 371.97 154.754 372.592 153.841C373.214 152.929 372.979 151.684 372.066 151.062C369.966 149.631 367.909 148.145 365.882 146.615ZM444.538 166.098C445.503 165.56 445.85 164.342 445.312 163.377C444.774 162.412 443.556 162.066 442.591 162.603C440.383 163.834 438.128 164.907 435.794 165.793C434.761 166.184 434.241 167.339 434.633 168.372C435.024 169.405 436.179 169.924 437.212 169.533C439.751 168.57 442.183 167.41 444.538 166.098ZM214.653 124.241C215.453 123.48 215.485 122.214 214.724 121.414C213.963 120.613 212.697 120.581 211.896 121.342C209.994 123.151 208.098 124.982 206.207 126.817C205.415 127.587 205.396 128.853 206.165 129.646C206.935 130.438 208.201 130.457 208.993 129.688C210.88 127.856 212.765 126.036 214.653 124.241ZM378.463 155.161C377.516 154.593 376.287 154.902 375.72 155.85C375.153 156.797 375.461 158.025 376.409 158.593C378.636 159.926 380.921 161.198 383.271 162.395C384.255 162.896 385.46 162.505 385.961 161.521C386.462 160.537 386.071 159.332 385.087 158.831C382.823 157.678 380.618 156.451 378.463 155.161ZM429.385 171.759C430.47 171.551 431.18 170.503 430.972 169.418C430.764 168.333 429.716 167.622 428.632 167.83C426.283 168.281 423.827 168.543 421.236 168.587C420.131 168.606 419.251 169.517 419.27 170.621C419.289 171.726 420.2 172.606 421.304 172.587C424.125 172.538 426.81 172.252 429.385 171.759ZM391.947 162.01C390.928 161.584 389.757 162.065 389.331 163.084C388.905 164.104 389.386 165.275 390.405 165.701C392.793 166.698 395.249 167.616 397.782 168.445C398.832 168.789 399.961 168.216 400.305 167.166C400.648 166.116 400.076 164.987 399.026 164.644C396.597 163.849 394.24 162.968 391.947 162.01ZM91.006 103.558C90.6777 102.503 89.5566 101.914 88.5019 102.243C87.4473 102.571 86.8585 103.692 87.1868 104.747C87.9619 107.236 88.7425 109.706 89.5326 112.146C89.8729 113.197 91.0006 113.773 92.0515 113.433C93.1023 113.093 93.6784 111.965 93.3381 110.914C92.5537 108.492 91.7777 106.037 91.006 103.558ZM413.225 172.102C414.32 172.248 415.325 171.478 415.471 170.383C415.617 169.288 414.847 168.283 413.752 168.137C412.53 167.974 411.278 167.767 409.993 167.512C408.739 167.263 407.504 166.992 406.288 166.7C405.214 166.442 404.134 167.103 403.876 168.177C403.618 169.251 404.279 170.331 405.353 170.589C406.621 170.894 407.908 171.176 409.214 171.435C410.579 171.706 411.916 171.928 413.225 172.102ZM203.344 135.18C204.137 134.411 204.156 133.145 203.386 132.352C202.617 131.56 201.351 131.541 200.558 132.31C198.672 134.142 196.787 135.962 194.899 137.757C194.099 138.518 194.067 139.784 194.828 140.584C195.589 141.385 196.855 141.417 197.655 140.655C199.558 138.847 201.454 137.016 203.344 135.18ZM95.7737 118.228C95.4148 117.183 94.277 116.627 93.2324 116.986C92.1877 117.345 91.6318 118.483 91.9907 119.528C92.8471 122.021 93.7192 124.471 94.6116 126.868C94.997 127.903 96.1486 128.43 97.1838 128.045C98.2189 127.659 98.7456 126.508 98.3602 125.472C97.4814 123.112 96.6208 120.694 95.7737 118.228ZM191.858 146.062C192.674 145.318 192.733 144.053 191.99 143.236C191.246 142.42 189.981 142.361 189.164 143.105C187.218 144.877 185.267 146.605 183.308 148.272C182.467 148.987 182.365 150.25 183.081 151.091C183.796 151.932 185.059 152.034 185.9 151.318C187.9 149.617 189.885 147.859 191.858 146.062ZM101.157 132.613C100.735 131.593 99.5651 131.107 98.5443 131.529C97.5236 131.951 97.0382 133.121 97.4603 134.142C98.4807 136.61 99.5322 139.004 100.621 141.308C101.093 142.307 102.285 142.734 103.284 142.262C104.282 141.79 104.709 140.598 104.238 139.599C103.181 137.362 102.156 135.03 101.157 132.613ZM179.713 156.341C180.588 155.667 180.751 154.411 180.078 153.536C179.404 152.661 178.148 152.497 177.273 153.171C175.188 154.776 173.093 156.292 170.983 157.701C170.065 158.315 169.818 159.557 170.431 160.475C171.045 161.394 172.287 161.641 173.205 161.028C175.399 159.562 177.567 157.992 179.713 156.341ZM107.697 146.347C107.158 145.383 105.939 145.039 104.975 145.579C104.011 146.118 103.667 147.337 104.207 148.301C105.544 150.69 106.941 152.949 108.408 155.054C109.039 155.96 110.286 156.183 111.192 155.551C112.098 154.92 112.321 153.673 111.69 152.767C110.308 150.785 108.98 148.639 107.697 146.347ZM166.334 165.203C167.304 164.674 167.661 163.459 167.133 162.49C166.604 161.52 165.389 161.162 164.419 161.691C162.136 162.936 159.834 164.036 157.509 164.97C156.484 165.382 155.987 166.546 156.399 167.571C156.81 168.596 157.975 169.093 159 168.682C161.485 167.683 163.928 166.514 166.334 165.203ZM116.357 158.593C115.603 157.786 114.337 157.743 113.53 158.497C112.724 159.252 112.681 160.517 113.435 161.324C115.341 163.363 117.365 165.166 119.524 166.688C120.427 167.324 121.675 167.109 122.311 166.206C122.947 165.303 122.732 164.055 121.829 163.419C119.922 162.075 118.102 160.46 116.357 158.593ZM151.239 171.18C152.313 170.921 152.974 169.841 152.715 168.767C152.456 167.693 151.376 167.032 150.302 167.291C147.856 167.88 145.379 168.271 142.864 168.441C141.762 168.515 140.929 169.469 141.003 170.571C141.078 171.673 142.031 172.506 143.134 172.432C145.886 172.246 148.586 171.819 151.239 171.18ZM128.167 166.748C127.127 166.376 125.982 166.917 125.61 167.957C125.237 168.997 125.779 170.142 126.819 170.514C128.121 170.98 129.461 171.353 130.842 171.627C132.213 171.899 133.574 172.108 134.924 172.257C136.022 172.378 137.01 171.586 137.131 170.488C137.252 169.39 136.46 168.402 135.362 168.281C134.127 168.145 132.88 167.953 131.621 167.703C130.435 167.468 129.285 167.148 128.167 166.748ZM1115.55 4.456C1113.09 4.85974 1110.76 5.51322 1108.54 6.39453C1107.51 6.80182 1106.35 6.29967 1105.95 5.27293C1105.54 4.2462 1106.04 3.08369 1107.07 2.67639C1109.55 1.69025 1112.16 0.959641 1114.9 0.509068C1115.99 0.329736 1117.02 1.06791 1117.2 2.15782C1117.38 3.24774 1116.64 4.27667 1115.55 4.456ZM1122.84 3.99901C1121.74 3.963 1120.87 3.03885 1120.91 1.93486C1120.95 0.830883 1121.87 -0.0348763 1122.97 0.00113836C1125.54 0.0847899 1128.2 0.390922 1130.95 0.930779C1132.04 1.14306 1132.74 2.19389 1132.53 3.27786C1132.32 4.36184 1131.27 5.0685 1130.18 4.85622C1127.62 4.35479 1125.18 4.07521 1122.84 3.99901ZM1099.87 6.44208C1100.79 5.83457 1102.03 6.08993 1102.64 7.01243C1103.25 7.93494 1102.99 9.17525 1102.07 9.78276C1100.06 11.106 1098.14 12.6403 1096.3 14.3687C1095.49 15.125 1094.23 15.0854 1093.47 14.2803C1092.71 13.4753 1092.75 12.2096 1093.56 11.4533C1095.55 9.5828 1097.65 7.90282 1099.87 6.44208ZM1137.4 6.76655C1136.35 6.42031 1135.78 5.28933 1136.13 4.24043C1136.47 3.19153 1137.6 2.6219 1138.65 2.96813C1139.92 3.38557 1141.2 3.84819 1142.5 4.35692C1143.53 4.75842 1144.04 5.91808 1143.64 6.94709C1143.24 7.97611 1142.08 8.48481 1141.05 8.08332C1139.81 7.59932 1138.59 7.16088 1137.4 6.76655ZM577.895 120.186C576.801 120.335 575.793 119.569 575.643 118.475C575.494 117.38 576.26 116.372 577.354 116.222C578.701 116.038 580.03 115.871 581.342 115.718C582.44 115.591 583.432 116.378 583.56 117.475C583.687 118.572 582.901 119.565 581.803 119.692C580.518 119.841 579.216 120.005 577.895 120.186ZM589.473 118.968C588.371 119.047 587.413 118.218 587.334 117.117C587.255 116.015 588.083 115.057 589.185 114.978C591.888 114.783 594.514 114.658 597.066 114.599C598.17 114.574 599.086 115.448 599.112 116.553C599.137 117.657 598.263 118.573 597.158 118.598C594.673 118.656 592.112 118.777 589.473 118.968ZM1088.13 17.322C1088.83 16.4649 1090.08 16.3348 1090.94 17.0315C1091.8 17.7282 1091.93 18.9878 1091.23 19.845C1089.69 21.737 1088.22 23.7727 1086.8 25.9378C1086.19 26.8613 1084.95 27.1187 1084.03 26.5127C1083.11 25.9067 1082.85 24.6668 1083.45 23.7433C1084.94 21.4781 1086.5 19.3311 1088.13 17.322ZM604.848 118.629C603.744 118.593 602.878 117.67 602.913 116.566C602.949 115.462 603.872 114.595 604.976 114.631C607.703 114.718 610.34 114.885 612.892 115.125C613.992 115.228 614.799 116.203 614.696 117.303C614.592 118.403 613.617 119.211 612.517 119.107C610.049 118.875 607.495 118.713 604.848 118.629ZM620.127 120.082C619.037 119.903 618.298 118.875 618.476 117.785C618.654 116.695 619.682 115.956 620.773 116.134C623.469 116.575 626.064 117.102 628.565 117.705C629.639 117.964 630.299 119.044 630.04 120.118C629.781 121.192 628.701 121.853 627.627 121.594C625.224 121.014 622.726 120.507 620.127 120.082ZM1079.39 30.5137C1079.92 29.5463 1081.14 29.1944 1082.11 29.7275C1083.08 30.2607 1083.43 31.4772 1082.89 32.4445C1081.7 34.6186 1080.54 36.8844 1079.42 39.23C1078.94 40.2269 1077.75 40.6494 1076.75 40.1737C1075.76 39.698 1075.33 38.5043 1075.81 37.5074C1076.96 35.0995 1078.15 32.7637 1079.39 30.5137ZM634.964 123.671C633.914 123.328 633.341 122.198 633.684 121.148C634.027 120.098 635.156 119.525 636.206 119.868C638.802 120.716 641.288 121.647 643.674 122.649C644.693 123.076 645.172 124.248 644.745 125.267C644.318 126.285 643.146 126.765 642.127 126.337C639.838 125.377 637.454 124.484 634.964 123.671ZM649.055 129.578C648.074 129.071 647.69 127.864 648.197 126.883C648.705 125.902 649.911 125.518 650.892 126.025C653.297 127.268 655.595 128.578 657.802 129.935C658.743 130.514 659.037 131.746 658.458 132.687C657.88 133.627 656.648 133.921 655.707 133.343C653.577 132.033 651.365 130.773 649.055 129.578ZM1072.61 44.6486C1073.04 43.6314 1074.21 43.1559 1075.23 43.5865C1076.24 44.017 1076.72 45.1907 1076.29 46.2079C1075.31 48.5253 1074.36 50.9001 1073.43 53.3226C1073.03 54.3539 1071.87 54.8695 1070.84 54.474C1069.81 54.0786 1069.3 52.922 1069.69 51.8906C1070.63 49.4307 1071.6 47.013 1072.61 44.6486ZM869.81 93.717C868.576 93.8531 867.329 94.0446 866.069 94.2946C864.815 94.5435 863.581 94.8146 862.364 95.1068C861.29 95.3648 860.211 94.7033 859.953 93.6293C859.695 92.5553 860.356 91.4754 861.43 91.2174C862.698 90.9128 863.984 90.6304 865.29 90.3712C866.662 90.099 868.022 89.8898 869.372 89.741C870.47 89.62 871.458 90.412 871.579 91.5099C871.7 92.6078 870.908 93.596 869.81 93.717ZM853.859 93.3613C854.909 93.0178 856.038 93.5904 856.382 94.6402C856.725 95.69 856.152 96.8195 855.103 97.163C852.673 97.9578 850.317 98.8388 848.024 99.7966C847.005 100.222 845.833 99.7413 845.408 98.7221C844.982 97.7029 845.463 96.5315 846.482 96.1057C848.87 95.1083 851.326 94.1901 853.859 93.3613ZM877.313 93.557C876.211 93.4826 875.378 92.5289 875.452 91.4269C875.526 90.3248 876.48 89.4917 877.582 89.566C880.334 89.7517 883.035 90.1791 885.687 90.818C886.761 91.0767 887.422 92.1569 887.163 93.2307C886.905 94.3046 885.824 94.9655 884.751 94.7068C882.305 94.1177 879.828 93.7267 877.313 93.557ZM662.117 137.582C661.215 136.944 661 135.696 661.638 134.794C662.275 133.892 663.523 133.677 664.425 134.315C666.617 135.863 668.722 137.445 670.757 139.036C671.628 139.716 671.782 140.973 671.101 141.843C670.421 142.714 669.164 142.868 668.294 142.187C666.299 140.628 664.247 139.086 662.117 137.582ZM839.348 99.4114C840.332 98.9101 841.536 99.3015 842.038 100.286C842.539 101.27 842.148 102.474 841.163 102.976C838.899 104.129 836.695 105.356 834.54 106.646C833.592 107.213 832.364 106.905 831.797 105.957C831.229 105.009 831.538 103.781 832.485 103.214C834.713 101.88 836.997 100.609 839.348 99.4114ZM1067 59.2029C1067.37 58.1615 1068.51 57.616 1069.55 57.9844C1070.6 58.3528 1071.14 59.4956 1070.77 60.5369C1069.92 62.9354 1069.09 65.3675 1068.28 67.8244C1067.93 68.8727 1066.8 69.4402 1065.75 69.092C1064.7 68.7439 1064.13 67.6119 1064.48 66.5636C1065.31 64.086 1066.14 61.6292 1067 59.2029ZM891.957 97.0279C890.932 96.6162 890.435 95.4515 890.847 94.4265C891.259 93.4016 892.424 92.9045 893.448 93.3163C895.934 94.3146 898.377 95.4835 900.782 96.795C901.752 97.3237 902.11 98.5385 901.581 99.5083C901.052 100.478 899.838 100.836 898.868 100.307C896.584 99.062 894.282 97.9619 891.957 97.0279ZM825.889 107.439C826.802 106.817 828.046 107.053 828.669 107.965C829.291 108.878 829.055 110.122 828.143 110.744C826.043 112.176 823.985 113.662 821.959 115.191C821.077 115.856 819.823 115.681 819.158 114.799C818.492 113.918 818.668 112.664 819.549 111.998C821.62 110.435 823.731 108.911 825.889 107.439ZM674.316 147.056C673.466 146.351 673.349 145.09 674.054 144.24C674.76 143.39 676.02 143.272 676.87 143.978C678.275 145.143 679.658 146.306 681.02 147.45L681.054 147.479C681.663 147.99 682.267 148.498 682.867 149.001C683.714 149.71 683.825 150.972 683.115 151.818C682.406 152.665 681.144 152.776 680.298 152.066C679.678 151.547 679.059 151.027 678.437 150.504L678.431 150.499C677.076 149.36 675.709 148.212 674.316 147.056ZM813.425 116.807C814.282 116.11 815.541 116.24 816.238 117.097C816.935 117.954 816.806 119.213 815.949 119.91C813.969 121.521 812.012 123.163 810.066 124.826C809.226 125.543 807.964 125.444 807.246 124.605C806.529 123.765 806.628 122.502 807.467 121.785C809.431 120.106 811.414 118.443 813.425 116.807ZM905.432 104.297C904.513 103.683 904.266 102.441 904.88 101.523C905.493 100.604 906.735 100.357 907.654 100.97C909.848 102.436 912.016 104.005 914.161 105.657C915.037 106.331 915.2 107.587 914.526 108.462C913.852 109.337 912.596 109.5 911.721 108.827C909.637 107.222 907.542 105.706 905.432 104.297ZM1062.09 73.9556C1062.42 72.9027 1063.54 72.3198 1064.6 72.6537C1065.65 72.9875 1066.23 74.1117 1065.9 75.1646C1065.12 77.6114 1064.36 80.0728 1063.6 82.5408C1063.27 83.5965 1062.15 84.1889 1061.1 83.864C1060.04 83.5391 1059.45 82.4199 1059.78 81.3642C1060.54 78.8887 1061.31 76.4161 1062.09 73.9556ZM801.62 126.854C802.451 126.126 803.714 126.21 804.442 127.041C805.17 127.872 805.086 129.135 804.255 129.863C803.289 130.709 802.325 131.557 801.358 132.406C800.393 133.254 799.426 134.104 798.457 134.952C797.626 135.68 796.362 135.596 795.635 134.766C794.907 133.935 794.991 132.671 795.821 131.943C796.787 131.097 797.752 130.25 798.718 129.401C799.684 128.552 800.651 127.703 801.62 126.854ZM686.366 157.053C685.502 156.365 685.36 155.106 686.048 154.243C686.736 153.379 687.995 153.236 688.859 153.925C690.907 155.557 692.941 157.107 694.991 158.545C695.896 159.18 696.114 160.427 695.48 161.331C694.845 162.235 693.598 162.454 692.694 161.82C690.558 160.321 688.457 158.72 686.366 157.053ZM917.757 113.726C916.915 113.01 916.813 111.748 917.529 110.907C918.245 110.065 919.507 109.964 920.348 110.679C922.348 112.38 924.333 114.139 926.306 115.936C927.123 116.68 927.182 117.945 926.438 118.762C925.694 119.578 924.429 119.637 923.613 118.893C921.666 117.12 919.716 115.393 917.757 113.726ZM790.011 136.981C790.85 136.263 792.113 136.362 792.83 137.202C793.548 138.042 793.449 139.304 792.609 140.022C790.646 141.7 788.663 143.364 786.652 144.999C785.795 145.696 784.535 145.567 783.838 144.71C783.141 143.853 783.271 142.593 784.128 141.896C786.108 140.286 788.065 138.644 790.011 136.981ZM1057.51 88.776C1057.83 87.7191 1058.95 87.1225 1060.01 87.4434C1061.06 87.7644 1061.66 88.8814 1061.34 89.9383L1060.69 92.0739C1060.16 93.8342 1059.62 95.5926 1059.09 97.3442C1058.77 98.4008 1057.65 98.9963 1056.59 98.6742C1055.54 98.3522 1054.94 97.2346 1055.26 96.178C1055.8 94.428 1056.33 92.6723 1056.86 90.9121L1057.51 88.776ZM778.118 146.615C779 145.95 780.254 146.125 780.919 147.007C781.585 147.889 781.409 149.143 780.528 149.808C778.456 151.371 776.346 152.895 774.187 154.367C773.275 154.989 772.031 154.754 771.408 153.841C770.786 152.929 771.021 151.684 771.934 151.062C774.034 149.631 776.092 148.145 778.118 146.615ZM699.462 166.098C698.497 165.56 698.151 164.342 698.688 163.377C699.226 162.412 700.444 162.066 701.409 162.603C703.617 163.834 705.872 164.907 708.206 165.793C709.239 166.184 709.759 167.339 709.367 168.372C708.976 169.405 707.821 169.924 706.788 169.533C704.249 168.57 701.818 167.41 699.462 166.098ZM929.348 124.241C928.547 123.48 928.515 122.214 929.276 121.414C930.037 120.613 931.303 120.581 932.104 121.342C934.006 123.151 935.902 124.982 937.793 126.817C938.585 127.587 938.604 128.853 937.835 129.646C937.066 130.438 935.799 130.457 935.007 129.688C933.12 127.856 931.235 126.036 929.348 124.241ZM765.537 155.161C766.484 154.594 767.713 154.902 768.28 155.85C768.847 156.797 768.539 158.026 767.591 158.593C765.364 159.926 763.08 161.198 760.729 162.395C759.745 162.896 758.541 162.505 758.039 161.521C757.538 160.537 757.929 159.332 758.914 158.831C761.177 157.678 763.382 156.451 765.537 155.161ZM714.615 171.759C713.531 171.551 712.82 170.503 713.028 169.418C713.236 168.333 714.284 167.622 715.368 167.83C717.717 168.281 720.173 168.543 722.764 168.587C723.869 168.606 724.749 169.517 724.73 170.621C724.711 171.726 723.8 172.606 722.696 172.587C719.875 172.538 717.19 172.252 714.615 171.759ZM752.053 162.01C753.072 161.584 754.243 162.065 754.669 163.084C755.095 164.104 754.614 165.275 753.595 165.701C751.207 166.698 748.751 167.616 746.218 168.445C745.168 168.789 744.039 168.216 743.695 167.166C743.352 166.117 743.924 164.987 744.974 164.644C747.403 163.849 749.76 162.968 752.053 162.01ZM1052.99 103.558C1053.32 102.503 1054.44 101.914 1055.5 102.243C1056.55 102.571 1057.14 103.692 1056.81 104.747C1056.04 107.237 1055.26 109.706 1054.47 112.146C1054.13 113.197 1053 113.773 1051.95 113.433C1050.9 113.093 1050.32 111.965 1050.66 110.914C1051.45 108.492 1052.22 106.037 1052.99 103.558ZM730.775 172.102C729.68 172.248 728.675 171.478 728.529 170.383C728.384 169.288 729.153 168.283 730.248 168.137C731.47 167.974 732.723 167.767 734.008 167.512C735.261 167.263 736.496 166.992 737.712 166.7C738.786 166.442 739.866 167.103 740.124 168.177C740.382 169.251 739.721 170.331 738.647 170.589C737.379 170.894 736.092 171.176 734.786 171.435C733.421 171.706 732.084 171.928 730.775 172.102ZM940.656 135.18C939.863 134.411 939.844 133.145 940.614 132.352C941.383 131.56 942.649 131.541 943.442 132.31C945.328 134.142 947.213 135.962 949.101 137.757C949.901 138.518 949.933 139.784 949.172 140.584C948.411 141.385 947.145 141.417 946.345 140.656C944.443 138.847 942.547 137.016 940.656 135.18ZM1048.23 118.228C1048.59 117.183 1049.72 116.628 1050.77 116.986C1051.81 117.345 1052.37 118.483 1052.01 119.528C1051.15 122.021 1050.28 124.471 1049.39 126.868C1049 127.903 1047.85 128.43 1046.82 128.045C1045.78 127.659 1045.25 126.508 1045.64 125.473C1046.52 123.112 1047.38 120.694 1048.23 118.228ZM952.142 146.062C951.326 145.318 951.267 144.053 952.011 143.236C952.754 142.42 954.019 142.361 954.836 143.105C956.782 144.878 958.733 146.605 960.692 148.272C961.533 148.987 961.635 150.25 960.919 151.091C960.204 151.932 958.942 152.034 958.1 151.318C956.101 149.617 954.115 147.859 952.142 146.062ZM1042.84 132.613C1043.27 131.593 1044.44 131.107 1045.46 131.529C1046.48 131.951 1046.96 133.121 1046.54 134.142C1045.52 136.61 1044.47 139.004 1043.38 141.308C1042.91 142.307 1041.72 142.734 1040.72 142.262C1039.72 141.79 1039.29 140.598 1039.76 139.599C1040.82 137.362 1041.84 135.03 1042.84 132.613ZM964.287 156.341C963.412 155.667 963.249 154.411 963.923 153.536C964.596 152.661 965.852 152.497 966.727 153.171C968.812 154.776 970.907 156.292 973.017 157.701C973.935 158.315 974.182 159.557 973.569 160.475C972.956 161.394 971.714 161.641 970.795 161.028C968.601 159.562 966.433 157.993 964.287 156.341ZM1036.3 146.347C1036.84 145.383 1038.06 145.039 1039.02 145.579C1039.99 146.118 1040.33 147.337 1039.79 148.301C1038.46 150.69 1037.06 152.949 1035.59 155.054C1034.96 155.96 1033.71 156.183 1032.81 155.551C1031.9 154.92 1031.68 153.673 1032.31 152.767C1033.69 150.785 1035.02 148.639 1036.3 146.347ZM977.666 165.203C976.696 164.674 976.339 163.459 976.868 162.49C977.396 161.52 978.611 161.162 979.581 161.691C981.865 162.936 984.166 164.036 986.491 164.97C987.516 165.382 988.013 166.546 987.602 167.571C987.19 168.596 986.025 169.093 985 168.682C982.515 167.683 980.072 166.514 977.666 165.203ZM1027.64 158.593C1028.4 157.786 1029.66 157.743 1030.47 158.497C1031.28 159.252 1031.32 160.517 1030.57 161.324C1028.66 163.363 1026.64 165.166 1024.48 166.688C1023.57 167.325 1022.33 167.109 1021.69 166.206C1021.05 165.303 1021.27 164.055 1022.17 163.419C1024.08 162.075 1025.9 160.46 1027.64 158.593ZM992.761 171.18C991.688 170.921 991.027 169.841 991.285 168.767C991.544 167.693 992.624 167.032 993.698 167.291C996.144 167.88 998.621 168.271 1001.14 168.441C1002.24 168.515 1003.07 169.469 1003 170.571C1002.92 171.673 1001.97 172.506 1000.87 172.432C998.115 172.246 995.414 171.819 992.761 171.18ZM1015.83 166.748C1016.87 166.376 1018.02 166.917 1018.39 167.957C1018.76 168.997 1018.22 170.142 1017.18 170.514C1015.88 170.98 1014.54 171.353 1013.16 171.627C1011.79 171.899 1010.43 172.108 1009.08 172.257C1007.98 172.378 1006.99 171.586 1006.87 170.488C1006.75 169.39 1007.54 168.402 1008.64 168.281C1009.87 168.145 1011.12 167.953 1012.38 167.703C1013.56 167.468 1014.72 167.148 1015.83 166.748Z" fill="#3084B6"/>
</svg>
