<svg width="83" height="68" viewBox="0 0 83 68" fill="none" xmlns="http://www.w3.org/2000/svg">
<path d="M19.2203 29.7983C21.1086 36.2516 26.5514 49.416 35.7485 48.2344C44.973 47.0492 41.3707 35.1543 49.815 33.524C53.5323 32.8063 56.052 39.2399 59.7776 39.0398C64.5759 38.782 67.0181 34.0323 68.359 30.0393C71.2021 21.5729 66.9444 7.21639 56.9795 4.72994C48.2835 2.56019 47.2664 13.185 39.7052 10.0989C35.4553 8.36433 35.8799 3.18442 30.7039 2.13923C15.0453 -1.02268 16.7078 21.2111 19.2203 29.7983Z" fill="url(#paint0_linear_744_1277)"/>
<path d="M59.7808 40.012C58.9863 40.012 58.3398 39.3656 58.3398 38.5709C58.3398 37.7763 58.9863 37.1299 59.7808 37.1299C60.5753 37.1299 61.2218 37.7763 61.2218 38.5709C61.2218 39.3656 60.5753 40.012 59.7808 40.012ZM59.7808 38.1383C59.5422 38.1383 59.3481 38.3324 59.3481 38.571C59.3481 38.8097 59.5422 39.0038 59.7808 39.0038C60.0194 39.0038 60.2135 38.8097 60.2135 38.571C60.2135 38.3324 60.0194 38.1383 59.7808 38.1383Z" fill="#25C3C8"/>
<path d="M25.9609 18.5523C25.8272 18.5523 25.699 18.4992 25.6044 18.4047C25.5099 18.3101 25.4568 18.1819 25.4568 18.0482C25.4568 17.7146 25.1854 17.4432 24.8518 17.4432C24.7181 17.4432 24.5899 17.3901 24.4953 17.2956C24.4008 17.201 24.3477 17.0728 24.3477 16.9391C24.3477 16.8054 24.4008 16.6771 24.4953 16.5826C24.5899 16.488 24.7181 16.4349 24.8518 16.4349C25.1854 16.4349 25.4568 16.1636 25.4568 15.83C25.4568 15.6962 25.5099 15.568 25.6044 15.4735C25.699 15.3789 25.8272 15.3258 25.9609 15.3258C26.0946 15.3258 26.2229 15.3789 26.3174 15.4735C26.412 15.568 26.4651 15.6962 26.4651 15.83C26.4651 16.1636 26.7364 16.4349 27.0701 16.4349C27.2038 16.4349 27.332 16.488 27.4265 16.5826C27.5211 16.6771 27.5742 16.8054 27.5742 16.9391C27.5742 17.0728 27.5211 17.201 27.4265 17.2956C27.332 17.3901 27.2038 17.4432 27.0701 17.4432C26.7364 17.4432 26.4651 17.7146 26.4651 18.0482C26.4651 18.1819 26.412 18.3101 26.3174 18.4047C26.2229 18.4992 26.0946 18.5523 25.9609 18.5523ZM61.2243 44.5748C61.0906 44.5748 60.9624 44.5217 60.8678 44.4272C60.7733 44.3326 60.7202 44.2044 60.7202 44.0707C60.7202 43.737 60.4488 43.4657 60.1152 43.4657C59.9815 43.4657 59.8532 43.4126 59.7587 43.318C59.6642 43.2235 59.611 43.0953 59.611 42.9615C59.611 42.8278 59.6642 42.6996 59.7587 42.6051C59.8532 42.5105 59.9815 42.4574 60.1152 42.4574C60.4488 42.4574 60.7202 42.1861 60.7202 41.8524C60.7202 41.7187 60.7733 41.5905 60.8678 41.4959C60.9624 41.4014 61.0906 41.3483 61.2243 41.3483C61.358 41.3483 61.4863 41.4014 61.5808 41.4959C61.6753 41.5905 61.7285 41.7187 61.7285 41.8524C61.7285 42.1861 61.9998 42.4574 62.3334 42.4574C62.4671 42.4574 62.5954 42.5105 62.6899 42.6051C62.7845 42.6996 62.8376 42.8278 62.8376 42.9615C62.8376 43.0953 62.7845 43.2235 62.6899 43.318C62.5954 43.4126 62.4671 43.4657 62.3334 43.4657C61.9998 43.4657 61.7285 43.737 61.7285 44.0707C61.7285 44.2044 61.6753 44.3326 61.5808 44.4272C61.4863 44.5217 61.358 44.5748 61.2243 44.5748Z" fill="#CFE44A"/>
<path d="M79.1926 33.7592C79.1382 33.6371 79.1345 33.4984 79.1824 33.3735C79.2303 33.2487 79.3258 33.148 79.448 33.0936C79.7528 32.9578 79.8902 32.5995 79.7544 32.2948C79.7 32.1726 79.6963 32.0339 79.7442 31.909C79.7921 31.7842 79.8876 31.6835 80.0098 31.6291C80.1319 31.5747 80.2707 31.571 80.3955 31.6189C80.5203 31.6668 80.621 31.7623 80.6754 31.8844C80.8112 32.1892 81.1695 32.3267 81.4743 32.1909C81.5964 32.1365 81.7351 32.1328 81.86 32.1807C81.9848 32.2286 82.0855 32.3241 82.1399 32.4462C82.1943 32.5684 82.198 32.7071 82.1501 32.832C82.1022 32.9568 82.0067 33.0575 81.8846 33.1119C81.5798 33.2477 81.4424 33.606 81.5781 33.9107C81.6325 34.0329 81.6362 34.1716 81.5883 34.2964C81.5404 34.4213 81.4449 34.522 81.3228 34.5764C81.2006 34.6308 81.0619 34.6345 80.9371 34.5866C80.8122 34.5387 80.7115 34.4432 80.6571 34.321C80.5213 34.0163 80.1631 33.8788 79.8583 34.0146C79.7362 34.069 79.5974 34.0727 79.4726 34.0248C79.3477 33.9769 79.247 33.8814 79.1926 33.7592ZM56.3167 2.99569C56.2622 2.87356 56.2586 2.73481 56.3065 2.60997C56.3544 2.48513 56.4499 2.38443 56.572 2.33002C56.8768 2.19425 57.0142 1.83598 56.8785 1.53121C56.824 1.40908 56.8204 1.27033 56.8683 1.14549C56.9162 1.02065 57.0117 0.91995 57.1338 0.865539C57.2559 0.811128 57.3947 0.807465 57.5195 0.855354C57.6444 0.903243 57.7451 0.998762 57.7995 1.1209C57.9353 1.42567 58.2935 1.5631 58.5983 1.42733C58.7204 1.37292 58.8592 1.36926 58.984 1.41714C59.1089 1.46503 59.2096 1.56055 59.264 1.68269C59.3184 1.80483 59.322 1.94357 59.2741 2.06841C59.2263 2.19325 59.1307 2.29395 59.0086 2.34836C58.7038 2.48413 58.5664 2.8424 58.7022 3.14717C58.7566 3.26931 58.7602 3.40806 58.7124 3.53289C58.6645 3.65773 58.569 3.75843 58.4468 3.81284C58.3247 3.86725 58.1859 3.87092 58.0611 3.82303C57.9363 3.77514 57.8356 3.67962 57.7811 3.55748C57.6454 3.25271 57.2871 3.11528 56.9823 3.25105C56.8602 3.30546 56.7214 3.30913 56.5966 3.26124C56.4718 3.21335 56.3711 3.11783 56.3167 2.99569Z" fill="#3084B6"/>
<path d="M59.1479 20.1259C49.7441 3.50082 26.7404 -0.554642 12.1825 11.5584C11.4401 12.2752 10.2263 12.8363 10.2071 13.9947C10.2065 14.2048 10.2473 14.413 10.3272 14.6073C10.4071 14.8016 10.5245 14.9783 10.6727 15.1273C10.8208 15.2763 10.9969 15.3946 11.1908 15.4755C11.3847 15.5565 11.5927 15.5984 11.8028 15.599C12.2065 15.5972 12.5945 15.4424 12.8887 15.1659C16.2717 12.0558 20.3633 9.81926 24.8076 8.65069C22.0407 12.0896 19.8753 17.4635 18.6743 24.0086C12.8332 22.6603 9.02306 20.7296 7.15426 19.4475C6.53986 19.0699 5.64172 19.1488 5.16172 19.7227C-7.78548 40.0299 7.94146 67.8208 32.0225 67.4475C56.1249 67.7056 71.438 40.4864 59.1479 20.1259ZM55.5425 20.2838C53.4689 21.4699 50.0044 22.9312 45.3708 24.0064C44.1697 17.4528 41.998 12.0726 39.2247 8.63363C45.774 10.2507 51.9607 14.7435 55.5425 20.2838ZM32.0225 7.71416C36.0076 7.71416 40.334 14.287 42.2327 24.6336C36.3511 25.7451 27.6919 25.7451 21.8103 24.6336C23.7111 14.2848 28.0375 7.71416 32.0225 7.71416ZM21.3324 27.8038C27.5212 28.9558 36.5239 28.9558 42.7127 27.8038C43.3889 33.1926 43.4551 39.3579 42.6103 44.8747C35.6034 46.1469 28.4248 46.1476 21.4177 44.8768C20.6647 39.6822 20.6305 33.0518 21.3324 27.8038ZM6.91959 23.0678C9.31959 24.4395 13.1425 26.0438 18.1815 27.1872C17.4668 32.5014 17.4412 38.8182 18.1111 44.1643C13.1544 42.9559 8.38178 41.0897 3.92012 38.6155C3.40914 33.2526 4.45029 27.8557 6.91959 23.0678ZM4.57292 42.5771C9.02775 44.8106 13.742 46.4837 18.6081 47.5584C19.7879 54.2486 21.966 59.7547 24.7692 63.264C14.8513 60.8363 6.67212 52.128 4.57292 42.5771ZM31.7857 64.2155C27.9841 63.9702 23.9308 57.839 21.9916 48.207C28.5729 49.2971 35.4145 49.2971 41.9959 48.2091C41.5076 50.6365 40.8569 53.0284 40.0481 55.3686C39.8956 55.7646 39.9067 56.205 40.079 56.5929C40.2512 56.9808 40.5705 57.2844 40.9665 57.4368C41.3626 57.5893 41.803 57.5782 42.1909 57.406C42.5787 57.2338 42.8823 56.9145 43.0348 56.5184C44.0716 53.5958 44.8353 50.5942 45.3985 47.5563C50.3074 46.4711 55.0616 44.7777 59.5511 42.5152C56.782 55.2299 44.2572 64.6144 31.7857 64.2155ZM45.9127 44.1622C46.6551 38.639 46.5591 32.5824 45.8615 27.1872C50.9345 26.0374 54.7724 24.4182 57.1681 23.0422C59.6233 27.8298 60.6658 33.2171 60.174 38.575C55.6926 41.0692 50.8957 42.9485 45.9127 44.1622Z" fill="#3084B6" stroke="#3084B6"/>
<defs>
<linearGradient id="paint0_linear_744_1277" x1="23.9996" y1="41.4338" x2="56.7996" y2="-8.9662" gradientUnits="userSpaceOnUse">
<stop offset="0.257999" stop-color="#FBFFE4"/>
<stop offset="1" stop-color="#CFE44A"/>
</linearGradient>
</defs>
</svg>
